<?xml version="1.0" encoding="UTF-8" standalone="no"?>
<!DOCTYPE svg PUBLIC "-//W3C//DTD SVG 1.1//EN" "http://www.w3.org/Graphics/SVG/1.1/DTD/svg11.dtd">
<svg width="100%" height="100%" viewBox="0 0 128 128" version="1.1" xmlns="http://www.w3.org/2000/svg" xmlns:xlink="http://www.w3.org/1999/xlink" xml:space="preserve" xmlns:serif="http://www.serif.com/" style="fill-rule:evenodd;clip-rule:evenodd;stroke-linecap:round;stroke-linejoin:round;stroke-miterlimit:1.5;">
    <path d="M27.399,97.17L16.44,107.997L10.13,107.997L10.13,99.455L23.397,86.259C18.062,65.768 14.739,28.857 14.739,28.857C14.739,28.857 38.774,23.559 46.984,21.377C53.453,19.659 64,8.199 64,8.199C64,8.199 74.384,19.659 80.853,21.377C82.43,21.797 84.598,22.331 87.071,22.921L98.211,11.84L93.218,7.417L96.771,3.405L102.182,8.199L108.532,3.479L115.23,8.199L110.147,15.071L115.037,19.584L111.484,23.596L106.412,19.103L99.616,25.818C106.913,27.467 113.261,28.857 113.261,28.857C113.261,28.857 108.277,84.214 100.718,96.978C94.609,107.293 64,115.767 64,115.767C64,115.767 33.77,107.398 27.399,97.17Z" style="fill:white;stroke:black;stroke-width:4.17px;"/>
    <g transform="matrix(0.948352,0,0,1.037252,3.305458,-2.308953)">
        <path d="M64,10.13C64,10.13 74.95,21.179 81.771,22.836C90.428,24.939 115.943,30.047 115.943,30.047C115.943,30.047 110.688,83.416 102.718,95.721C96.276,105.665 64,119.978 64,119.978C64,119.978 31.724,105.665 25.282,95.721C17.312,83.416 12.057,30.047 12.057,30.047C12.057,30.047 37.4,24.939 46.058,22.836C52.878,21.179 64,10.13 64,10.13Z" style="fill:rgb(116,24,55);stroke:black;stroke-width:4.19px;"/>
    </g>
    <g transform="matrix(1,0,0,1,6.485259,9.13625)">
        <g transform="matrix(66.666667,0,0,66.666667,84.988699,78.285764)">
        </g>
        <text x="27.111px" y="78.286px" style="font-family:'AgencyFB-Reg', 'Agency FB', sans-serif;font-stretch:condensed;font-size:66.667px;fill:white;">SQ</text>
    </g>
</svg>
