<svg width="304" height="36" viewBox="0 0 304 36" fill="none" xmlns="http://www.w3.org/2000/svg">
<g clip-path="url(#clip0_144_221)">
<path d="M44.6735 8.24268H36.9135V29.2531H40.3567V21.0073H44.7018C49.4035 21.0073 51.9931 18.711 51.9931 14.5397C51.9931 12.6465 51.2789 8.24268 44.6735 8.24268ZM48.4921 14.5976C48.4921 16.967 47.2625 17.9332 44.2473 17.9332H40.3567V11.3451H44.7019C47.2537 11.3451 48.4921 12.4098 48.4921 14.5976ZM62.2423 13.9454L62.5027 14.0711L61.9183 17.1766L61.5163 17.0526C61.1869 16.9511 60.8522 16.8998 60.5216 16.8998C57.3052 16.8998 57.0425 19.4611 57.0425 22.5589V29.2531H53.8537V13.8245H56.8435V15.6858C57.657 14.4341 58.6416 13.7879 59.9367 13.6291C60.7855 13.5311 61.6125 13.6468 62.2423 13.9454ZM70.0802 13.5134C67.5703 13.5134 65.561 14.4689 64.2665 16.276C62.9076 18.174 62.7063 20.4054 62.7063 21.5662C62.7063 26.4422 65.5993 29.5919 70.0802 29.5919C75.5245 29.5919 77.4559 25.2069 77.4559 21.4529C77.4559 19.2929 76.8154 17.333 75.6555 15.9331C74.3415 14.3503 72.4131 13.5134 70.0802 13.5134ZM70.0802 26.7443C67.5851 26.7443 66.035 24.7596 66.035 21.5662C66.035 18.3386 67.5851 16.3327 70.0802 16.3327C72.5559 16.3327 74.1544 18.3634 74.1544 21.5101C74.1544 24.7378 72.5925 26.7443 70.0802 26.7443ZM104.252 13.9454L104.512 14.0711L103.926 17.1766L103.523 17.0526C103.196 16.9511 102.861 16.8998 102.529 16.8998C99.3132 16.8998 99.0523 19.4611 99.0523 22.5589V29.2531H95.8636V13.8245H98.854V15.6858C99.6668 14.4341 100.652 13.7879 101.947 13.6291C102.795 13.5311 103.621 13.6468 104.252 13.9454ZM115.703 24.3069L115.644 24.4763C114.978 26.3731 113.388 26.7709 112.169 26.7709C109.756 26.7709 108.203 25.1698 108.052 22.5689H118.963L119.003 22.2661C119.051 21.9091 119.043 21.4063 119.038 21.0386C119.037 20.9383 119.034 20.848 119.034 20.76C118.875 16.4412 116.059 13.54 112.027 13.54C109.672 13.54 107.741 14.4648 106.443 16.217C105.394 17.6339 104.791 19.5945 104.791 21.5945C104.791 26.3619 107.757 29.5659 112.169 29.5659C115.582 29.5659 117.932 27.8314 118.789 24.6835L118.892 24.3069L115.703 24.3069ZM108.158 19.8016C108.426 17.6641 109.89 16.3055 111.97 16.3055C113.56 16.3055 115.442 17.2297 115.705 19.8016H108.158ZM90.0569 15.1193C89.028 14.0528 87.6532 13.5134 85.9544 13.5134C81.2763 13.5134 79.1465 17.6292 79.1465 21.4529C79.1465 25.3769 81.2515 29.3369 85.9544 29.3369C87.5233 29.3369 88.9253 28.7597 89.9353 27.7216C89.9241 28.4009 89.9063 29.0495 89.8875 29.3251C89.7139 31.8705 88.4908 33.0555 86.0388 33.0555C84.7047 33.0555 83.1741 32.5822 82.8784 31.2532L82.8134 30.9598L79.6713 30.9604L79.7221 31.3812C80.0509 34.1013 82.4398 35.7915 85.9544 35.7915C89.0386 35.7915 91.2333 34.6295 92.3 32.4335C92.8147 31.3753 93.075 29.8327 93.075 27.8509V13.8245H90.0569L90.0569 15.1193ZM86.1539 26.49C85.0388 26.49 82.4486 25.9848 82.4486 21.3118C82.4486 18.2406 83.9007 16.3327 86.2377 16.3327C88.0434 16.3327 89.9725 17.6405 89.9725 21.3118C89.9725 24.553 88.5446 26.49 86.1539 26.49ZM133.765 24.6085C133.765 27.0618 131.728 29.5376 127.177 29.5376C123.152 29.5376 120.757 27.7948 120.435 24.6321L120.401 24.3069H123.539L123.587 24.543C123.971 26.4445 125.783 26.8435 127.236 26.8435C128.828 26.8435 130.528 26.33 130.528 24.8924C130.528 24.1635 130.054 23.6466 129.119 23.355C128.565 23.1904 127.883 22.9986 127.163 22.7973C125.921 22.4503 124.637 22.0885 123.846 21.8165C121.889 21.1153 120.766 19.7503 120.766 18.0713C120.766 14.9605 123.795 13.5677 126.795 13.5677C130.809 13.5677 132.885 15.0791 133.146 18.1869L133.173 18.5074L130.08 18.505L130.037 18.2601C129.726 16.4708 127.947 16.2034 126.913 16.2034C126.021 16.2034 123.946 16.3627 123.946 17.8417C123.946 18.5139 124.52 19.0078 125.702 19.3507C126.055 19.4499 126.58 19.5845 127.186 19.7414C128.445 20.0672 130.014 20.4738 130.803 20.7465C132.769 21.4376 133.765 22.7365 133.765 24.6085ZM148.492 24.6085C148.492 27.0618 146.455 29.5376 141.906 29.5376C137.88 29.5376 135.485 27.7948 135.163 24.6321L135.129 24.3069H138.268L138.314 24.543C138.699 26.4445 140.511 26.8435 141.965 26.8435C143.556 26.8435 145.256 26.33 145.256 24.8924C145.256 24.1635 144.781 23.6466 143.848 23.355C143.292 23.1904 142.611 22.9986 141.889 22.7973C140.65 22.4503 139.365 22.0885 138.575 21.8165C136.617 21.1153 135.495 19.7503 135.495 18.0713C135.495 14.9605 138.523 13.5677 141.524 13.5677C145.537 13.5677 147.613 15.0791 147.874 18.1869L147.901 18.5074L144.809 18.505L144.766 18.2601C144.454 16.4708 142.676 16.2034 141.641 16.2034C140.75 16.2034 138.674 16.3627 138.674 17.8417C138.674 18.5139 139.249 19.0078 140.43 19.3507C140.783 19.4499 141.307 19.5845 141.915 19.7414C143.174 20.0672 144.741 20.4738 145.532 20.7465C147.495 21.4376 148.492 22.7365 148.492 24.6085Z" fill="#4B4E52"/>
<path d="M151.015 15.4793C149.826 15.4793 148.841 14.5546 148.841 13.2819C148.841 12.009 149.826 11.0845 151.015 11.0845C152.204 11.0845 153.189 12.009 153.189 13.2819C153.189 14.5546 152.204 15.4793 151.015 15.4793ZM151.015 11.4568C150.03 11.4568 149.238 12.2131 149.238 13.2819C149.238 14.3507 150.03 15.107 151.015 15.107C152 15.107 152.793 14.3507 152.793 13.2819C152.793 12.2131 152 11.4568 151.015 11.4568ZM150.763 13.6902V14.4227H150.115V12.1172H151.196C151.712 12.1172 152.048 12.4173 152.048 12.9217C152.048 13.2819 151.88 13.5221 151.604 13.6182L152.132 14.4227H151.412L150.967 13.6902L150.763 13.6902ZM151.123 12.6575H150.763V13.1739H151.123C151.316 13.1739 151.424 13.0777 151.424 12.9217C151.424 12.7655 151.316 12.6575 151.123 12.6575Z" fill="#4B4E52"/>
<path d="M159.293 18.0176L169.725 8.59741H171.979L160.942 18.5219L172.249 29.2543H169.994L159.293 19.2284V29.2543H157.577V8.59741H159.293V18.0176Z" fill="#4B4E52"/>
<path d="M179.081 28.077C180.764 28.077 182.009 27.673 183.287 26.5964V28.2453C182.177 29.1536 180.697 29.557 178.946 29.557C174.774 29.557 171.981 26.5964 171.981 21.92C171.981 17.3111 174.471 14.0139 178.442 14.0139C182.345 14.0139 184.364 16.9745 184.364 21.3143V21.92H173.63C173.63 25.9572 175.985 28.077 179.081 28.077ZM173.697 20.5409H182.749C182.648 17.9168 181.403 15.4945 178.442 15.4945C175.985 15.4945 174.101 17.3111 173.697 20.5409Z" fill="#4B4E52"/>
<path d="M186.782 14.3165H188.464V16.7054C189.373 15.2922 191.123 14.0139 193.243 14.0139C196.641 14.0139 198.425 16.2011 198.425 19.3634V29.2544H196.776V19.5986C196.776 17.2777 195.598 15.5614 192.94 15.5614C190.887 15.5614 189.204 17.008 188.464 18.7911V29.2544H186.782V14.3165Z" fill="#4B4E52"/>
<path d="M212.024 27.0337C211.183 28.312 209.433 29.5569 207.38 29.5569C202.972 29.5569 200.852 25.9237 200.852 21.7856C200.852 17.6476 202.972 14.0138 207.38 14.0138C209.433 14.0138 211.183 15.2587 212.024 16.537V7.38599H213.673V29.2543H212.024V27.0337ZM212.024 18.5219C211.015 16.6044 209.332 15.5613 207.515 15.5613C204.385 15.5613 202.535 18.1859 202.535 21.7856C202.535 25.3854 204.385 28.0095 207.515 28.0095C209.332 28.0095 211.015 26.9669 212.024 25.0488V18.5219Z" fill="#4B4E52"/>
<path d="M222.841 29.557C218.903 29.557 216.245 26.3947 216.245 21.7858C216.245 17.1763 218.903 14.0139 222.841 14.0139C226.812 14.0139 229.47 17.1763 229.47 21.7858C229.47 26.3947 226.812 29.557 222.841 29.557ZM222.841 15.4945C219.879 15.4945 217.928 18.0177 217.928 21.7858C217.928 25.5538 219.879 28.077 222.841 28.077C225.836 28.077 227.787 25.5538 227.787 21.7858C227.787 18.0177 225.836 15.4945 222.841 15.4945Z" fill="#4B4E52"/>
<path d="M233.984 20.1367V29.2543H232.267V8.59741H239.401C243.439 8.59741 246.064 10.6157 246.064 14.3838C246.064 17.7144 244.012 19.6324 240.781 20.0699L247.04 29.2543H245.055L238.897 20.1367L233.984 20.1367ZM233.984 18.6227H239.334C242.497 18.6227 244.382 17.0418 244.382 14.3838C244.382 11.6589 242.497 10.1449 239.334 10.1449H233.984V18.6227Z" fill="#4B4E52"/>
<path d="M254.855 28.077C256.538 28.077 257.783 27.673 259.061 26.5964V28.2453C257.951 29.1536 256.471 29.557 254.72 29.557C250.548 29.557 247.755 26.5964 247.755 21.92C247.755 17.3111 250.245 14.0139 254.216 14.0139C258.119 14.0139 260.138 16.9745 260.138 21.3143V21.92H249.404C249.404 25.9572 251.759 28.077 254.855 28.077ZM249.471 20.5409H258.523C258.422 17.9168 257.177 15.4945 254.216 15.4945C251.759 15.4945 249.875 17.3111 249.471 20.5409Z" fill="#4B4E52"/>
<path d="M270.942 18.8926C270.942 16.8737 269.528 15.5614 267.24 15.5614C265.524 15.5614 264.11 16.0662 262.899 16.8737V15.2588C263.909 14.5862 265.558 14.0139 267.408 14.0139C270.571 14.0139 272.557 15.8305 272.557 18.7911V29.2544H270.942V27.8413C270.302 28.6153 268.653 29.4902 266.802 29.4902C263.774 29.4902 261.284 27.7404 261.284 24.8807C261.284 22.1223 263.774 20.3052 266.87 20.3052C268.653 20.3052 270.269 21.1466 270.942 21.8866V18.8926ZM270.942 23.9389C270.47 22.6606 268.788 21.7183 266.971 21.7183C264.851 21.7183 262.899 22.7615 262.899 24.8807C262.899 27.0004 264.851 28.077 266.971 28.077C268.788 28.077 270.47 27.1347 270.942 25.8564V23.9389Z" fill="#4B4E52"/>
<path d="M281.893 14.0139C283.34 14.0139 284.821 14.4179 285.864 15.3262V17.042C284.686 15.9654 283.441 15.5279 281.96 15.5279C278.999 15.5279 276.61 17.8494 276.61 21.7858C276.61 25.7221 278.999 28.0436 281.96 28.0436C283.441 28.0436 284.686 27.6061 285.864 26.5295V28.2453C284.821 29.1536 283.34 29.557 281.893 29.557C277.889 29.557 274.927 26.4955 274.927 21.7858C274.927 17.0754 277.889 14.0139 281.893 14.0139Z" fill="#4B4E52"/>
<path d="M292.064 29.2543H290.381V15.7635H287.184V14.3164H290.381V10.4814H292.064V14.3164H295.597V15.7635H292.064V29.2543Z" fill="#4B4E52"/>
<path d="M297.555 12.458H300.092V12.9954H299.145V15.427H298.514V12.9954H297.555L297.555 12.458ZM301.998 14.7607L301.156 13.498V15.427H300.548V12.458H301.121L302.021 13.849L302.933 12.458H303.494V15.427H302.887V13.498L302.056 14.7607H301.998Z" fill="#4B4E52"/>
<path d="M28.9897 24.0762C28.9897 24.4144 28.7507 24.8263 28.4597 24.9933L21.0769 29.2555V12.8153L6.83729 4.59546L14.2201 0.335064C14.5111 0.166307 14.9898 0.166307 15.2814 0.335064L28.9897 8.24857L28.9897 24.0762ZM17.9094 14.6412L8.15777 9.00929C7.86617 8.84169 7.3898 8.84169 7.0976 9.00929L0.507599 12.8141L10.7922 18.7511L10.794 30.6264L17.3793 26.8222C17.6715 26.6534 17.9094 26.2403 17.9094 25.9039L17.9094 14.6412ZM0.507599 24.6888L7.62296 28.7981V20.5771L0.507599 24.6888Z" fill="#5CE400"/>
</g>
<defs>
<clipPath id="clip0_144_221">
<rect width="304" height="36" fill="white"/>
</clipPath>
</defs>
</svg>
