<?xml version="1.0" encoding="UTF-8" standalone="no"?>
<!DOCTYPE svg PUBLIC "-//W3C//DTD SVG 1.1//EN" "http://www.w3.org/Graphics/SVG/1.1/DTD/svg11.dtd">
<svg width="100%" height="100%" viewBox="0 0 128 128" version="1.1" xmlns="http://www.w3.org/2000/svg" xmlns:xlink="http://www.w3.org/1999/xlink" xml:space="preserve" xmlns:serif="http://www.serif.com/" style="fill-rule:evenodd;clip-rule:evenodd;stroke-linecap:round;stroke-linejoin:round;stroke-miterlimit:1.5;">
    <path d="M27.399,97.17L16.44,107.997L10.13,107.997L10.13,99.455L23.397,86.259C18.062,65.768 14.739,28.857 14.739,28.857C14.739,28.857 38.774,23.559 46.984,21.377C53.453,19.659 64,8.199 64,8.199C64,8.199 74.384,19.659 80.853,21.377C82.43,21.797 84.598,22.331 87.071,22.921L98.211,11.84L93.218,7.417L96.771,3.405L102.182,8.199L108.532,3.479L115.23,8.199L110.147,15.071L115.037,19.584L111.484,23.596L106.412,19.103L99.616,25.818C106.913,27.467 113.261,28.857 113.261,28.857C113.261,28.857 108.277,84.214 100.718,96.978C94.609,107.293 64,115.767 64,115.767C64,115.767 33.77,107.398 27.399,97.17Z" style="fill:white;stroke:black;stroke-width:4.17px;"/>
    <g transform="matrix(0.948352,0,0,1.037252,3.305458,-2.308953)">
        <path d="M64,10.13C64,10.13 74.95,21.179 81.771,22.836C90.428,24.939 115.943,30.047 115.943,30.047C115.943,30.047 110.688,83.416 102.718,95.721C96.276,105.665 64,119.978 64,119.978C64,119.978 31.724,105.665 25.282,95.721C17.312,83.416 12.057,30.047 12.057,30.047C12.057,30.047 37.4,24.939 46.058,22.836C52.878,21.179 64,10.13 64,10.13Z" style="fill:rgb(116,24,55);stroke:black;stroke-width:4.19px;"/>
    </g>
    <g transform="matrix(1,0,0,1,6.485259,9.13625)">
        <path d="M51.037,74.672C51.037,75.736 50.706,76.604 50.044,77.277C49.382,77.949 48.52,78.286 47.456,78.286L34.631,78.286C33.567,78.286 32.694,77.949 32.01,77.277C31.327,76.604 30.985,75.736 30.985,74.672L30.985,61.749L35.51,61.749L35.51,74.282L46.512,74.282L46.512,62.14L32.45,45.148C31.473,43.976 30.985,42.685 30.985,41.274L30.985,30.955C30.985,29.892 31.327,29.024 32.01,28.351C32.694,27.678 33.567,27.342 34.631,27.342L47.456,27.342C48.52,27.342 49.382,27.678 50.044,28.351C50.706,29.024 51.037,29.892 51.037,30.955L51.037,42.804L46.512,42.804L46.512,31.346L35.51,31.346L35.51,42.088L49.637,59.08C50.57,60.209 51.037,61.478 51.037,62.889L51.037,74.672Z" style="fill:white;fill-rule:nonzero;"/>
        <path d="M84.045,78.351L83.654,78.351L80.301,75.616C79.911,77.396 78.804,78.286 76.981,78.286L62.658,78.286C61.595,78.286 60.727,77.949 60.054,77.277C59.381,76.604 59.045,75.736 59.045,74.672L59.045,30.955C59.045,29.892 59.381,29.024 60.054,28.351C60.727,27.678 61.595,27.342 62.658,27.342L76.981,27.342C78.044,27.342 78.907,27.678 79.569,28.351C80.231,29.024 80.562,29.892 80.562,30.955L80.562,71.092L84.045,73.891L84.045,78.351ZM76.037,74.282L76.037,72.296L70.633,67.804L70.633,63.344L71.056,63.344L76.037,67.478L76.037,31.346L63.569,31.346L63.569,74.282L76.037,74.282Z" style="fill:white;fill-rule:nonzero;"/>
    </g>
</svg>
