<?xml version="1.0" standalone="no"?>
<svg width="410" height="410" viewBox="0 0 410 410" xmlns="http://www.w3.org/2000/svg"><defs><mask id="mask-background-color-0-0" maskUnits="userSpaceOnUse" x="0" y="0" width="410" height="410"><g fill="#fff"><rect x="0" y="0" width="410" height="410" rx="0"/></g></mask><mask id="mask-dot-color-0-0" maskUnits="userSpaceOnUse" x="0" y="0" width="410" height="410"><g fill="#fff"><circle cx="25" cy="115" r="5" transform="rotate(0,25,115)"/><circle cx="25" cy="135" r="5" transform="rotate(0,25,135)"/><circle cx="25" cy="155" r="5" transform="rotate(0,25,155)"/><path d="M 20 180 v 10 h 5 a 5 5, 0, 0, 0, 0 -10 z" transform="rotate(-90,25,185)"/><path d="M 20 190 v 10 h 5 a 5 5, 0, 0, 0, 0 -10 z" transform="rotate(90,25,195)"/><circle cx="25" cy="245" r="5" transform="rotate(0,25,245)"/><path d="M 20 260 v 10 h 5 a 5 5, 0, 0, 0, 0 -10 z" transform="rotate(-90,25,265)"/><rect x="20" y="270" width="10" height="10" transform="rotate(0,25,275)"/><rect x="20" y="280" width="10" height="10" transform="rotate(0,25,285)"/><rect x="20" y="290" width="10" height="10" transform="rotate(0,25,295)"/><path d="M 20 300 v 10 h 5 a 5 5, 0, 0, 0, 0 -10 z" transform="rotate(90,25,305)"/><circle cx="35" cy="105" r="5" transform="rotate(0,35,105)"/><circle cx="35" cy="125" r="5" transform="rotate(0,35,125)"/><circle cx="35" cy="145" r="5" transform="rotate(0,35,145)"/><path d="M 30 220 v 10 h 5 a 5 5, 0, 0, 0, 0 -10 z" transform="rotate(-90,35,225)"/><rect x="30" y="230" width="10" height="10" transform="rotate(0,35,235)"/><path d="M 30 240 v 10 h 5 a 5 5, 0, 0, 0, 0 -10 z" transform="rotate(90,35,245)"/><circle cx="45" cy="115" r="5" transform="rotate(0,45,115)"/><path d="M 40 130 v 10 h 5 a 5 5, 0, 0, 0, 0 -10 z" transform="rotate(-90,45,135)"/><rect x="40" y="140" width="10" height="10" transform="rotate(0,45,145)"/><rect x="40" y="150" width="10" height="10" transform="rotate(0,45,155)"/><path d="M 40 160 v 10 h 5 a 5 5, 0, 0, 0, 0 -10 z" transform="rotate(90,45,165)"/><path d="M 40 190 v 10 h 5 a 5 5, 0, 0, 0, 0 -10 z" transform="rotate(-90,45,195)"/><path d="M 40 200 v 10 h 5 a 5 5, 0, 0, 0, 0 -10 z" transform="rotate(90,45,205)"/><circle cx="45" cy="245" r="5" transform="rotate(0,45,245)"/><circle cx="45" cy="275" r="5" transform="rotate(0,45,275)"/><path d="M 40 290 v 10 h 5 a 5 5, 0, 0, 0, 0 -10 z" transform="rotate(-90,45,295)"/><path d="M 40 300 v 10 h 5 a 5 5, 0, 0, 0, 0 -10 z" transform="rotate(90,45,305)"/><circle cx="55" cy="115" r="5" transform="rotate(0,55,115)"/><circle cx="55" cy="135" r="5" transform="rotate(0,55,135)"/><circle cx="55" cy="155" r="5" transform="rotate(0,55,155)"/><circle cx="55" cy="185" r="5" transform="rotate(0,55,185)"/><path d="M 50 210 v 10 h 5 a 5 5, 0, 0, 0, 0 -10 z" transform="rotate(-90,55,215)"/><rect x="50" y="220" width="10" height="10" transform="rotate(0,55,225)"/><rect x="50" y="230" width="10" height="10" transform="rotate(0,55,235)"/><path d="M 50 240 v 10 h 5 a 5 5, 0, 0, 0, 0 -10 z" transform="rotate(90,55,245)"/><path d="M 50 270 v 10 h 5 a 5 5, 0, 0, 0, 0 -10 z" transform="rotate(-90,55,275)"/><path d="M 50 280 v 10 h 5 a 5 5, 0, 0, 0, 0 -10 z" transform="rotate(90,55,285)"/><circle cx="55" cy="305" r="5" transform="rotate(0,55,305)"/><path d="M 60 110 v 10 h 5 a 5 5, 0, 0, 0, 0 -10 z" transform="rotate(-90,65,115)"/><rect x="60" y="120" width="10" height="10" transform="rotate(0,65,125)"/><rect x="60" y="130" width="10" height="10" transform="rotate(0,65,135)"/><rect x="60" y="140" width="10" height="10" transform="rotate(0,65,145)"/><path d="M 60 150 v 10 h 5 a 5 5, 0, 0, 0, 0 -10 z" transform="rotate(90,65,155)"/><circle cx="65" cy="175" r="5" transform="rotate(0,65,175)"/><circle cx="65" cy="195" r="5" transform="rotate(0,65,195)"/><path d="M 60 220 v 10 h 5 a 5 5, 0, 0, 0, 0 -10 z" transform="rotate(-90,65,225)"/><rect x="60" y="230" width="10" height="10" transform="rotate(0,65,235)"/><path d="M 60 240 v 10 h 5 a 5 5, 0, 0, 0, 0 -10 z" transform="rotate(90,65,245)"/><path d="M 60 260 v 10 h 5 a 5 5, 0, 0, 0, 0 -10 z" transform="rotate(-90,65,265)"/><rect x="60" y="270" width="10" height="10" transform="rotate(0,65,275)"/><rect x="60" y="280" width="10" height="10" transform="rotate(0,65,285)"/><path d="M 60 290 v 10 h 5 a 5 5, 0, 0, 0, 0 -10 z" transform="rotate(90,65,295)"/><path d="M 70 110 v 10 h 5 a 5 5, 0, 0, 0, 0 -10 z" transform="rotate(-90,75,115)"/><rect x="70" y="120" width="10" height="10" transform="rotate(0,75,125)"/><rect x="70" y="130" width="10" height="10" transform="rotate(0,75,135)"/><path d="M 70 140 v 10 h 5 a 5 5, 0, 0, 0, 0 -10 z" transform="rotate(90,75,145)"/><path d="M 70 160 v 10 h 5 a 5 5, 0, 0, 0, 0 -10 z" transform="rotate(-90,75,165)"/><path d="M 70 170 v 10 h 5 a 5 5, 0, 0, 0, 0 -10 z" transform="rotate(90,75,175)"/><circle cx="75" cy="195" r="5" transform="rotate(0,75,195)"/><circle cx="75" cy="225" r="5" transform="rotate(0,75,225)"/><path d="M 70 260 v 10 h 5 a 5 5, 0, 0, 0, 0 -10 z" transform="rotate(-90,75,265)"/><path d="M 70 270 v 10 h 5 a 5 5, 0, 0, 0, 0 -10 z" transform="rotate(90,75,275)"/><circle cx="75" cy="295" r="5" transform="rotate(0,75,295)"/><circle cx="85" cy="105" r="5" transform="rotate(0,85,105)"/><circle cx="85" cy="125" r="5" transform="rotate(0,85,125)"/><circle cx="85" cy="145" r="5" transform="rotate(0,85,145)"/><circle cx="85" cy="165" r="5" transform="rotate(0,85,165)"/><circle cx="85" cy="185" r="5" transform="rotate(0,85,185)"/><circle cx="85" cy="205" r="5" transform="rotate(0,85,205)"/><circle cx="85" cy="225" r="5" transform="rotate(0,85,225)"/><circle cx="85" cy="245" r="5" transform="rotate(0,85,245)"/><circle cx="85" cy="265" r="5" transform="rotate(0,85,265)"/><circle cx="85" cy="285" r="5" transform="rotate(0,85,285)"/><circle cx="85" cy="305" r="5" transform="rotate(0,85,305)"/><circle cx="95" cy="105" r="5" transform="rotate(0,95,105)"/><path d="M 90 130 v 10 h 5 a 5 5, 0, 0, 0, 0 -10 z" transform="rotate(-90,95,135)"/><path d="M 90 140 v 10 h 5 a 5 5, 0, 0, 0, 0 -10 z" transform="rotate(90,95,145)"/><circle cx="95" cy="165" r="5" transform="rotate(0,95,165)"/><path d="M 90 180 v 10 h 5 a 5 5, 0, 0, 0, 0 -10 z" transform="rotate(-90,95,185)"/><rect x="90" y="190" width="10" height="10" transform="rotate(0,95,195)"/><rect x="90" y="200" width="10" height="10" transform="rotate(0,95,205)"/><rect x="90" y="210" width="10" height="10" transform="rotate(0,95,215)"/><rect x="90" y="220" width="10" height="10" transform="rotate(0,95,225)"/><path d="M 90 230 v 10 h 5 a 5 5, 0, 0, 0, 0 -10 z" transform="rotate(90,95,235)"/><circle cx="95" cy="295" r="5" transform="rotate(0,95,295)"/><path d="M 100 20 v 10 h 5 a 5 5, 0, 0, 0, 0 -10 z" transform="rotate(-90,105,25)"/><path d="M 100 30 v 10 h 5 a 5 5, 0, 0, 0, 0 -10 z" transform="rotate(90,105,35)"/><circle cx="105" cy="85" r="5" transform="rotate(0,105,85)"/><circle cx="105" cy="105" r="5" transform="rotate(0,105,105)"/><circle cx="105" cy="135" r="5" transform="rotate(0,105,135)"/><circle cx="105" cy="165" r="5" transform="rotate(0,105,165)"/><circle cx="105" cy="185" r="5" transform="rotate(0,105,185)"/><path d="M 100 230 v 10 h 5 a 5 5, 0, 0, 0, 0 -10 z" transform="rotate(-90,105,235)"/><rect x="100" y="240" width="10" height="10" transform="rotate(0,105,245)"/><rect x="100" y="250" width="10" height="10" transform="rotate(0,105,255)"/><rect x="100" y="260" width="10" height="10" transform="rotate(0,105,265)"/><rect x="100" y="270" width="10" height="10" transform="rotate(0,105,275)"/><path d="M 100 280 v 10 h 5 a 5 5, 0, 0, 0, 0 -10 z" transform="rotate(90,105,285)"/><path d="M 100 310 v 10 h 5 a 5 5, 0, 0, 0, 0 -10 z" transform="rotate(-90,105,315)"/><path d="M 100 320 v 10 h 5 a 5 5, 0, 0, 0, 0 -10 z" transform="rotate(90,105,325)"/><circle cx="105" cy="375" r="5" transform="rotate(0,105,375)"/><circle cx="115" cy="25" r="5" transform="rotate(0,115,25)"/><circle cx="115" cy="65" r="5" transform="rotate(0,115,65)"/><circle cx="115" cy="95" r="5" transform="rotate(0,115,95)"/><path d="M 110 150 v 10 h 5 a 5 5, 0, 0, 0, 0 -10 z" transform="rotate(-90,115,155)"/><path d="M 110 160 v 10 h 5 a 5 5, 0, 0, 0, 0 -10 z" transform="rotate(90,115,165)"/><circle cx="115" cy="185" r="5" transform="rotate(0,115,185)"/><path d="M 110 210 v 10 h 5 a 5 5, 0, 0, 0, 0 -10 z" transform="rotate(-90,115,215)"/><path d="M 110 220 v 10 h 5 a 5 5, 0, 0, 0, 0 -10 z" transform="rotate(90,115,225)"/><circle cx="115" cy="265" r="5" transform="rotate(0,115,265)"/><circle cx="115" cy="285" r="5" transform="rotate(0,115,285)"/><path d="M 110 300 v 10 h 5 a 5 5, 0, 0, 0, 0 -10 z" transform="rotate(-90,115,305)"/><path d="M 110 310 v 10 h 5 a 5 5, 0, 0, 0, 0 -10 z" transform="rotate(90,115,315)"/><path d="M 110 330 v 10 h 5 a 5 5, 0, 0, 0, 0 -10 z" transform="rotate(-90,115,335)"/><path d="M 110 340 v 10 h 5 a 5 5, 0, 0, 0, 0 -10 z" transform="rotate(90,115,345)"/><circle cx="115" cy="375" r="5" transform="rotate(0,115,375)"/><path d="M 120 20 v 10 h 5 a 5 5, 0, 0, 0, 0 -10 z" transform="rotate(-90,125,25)"/><rect x="120" y="30" width="10" height="10" transform="rotate(0,125,35)"/><rect x="120" y="40" width="10" height="10" transform="rotate(0,125,45)"/><rect x="120" y="50" width="10" height="10" transform="rotate(0,125,55)"/><rect x="120" y="60" width="10" height="10" transform="rotate(0,125,65)"/><rect x="120" y="70" width="10" height="10" transform="rotate(0,125,75)"/><rect x="120" y="80" width="10" height="10" transform="rotate(0,125,85)"/><path d="M 120 90 v 10 h 5 a 5 5, 0, 0, 0, 0 -10 z" transform="rotate(90,125,95)"/><path d="M 120 110 v 10 h 5 a 5 5, 0, 0, 0, 0 -10 z" transform="rotate(-90,125,115)"/><path d="M 120 120 v 10 h 5 a 5 5, 0, 0, 0, 0 -10 z" transform="rotate(90,125,125)"/><path d="M 120 140 v 10 h 5 a 5 5, 0, 0, 0, 0 -10 z" transform="rotate(-90,125,145)"/><path d="M 120 150 v 10 h 5 a 5 5, 0, 0, 0, 0 -10 z" transform="rotate(90,125,155)"/><path d="M 120 190 v 10 h 5 a 5 5, 0, 0, 0, 0 -10 z" transform="rotate(-90,125,195)"/><path d="M 120 200 v 10 h 5 a 5 5, 0, 0, 0, 0 -10 z" transform="rotate(90,125,205)"/><path d="M 120 240 v 10 h 5 a 5 5, 0, 0, 0, 0 -10 z" transform="rotate(-90,125,245)"/><rect x="120" y="250" width="10" height="10" transform="rotate(0,125,255)"/><path d="M 120 260 v 10 h 5 a 5 5, 0, 0, 0, 0 -10 z" transform="rotate(90,125,265)"/><path d="M 120 280 v 10 h 5 a 5 5, 0, 0, 0, 0 -10 z" transform="rotate(-90,125,285)"/><rect x="120" y="290" width="10" height="10" transform="rotate(0,125,295)"/><rect x="120" y="300" width="10" height="10" transform="rotate(0,125,305)"/><path d="M 120 310 v 10 h 5 a 5 5, 0, 0, 0, 0 -10 z" transform="rotate(90,125,315)"/><path d="M 120 340 v 10 h 5 a 5 5, 0, 0, 0, 0 -10 z" transform="rotate(-90,125,345)"/><path d="M 120 350 v 10 h 5 a 5 5, 0, 0, 0, 0 -10 z" transform="rotate(90,125,355)"/><circle cx="125" cy="375" r="5" transform="rotate(0,125,375)"/><path d="M 130 20 v 10 h 5 a 5 5, 0, 0, 0, 0 -10 z" transform="rotate(-90,135,25)"/><rect x="130" y="30" width="10" height="10" transform="rotate(0,135,35)"/><path d="M 130 40 v 10 h 5 a 5 5, 0, 0, 0, 0 -10 z" transform="rotate(90,135,45)"/><path d="M 130 60 v 10 h 5 a 5 5, 0, 0, 0, 0 -10 z" transform="rotate(-90,135,65)"/><path d="M 130 70 v 10 h 5 a 5 5, 0, 0, 0, 0 -10 z" transform="rotate(90,135,75)"/><path d="M 130 90 v 10 h 5 a 5 5, 0, 0, 0, 0 -10 z" transform="rotate(-90,135,95)"/><rect x="130" y="100" width="10" height="10" transform="rotate(0,135,105)"/><rect x="130" y="110" width="10" height="10" transform="rotate(0,135,115)"/><path d="M 130 120 v 10 h 5 a 5 5, 0, 0, 0, 0 -10 z" transform="rotate(90,135,125)"/><circle cx="135" cy="165" r="5" transform="rotate(0,135,165)"/><circle cx="135" cy="185" r="5" transform="rotate(0,135,185)"/><path d="M 130 200 v 10 h 5 a 5 5, 0, 0, 0, 0 -10 z" transform="rotate(-90,135,205)"/><rect x="130" y="210" width="10" height="10" transform="rotate(0,135,215)"/><rect x="130" y="220" width="10" height="10" transform="rotate(0,135,225)"/><rect x="130" y="230" width="10" height="10" transform="rotate(0,135,235)"/><path d="M 130 240 v 10 h 5 a 5 5, 0, 0, 0, 0 -10 z" transform="rotate(90,135,245)"/><circle cx="135" cy="275" r="5" transform="rotate(0,135,275)"/><circle cx="135" cy="315" r="5" transform="rotate(0,135,315)"/><circle cx="135" cy="365" r="5" transform="rotate(0,135,365)"/><circle cx="145" cy="25" r="5" transform="rotate(0,145,25)"/><circle cx="145" cy="45" r="5" transform="rotate(0,145,45)"/><path d="M 140 70 v 10 h 5 a 5 5, 0, 0, 0, 0 -10 z" transform="rotate(-90,145,75)"/><rect x="140" y="80" width="10" height="10" transform="rotate(0,145,85)"/><rect x="140" y="90" width="10" height="10" transform="rotate(0,145,95)"/><path d="M 140 100 v 10 h 5 a 5 5, 0, 0, 0, 0 -10 z" transform="rotate(90,145,105)"/><circle cx="145" cy="125" r="5" transform="rotate(0,145,125)"/><circle cx="145" cy="145" r="5" transform="rotate(0,145,145)"/><circle cx="145" cy="165" r="5" transform="rotate(0,145,165)"/><path d="M 140 200 v 10 h 5 a 5 5, 0, 0, 0, 0 -10 z" transform="rotate(-90,145,205)"/><path d="M 140 210 v 10 h 5 a 5 5, 0, 0, 0, 0 -10 z" transform="rotate(90,145,215)"/><circle cx="145" cy="245" r="5" transform="rotate(0,145,245)"/><circle cx="145" cy="265" r="5" transform="rotate(0,145,265)"/><circle cx="145" cy="285" r="5" transform="rotate(0,145,285)"/><path d="M 140 300 v 10 h 5 a 5 5, 0, 0, 0, 0 -10 z" transform="rotate(-90,145,305)"/><path d="M 140 310 v 10 h 5 a 5 5, 0, 0, 0, 0 -10 z" transform="rotate(90,145,315)"/><path d="M 140 330 v 10 h 5 a 5 5, 0, 0, 0, 0 -10 z" transform="rotate(-90,145,335)"/><rect x="140" y="340" width="10" height="10" transform="rotate(0,145,345)"/><path d="M 140 350 v 10 h 5 a 5 5, 0, 0, 0, 0 -10 z" transform="rotate(90,145,355)"/><circle cx="145" cy="385" r="5" transform="rotate(0,145,385)"/><path d="M 150 30 v 10 h 5 a 5 5, 0, 0, 0, 0 -10 z" transform="rotate(-90,155,35)"/><path d="M 150 40 v 10 h 5 a 5 5, 0, 0, 0, 0 -10 z" transform="rotate(90,155,45)"/><circle cx="155" cy="95" r="5" transform="rotate(0,155,95)"/><path d="M 150 120 v 10 h 5 a 5 5, 0, 0, 0, 0 -10 z" transform="rotate(-90,155,125)"/><rect x="150" y="130" width="10" height="10" transform="rotate(0,155,135)"/><rect x="150" y="140" width="10" height="10" transform="rotate(0,155,145)"/><path d="M 150 150 v 10 h 5 a 5 5, 0, 0, 0, 0 -10 z" transform="rotate(90,155,155)"/><circle cx="155" cy="175" r="5" transform="rotate(0,155,175)"/><path d="M 150 220 v 10 h 5 a 5 5, 0, 0, 0, 0 -10 z" transform="rotate(-90,155,225)"/><rect x="150" y="230" width="10" height="10" transform="rotate(0,155,235)"/><rect x="150" y="240" width="10" height="10" transform="rotate(0,155,245)"/><path d="M 150 250 v 10 h 5 a 5 5, 0, 0, 0, 0 -10 z" transform="rotate(90,155,255)"/><path d="M 150 270 v 10 h 5 a 5 5, 0, 0, 0, 0 -10 z" transform="rotate(-90,155,275)"/><path d="M 150 280 v 10 h 5 a 5 5, 0, 0, 0, 0 -10 z" transform="rotate(90,155,285)"/><circle cx="155" cy="315" r="5" transform="rotate(0,155,315)"/><path d="M 150 330 v 10 h 5 a 5 5, 0, 0, 0, 0 -10 z" transform="rotate(-90,155,335)"/><path d="M 150 340 v 10 h 5 a 5 5, 0, 0, 0, 0 -10 z" transform="rotate(90,155,345)"/><circle cx="155" cy="365" r="5" transform="rotate(0,155,365)"/><path d="M 160 70 v 10 h 5 a 5 5, 0, 0, 0, 0 -10 z" transform="rotate(-90,165,75)"/><path d="M 160 80 v 10 h 5 a 5 5, 0, 0, 0, 0 -10 z" transform="rotate(90,165,85)"/><path d="M 160 120 v 10 h 5 a 5 5, 0, 0, 0, 0 -10 z" transform="rotate(-90,165,125)"/><path d="M 160 130 v 10 h 5 a 5 5, 0, 0, 0, 0 -10 z" transform="rotate(90,165,135)"/><circle cx="165" cy="175" r="5" transform="rotate(0,165,175)"/><circle cx="165" cy="195" r="5" transform="rotate(0,165,195)"/><circle cx="165" cy="215" r="5" transform="rotate(0,165,215)"/><path d="M 160 230 v 10 h 5 a 5 5, 0, 0, 0, 0 -10 z" transform="rotate(-90,165,235)"/><rect x="160" y="240" width="10" height="10" transform="rotate(0,165,245)"/><path d="M 160 250 v 10 h 5 a 5 5, 0, 0, 0, 0 -10 z" transform="rotate(90,165,255)"/><circle cx="165" cy="295" r="5" transform="rotate(0,165,295)"/><path d="M 160 320 v 10 h 5 a 5 5, 0, 0, 0, 0 -10 z" transform="rotate(-90,165,325)"/><path d="M 160 330 v 10 h 5 a 5 5, 0, 0, 0, 0 -10 z" transform="rotate(90,165,335)"/><path d="M 160 350 v 10 h 5 a 5 5, 0, 0, 0, 0 -10 z" transform="rotate(-90,165,355)"/><rect x="160" y="360" width="10" height="10" transform="rotate(0,165,365)"/><rect x="160" y="370" width="10" height="10" transform="rotate(0,165,375)"/><path d="M 160 380 v 10 h 5 a 5 5, 0, 0, 0, 0 -10 z" transform="rotate(90,165,385)"/><path d="M 170 30 v 10 h 5 a 5 5, 0, 0, 0, 0 -10 z" transform="rotate(-90,175,35)"/><rect x="170" y="40" width="10" height="10" transform="rotate(0,175,45)"/><path d="M 170 50 v 10 h 5 a 5 5, 0, 0, 0, 0 -10 z" transform="rotate(90,175,55)"/><path d="M 170 90 v 10 h 5 a 5 5, 0, 0, 0, 0 -10 z" transform="rotate(-90,175,95)"/><path d="M 170 100 v 10 h 5 a 5 5, 0, 0, 0, 0 -10 z" transform="rotate(90,175,105)"/><path d="M 170 150 v 10 h 5 a 5 5, 0, 0, 0, 0 -10 z" transform="rotate(-90,175,155)"/><path d="M 170 160 v 10 h 5 a 5 5, 0, 0, 0, 0 -10 z" transform="rotate(90,175,165)"/><path d="M 170 230 v 10 h 5 a 5 5, 0, 0, 0, 0 -10 z" transform="rotate(-90,175,235)"/><path d="M 170 240 v 10 h 5 a 5 5, 0, 0, 0, 0 -10 z" transform="rotate(90,175,245)"/><circle cx="175" cy="265" r="5" transform="rotate(0,175,265)"/><path d="M 170 290 v 10 h 5 a 5 5, 0, 0, 0, 0 -10 z" transform="rotate(-90,175,295)"/><path d="M 170 300 v 10 h 5 a 5 5, 0, 0, 0, 0 -10 z" transform="rotate(90,175,305)"/><circle cx="175" cy="325" r="5" transform="rotate(0,175,325)"/><path d="M 180 20 v 10 h 5 a 5 5, 0, 0, 0, 0 -10 z" transform="rotate(-90,185,25)"/><rect x="180" y="30" width="10" height="10" transform="rotate(0,185,35)"/><path d="M 180 40 v 10 h 5 a 5 5, 0, 0, 0, 0 -10 z" transform="rotate(90,185,45)"/><circle cx="185" cy="65" r="5" transform="rotate(0,185,65)"/><circle cx="185" cy="85" r="5" transform="rotate(0,185,85)"/><circle cx="185" cy="105" r="5" transform="rotate(0,185,105)"/><circle cx="185" cy="125" r="5" transform="rotate(0,185,125)"/><path d="M 180 210 v 10 h 5 a 5 5, 0, 0, 0, 0 -10 z" transform="rotate(-90,185,215)"/><path d="M 180 220 v 10 h 5 a 5 5, 0, 0, 0, 0 -10 z" transform="rotate(90,185,225)"/><circle cx="185" cy="245" r="5" transform="rotate(0,185,245)"/><path d="M 180 290 v 10 h 5 a 5 5, 0, 0, 0, 0 -10 z" transform="rotate(-90,185,295)"/><path d="M 180 300 v 10 h 5 a 5 5, 0, 0, 0, 0 -10 z" transform="rotate(90,185,305)"/><path d="M 180 320 v 10 h 5 a 5 5, 0, 0, 0, 0 -10 z" transform="rotate(-90,185,325)"/><path d="M 180 330 v 10 h 5 a 5 5, 0, 0, 0, 0 -10 z" transform="rotate(90,185,335)"/><circle cx="185" cy="375" r="5" transform="rotate(0,185,375)"/><path d="M 190 30 v 10 h 5 a 5 5, 0, 0, 0, 0 -10 z" transform="rotate(-90,195,35)"/><rect x="190" y="40" width="10" height="10" transform="rotate(0,195,45)"/><path d="M 190 50 v 10 h 5 a 5 5, 0, 0, 0, 0 -10 z" transform="rotate(90,195,55)"/><path d="M 190 140 v 10 h 5 a 5 5, 0, 0, 0, 0 -10 z" transform="rotate(-90,195,145)"/><rect x="190" y="150" width="10" height="10" transform="rotate(0,195,155)"/><path d="M 190 160 v 10 h 5 a 5 5, 0, 0, 0, 0 -10 z" transform="rotate(90,195,165)"/><path d="M 190 200 v 10 h 5 a 5 5, 0, 0, 0, 0 -10 z" transform="rotate(-90,195,205)"/><path d="M 190 210 v 10 h 5 a 5 5, 0, 0, 0, 0 -10 z" transform="rotate(90,195,215)"/><path d="M 190 260 v 10 h 5 a 5 5, 0, 0, 0, 0 -10 z" transform="rotate(-90,195,265)"/><rect x="190" y="270" width="10" height="10" transform="rotate(0,195,275)"/><path d="M 190 280 v 10 h 5 a 5 5, 0, 0, 0, 0 -10 z" transform="rotate(90,195,285)"/><path d="M 190 300 v 10 h 5 a 5 5, 0, 0, 0, 0 -10 z" transform="rotate(-90,195,305)"/><rect x="190" y="310" width="10" height="10" transform="rotate(0,195,315)"/><rect x="190" y="320" width="10" height="10" transform="rotate(0,195,325)"/><rect x="190" y="330" width="10" height="10" transform="rotate(0,195,335)"/><rect x="190" y="340" width="10" height="10" transform="rotate(0,195,345)"/><rect x="190" y="350" width="10" height="10" transform="rotate(0,195,355)"/><path d="M 190 360 v 10 h 5 a 5 5, 0, 0, 0, 0 -10 z" transform="rotate(90,195,365)"/><circle cx="205" cy="25" r="5" transform="rotate(0,205,25)"/><circle cx="205" cy="65" r="5" transform="rotate(0,205,65)"/><path d="M 200 80 v 10 h 5 a 5 5, 0, 0, 0, 0 -10 z" transform="rotate(-90,205,85)"/><rect x="200" y="90" width="10" height="10" transform="rotate(0,205,95)"/><rect x="200" y="100" width="10" height="10" transform="rotate(0,205,105)"/><rect x="200" y="110" width="10" height="10" transform="rotate(0,205,115)"/><path d="M 200 120 v 10 h 5 a 5 5, 0, 0, 0, 0 -10 z" transform="rotate(90,205,125)"/><circle cx="205" cy="145" r="5" transform="rotate(0,205,145)"/><path d="M 200 160 v 10 h 5 a 5 5, 0, 0, 0, 0 -10 z" transform="rotate(-90,205,165)"/><path d="M 200 170 v 10 h 5 a 5 5, 0, 0, 0, 0 -10 z" transform="rotate(90,205,175)"/><circle cx="205" cy="195" r="5" transform="rotate(0,205,195)"/><path d="M 200 240 v 10 h 5 a 5 5, 0, 0, 0, 0 -10 z" transform="rotate(-90,205,245)"/><path d="M 200 250 v 10 h 5 a 5 5, 0, 0, 0, 0 -10 z" transform="rotate(90,205,255)"/><path d="M 200 270 v 10 h 5 a 5 5, 0, 0, 0, 0 -10 z" transform="rotate(-90,205,275)"/><rect x="200" y="280" width="10" height="10" transform="rotate(0,205,285)"/><rect x="200" y="290" width="10" height="10" transform="rotate(0,205,295)"/><path d="M 200 300 v 10 h 5 a 5 5, 0, 0, 0, 0 -10 z" transform="rotate(90,205,305)"/><path d="M 200 340 v 10 h 5 a 5 5, 0, 0, 0, 0 -10 z" transform="rotate(-90,205,345)"/><path d="M 200 350 v 10 h 5 a 5 5, 0, 0, 0, 0 -10 z" transform="rotate(90,205,355)"/><circle cx="205" cy="385" r="5" transform="rotate(0,205,385)"/><circle cx="215" cy="25" r="5" transform="rotate(0,215,25)"/><path d="M 210 50 v 10 h 5 a 5 5, 0, 0, 0, 0 -10 z" transform="rotate(-90,215,55)"/><path d="M 210 60 v 10 h 5 a 5 5, 0, 0, 0, 0 -10 z" transform="rotate(90,215,65)"/><circle cx="215" cy="95" r="5" transform="rotate(0,215,95)"/><path d="M 210 110 v 10 h 5 a 5 5, 0, 0, 0, 0 -10 z" transform="rotate(-90,215,115)"/><rect x="210" y="120" width="10" height="10" transform="rotate(0,215,125)"/><rect x="210" y="130" width="10" height="10" transform="rotate(0,215,135)"/><rect x="210" y="140" width="10" height="10" transform="rotate(0,215,145)"/><rect x="210" y="150" width="10" height="10" transform="rotate(0,215,155)"/><rect x="210" y="160" width="10" height="10" transform="rotate(0,215,165)"/><rect x="210" y="170" width="10" height="10" transform="rotate(0,215,175)"/><rect x="210" y="180" width="10" height="10" transform="rotate(0,215,185)"/><path d="M 210 190 v 10 h 5 a 5 5, 0, 0, 0, 0 -10 z" transform="rotate(90,215,195)"/><circle cx="215" cy="215" r="5" transform="rotate(0,215,215)"/><path d="M 210 260 v 10 h 5 a 5 5, 0, 0, 0, 0 -10 z" transform="rotate(-90,215,265)"/><rect x="210" y="270" width="10" height="10" transform="rotate(0,215,275)"/><path d="M 210 280 v 10 h 5 a 5 5, 0, 0, 0, 0 -10 z" transform="rotate(90,215,285)"/><path d="M 210 300 v 10 h 5 a 5 5, 0, 0, 0, 0 -10 z" transform="rotate(-90,215,305)"/><path d="M 210 310 v 10 h 5 a 5 5, 0, 0, 0, 0 -10 z" transform="rotate(90,215,315)"/><circle cx="225" cy="35" r="5" transform="rotate(0,225,35)"/><circle cx="225" cy="55" r="5" transform="rotate(0,225,55)"/><path d="M 220 70 v 10 h 5 a 5 5, 0, 0, 0, 0 -10 z" transform="rotate(-90,225,75)"/><path d="M 220 80 v 10 h 5 a 5 5, 0, 0, 0, 0 -10 z" transform="rotate(90,225,85)"/><path d="M 220 100 v 10 h 5 a 5 5, 0, 0, 0, 0 -10 z" transform="rotate(-90,225,105)"/><path d="M 220 110 v 10 h 5 a 5 5, 0, 0, 0, 0 -10 z" transform="rotate(90,225,115)"/><circle cx="225" cy="155" r="5" transform="rotate(0,225,155)"/><circle cx="225" cy="195" r="5" transform="rotate(0,225,195)"/><circle cx="225" cy="225" r="5" transform="rotate(0,225,225)"/><circle cx="225" cy="245" r="5" transform="rotate(0,225,245)"/><path d="M 220 260 v 10 h 5 a 5 5, 0, 0, 0, 0 -10 z" transform="rotate(-90,225,265)"/><rect x="220" y="270" width="10" height="10" transform="rotate(0,225,275)"/><path d="M 220 280 v 10 h 5 a 5 5, 0, 0, 0, 0 -10 z" transform="rotate(90,225,285)"/><path d="M 220 300 v 10 h 5 a 5 5, 0, 0, 0, 0 -10 z" transform="rotate(-90,225,305)"/><rect x="220" y="310" width="10" height="10" transform="rotate(0,225,315)"/><path d="M 220 320 v 10 h 5 a 5 5, 0, 0, 0, 0 -10 z" transform="rotate(90,225,325)"/><path d="M 220 350 v 10 h 5 a 5 5, 0, 0, 0, 0 -10 z" transform="rotate(-90,225,355)"/><rect x="220" y="360" width="10" height="10" transform="rotate(0,225,365)"/><rect x="220" y="370" width="10" height="10" transform="rotate(0,225,375)"/><path d="M 220 380 v 10 h 5 a 5 5, 0, 0, 0, 0 -10 z" transform="rotate(90,225,385)"/><circle cx="235" cy="25" r="5" transform="rotate(0,235,25)"/><path d="M 230 40 v 10 h 5 a 5 5, 0, 0, 0, 0 -10 z" transform="rotate(-90,235,45)"/><rect x="230" y="50" width="10" height="10" transform="rotate(0,235,55)"/><path d="M 230 60 v 10 h 5 a 5 5, 0, 0, 0, 0 -10 z" transform="rotate(90,235,65)"/><circle cx="235" cy="115" r="5" transform="rotate(0,235,115)"/><circle cx="235" cy="165" r="5" transform="rotate(0,235,165)"/><circle cx="235" cy="205" r="5" transform="rotate(0,235,205)"/><path d="M 230 230 v 10 h 5 a 5 5, 0, 0, 0, 0 -10 z" transform="rotate(-90,235,235)"/><path d="M 230 240 v 10 h 5 a 5 5, 0, 0, 0, 0 -10 z" transform="rotate(90,235,245)"/><circle cx="235" cy="265" r="5" transform="rotate(0,235,265)"/><circle cx="235" cy="285" r="5" transform="rotate(0,235,285)"/><path d="M 240 20 v 10 h 5 a 5 5, 0, 0, 0, 0 -10 z" transform="rotate(-90,245,25)"/><path d="M 240 30 v 10 h 5 a 5 5, 0, 0, 0, 0 -10 z" transform="rotate(90,245,35)"/><path d="M 240 50 v 10 h 5 a 5 5, 0, 0, 0, 0 -10 z" transform="rotate(-90,245,55)"/><path d="M 240 60 v 10 h 5 a 5 5, 0, 0, 0, 0 -10 z" transform="rotate(90,245,65)"/><path d="M 240 80 v 10 h 5 a 5 5, 0, 0, 0, 0 -10 z" transform="rotate(-90,245,85)"/><rect x="240" y="90" width="10" height="10" transform="rotate(0,245,95)"/><path d="M 240 100 v 10 h 5 a 5 5, 0, 0, 0, 0 -10 z" transform="rotate(90,245,105)"/><path d="M 240 120 v 10 h 5 a 5 5, 0, 0, 0, 0 -10 z" transform="rotate(-90,245,125)"/><path d="M 240 130 v 10 h 5 a 5 5, 0, 0, 0, 0 -10 z" transform="rotate(90,245,135)"/><path d="M 240 150 v 10 h 5 a 5 5, 0, 0, 0, 0 -10 z" transform="rotate(-90,245,155)"/><path d="M 240 160 v 10 h 5 a 5 5, 0, 0, 0, 0 -10 z" transform="rotate(90,245,165)"/><path d="M 240 200 v 10 h 5 a 5 5, 0, 0, 0, 0 -10 z" transform="rotate(-90,245,205)"/><rect x="240" y="210" width="10" height="10" transform="rotate(0,245,215)"/><path d="M 240 220 v 10 h 5 a 5 5, 0, 0, 0, 0 -10 z" transform="rotate(90,245,225)"/><circle cx="245" cy="255" r="5" transform="rotate(0,245,255)"/><circle cx="245" cy="285" r="5" transform="rotate(0,245,285)"/><path d="M 240 300 v 10 h 5 a 5 5, 0, 0, 0, 0 -10 z" transform="rotate(-90,245,305)"/><rect x="240" y="310" width="10" height="10" transform="rotate(0,245,315)"/><path d="M 240 320 v 10 h 5 a 5 5, 0, 0, 0, 0 -10 z" transform="rotate(90,245,325)"/><circle cx="245" cy="345" r="5" transform="rotate(0,245,345)"/><circle cx="245" cy="385" r="5" transform="rotate(0,245,385)"/><circle cx="255" cy="65" r="5" transform="rotate(0,255,65)"/><path d="M 250 100 v 10 h 5 a 5 5, 0, 0, 0, 0 -10 z" transform="rotate(-90,255,105)"/><path d="M 250 110 v 10 h 5 a 5 5, 0, 0, 0, 0 -10 z" transform="rotate(90,255,115)"/><circle cx="255" cy="155" r="5" transform="rotate(0,255,155)"/><circle cx="255" cy="175" r="5" transform="rotate(0,255,175)"/><path d="M 250 190 v 10 h 5 a 5 5, 0, 0, 0, 0 -10 z" transform="rotate(-90,255,195)"/><rect x="250" y="200" width="10" height="10" transform="rotate(0,255,205)"/><rect x="250" y="210" width="10" height="10" transform="rotate(0,255,215)"/><rect x="250" y="220" width="10" height="10" transform="rotate(0,255,225)"/><path d="M 250 230 v 10 h 5 a 5 5, 0, 0, 0, 0 -10 z" transform="rotate(90,255,235)"/><path d="M 250 260 v 10 h 5 a 5 5, 0, 0, 0, 0 -10 z" transform="rotate(-90,255,265)"/><path d="M 250 270 v 10 h 5 a 5 5, 0, 0, 0, 0 -10 z" transform="rotate(90,255,275)"/><path d="M 250 310 v 10 h 5 a 5 5, 0, 0, 0, 0 -10 z" transform="rotate(-90,255,315)"/><path d="M 250 320 v 10 h 5 a 5 5, 0, 0, 0, 0 -10 z" transform="rotate(90,255,325)"/><circle cx="255" cy="355" r="5" transform="rotate(0,255,355)"/><path d="M 250 370 v 10 h 5 a 5 5, 0, 0, 0, 0 -10 z" transform="rotate(-90,255,375)"/><path d="M 250 380 v 10 h 5 a 5 5, 0, 0, 0, 0 -10 z" transform="rotate(90,255,385)"/><circle cx="265" cy="35" r="5" transform="rotate(0,265,35)"/><circle cx="265" cy="55" r="5" transform="rotate(0,265,55)"/><path d="M 260 80 v 10 h 5 a 5 5, 0, 0, 0, 0 -10 z" transform="rotate(-90,265,85)"/><rect x="260" y="90" width="10" height="10" transform="rotate(0,265,95)"/><path d="M 260 100 v 10 h 5 a 5 5, 0, 0, 0, 0 -10 z" transform="rotate(90,265,105)"/><circle cx="265" cy="125" r="5" transform="rotate(0,265,125)"/><path d="M 260 170 v 10 h 5 a 5 5, 0, 0, 0, 0 -10 z" transform="rotate(-90,265,175)"/><path d="M 260 180 v 10 h 5 a 5 5, 0, 0, 0, 0 -10 z" transform="rotate(90,265,185)"/><path d="M 260 240 v 10 h 5 a 5 5, 0, 0, 0, 0 -10 z" transform="rotate(-90,265,245)"/><rect x="260" y="250" width="10" height="10" transform="rotate(0,265,255)"/><path d="M 260 260 v 10 h 5 a 5 5, 0, 0, 0, 0 -10 z" transform="rotate(90,265,265)"/><path d="M 260 280 v 10 h 5 a 5 5, 0, 0, 0, 0 -10 z" transform="rotate(-90,265,285)"/><path d="M 260 290 v 10 h 5 a 5 5, 0, 0, 0, 0 -10 z" transform="rotate(90,265,295)"/><circle cx="265" cy="345" r="5" transform="rotate(0,265,345)"/><path d="M 260 370 v 10 h 5 a 5 5, 0, 0, 0, 0 -10 z" transform="rotate(-90,265,375)"/><path d="M 260 380 v 10 h 5 a 5 5, 0, 0, 0, 0 -10 z" transform="rotate(90,265,385)"/><path d="M 270 20 v 10 h 5 a 5 5, 0, 0, 0, 0 -10 z" transform="rotate(-90,275,25)"/><path d="M 270 30 v 10 h 5 a 5 5, 0, 0, 0, 0 -10 z" transform="rotate(90,275,35)"/><circle cx="275" cy="55" r="5" transform="rotate(0,275,55)"/><circle cx="275" cy="75" r="5" transform="rotate(0,275,75)"/><circle cx="275" cy="105" r="5" transform="rotate(0,275,105)"/><circle cx="275" cy="155" r="5" transform="rotate(0,275,155)"/><circle cx="275" cy="185" r="5" transform="rotate(0,275,185)"/><circle cx="275" cy="205" r="5" transform="rotate(0,275,205)"/><circle cx="275" cy="225" r="5" transform="rotate(0,275,225)"/><circle cx="275" cy="305" r="5" transform="rotate(0,275,305)"/><path d="M 270 340 v 10 h 5 a 5 5, 0, 0, 0, 0 -10 z" transform="rotate(-90,275,345)"/><rect x="270" y="350" width="10" height="10" transform="rotate(0,275,355)"/><path d="M 270 360 v 10 h 5 a 5 5, 0, 0, 0, 0 -10 z" transform="rotate(90,275,365)"/><circle cx="285" cy="25" r="5" transform="rotate(0,285,25)"/><circle cx="285" cy="45" r="5" transform="rotate(0,285,45)"/><circle cx="285" cy="85" r="5" transform="rotate(0,285,85)"/><circle cx="285" cy="115" r="5" transform="rotate(0,285,115)"/><circle cx="285" cy="135" r="5" transform="rotate(0,285,135)"/><circle cx="285" cy="155" r="5" transform="rotate(0,285,155)"/><path d="M 280 180 v 10 h 5 a 5 5, 0, 0, 0, 0 -10 z" transform="rotate(-90,285,185)"/><rect x="280" y="190" width="10" height="10" transform="rotate(0,285,195)"/><rect x="280" y="200" width="10" height="10" transform="rotate(0,285,205)"/><rect x="280" y="210" width="10" height="10" transform="rotate(0,285,215)"/><rect x="280" y="220" width="10" height="10" transform="rotate(0,285,225)"/><path d="M 280 230 v 10 h 5 a 5 5, 0, 0, 0, 0 -10 z" transform="rotate(90,285,235)"/><circle cx="285" cy="285" r="5" transform="rotate(0,285,285)"/><circle cx="285" cy="305" r="5" transform="rotate(0,285,305)"/><path d="M 280 320 v 10 h 5 a 5 5, 0, 0, 0, 0 -10 z" transform="rotate(-90,285,325)"/><rect x="280" y="330" width="10" height="10" transform="rotate(0,285,335)"/><path d="M 280 340 v 10 h 5 a 5 5, 0, 0, 0, 0 -10 z" transform="rotate(90,285,345)"/><circle cx="285" cy="365" r="5" transform="rotate(0,285,365)"/><circle cx="285" cy="385" r="5" transform="rotate(0,285,385)"/><circle cx="295" cy="45" r="5" transform="rotate(0,295,45)"/><path d="M 290 90 v 10 h 5 a 5 5, 0, 0, 0, 0 -10 z" transform="rotate(-90,295,95)"/><path d="M 290 100 v 10 h 5 a 5 5, 0, 0, 0, 0 -10 z" transform="rotate(90,295,105)"/><circle cx="295" cy="125" r="5" transform="rotate(0,295,125)"/><path d="M 290 140 v 10 h 5 a 5 5, 0, 0, 0, 0 -10 z" transform="rotate(-90,295,145)"/><rect x="290" y="150" width="10" height="10" transform="rotate(0,295,155)"/><rect x="290" y="160" width="10" height="10" transform="rotate(0,295,165)"/><rect x="290" y="170" width="10" height="10" transform="rotate(0,295,175)"/><rect x="290" y="180" width="10" height="10" transform="rotate(0,295,185)"/><rect x="290" y="190" width="10" height="10" transform="rotate(0,295,195)"/><rect x="290" y="200" width="10" height="10" transform="rotate(0,295,205)"/><rect x="290" y="210" width="10" height="10" transform="rotate(0,295,215)"/><rect x="290" y="220" width="10" height="10" transform="rotate(0,295,225)"/><rect x="290" y="230" width="10" height="10" transform="rotate(0,295,235)"/><rect x="290" y="240" width="10" height="10" transform="rotate(0,295,245)"/><path d="M 290 250 v 10 h 5 a 5 5, 0, 0, 0, 0 -10 z" transform="rotate(90,295,255)"/><circle cx="295" cy="285" r="5" transform="rotate(0,295,285)"/><path d="M 290 300 v 10 h 5 a 5 5, 0, 0, 0, 0 -10 z" transform="rotate(-90,295,305)"/><rect x="290" y="310" width="10" height="10" transform="rotate(0,295,315)"/><rect x="290" y="320" width="10" height="10" transform="rotate(0,295,325)"/><rect x="290" y="330" width="10" height="10" transform="rotate(0,295,335)"/><path d="M 290 340 v 10 h 5 a 5 5, 0, 0, 0, 0 -10 z" transform="rotate(90,295,345)"/><circle cx="295" cy="365" r="5" transform="rotate(0,295,365)"/><circle cx="295" cy="385" r="5" transform="rotate(0,295,385)"/><circle cx="305" cy="45" r="5" transform="rotate(0,305,45)"/><circle cx="305" cy="65" r="5" transform="rotate(0,305,65)"/><circle cx="305" cy="85" r="5" transform="rotate(0,305,85)"/><circle cx="305" cy="105" r="5" transform="rotate(0,305,105)"/><circle cx="305" cy="125" r="5" transform="rotate(0,305,125)"/><path d="M 300 140 v 10 h 5 a 5 5, 0, 0, 0, 0 -10 z" transform="rotate(-90,305,145)"/><rect x="300" y="150" width="10" height="10" transform="rotate(0,305,155)"/><rect x="300" y="160" width="10" height="10" transform="rotate(0,305,165)"/><path d="M 300 170 v 10 h 5 a 5 5, 0, 0, 0, 0 -10 z" transform="rotate(90,305,175)"/><path d="M 300 190 v 10 h 5 a 5 5, 0, 0, 0, 0 -10 z" transform="rotate(-90,305,195)"/><path d="M 300 200 v 10 h 5 a 5 5, 0, 0, 0, 0 -10 z" transform="rotate(90,305,205)"/><circle cx="305" cy="235" r="5" transform="rotate(0,305,235)"/><circle cx="305" cy="275" r="5" transform="rotate(0,305,275)"/><path d="M 300 290 v 10 h 5 a 5 5, 0, 0, 0, 0 -10 z" transform="rotate(-90,305,295)"/><rect x="300" y="300" width="10" height="10" transform="rotate(0,305,305)"/><rect x="300" y="310" width="10" height="10" transform="rotate(0,305,315)"/><rect x="300" y="320" width="10" height="10" transform="rotate(0,305,325)"/><rect x="300" y="330" width="10" height="10" transform="rotate(0,305,335)"/><path d="M 300 340 v 10 h 5 a 5 5, 0, 0, 0, 0 -10 z" transform="rotate(90,305,345)"/><path d="M 300 370 v 10 h 5 a 5 5, 0, 0, 0, 0 -10 z" transform="rotate(-90,305,375)"/><path d="M 300 380 v 10 h 5 a 5 5, 0, 0, 0, 0 -10 z" transform="rotate(90,305,385)"/><path d="M 310 100 v 10 h 5 a 5 5, 0, 0, 0, 0 -10 z" transform="rotate(-90,315,105)"/><rect x="310" y="110" width="10" height="10" transform="rotate(0,315,115)"/><path d="M 310 120 v 10 h 5 a 5 5, 0, 0, 0, 0 -10 z" transform="rotate(90,315,125)"/><circle cx="315" cy="145" r="5" transform="rotate(0,315,145)"/><circle cx="315" cy="205" r="5" transform="rotate(0,315,205)"/><circle cx="315" cy="245" r="5" transform="rotate(0,315,245)"/><circle cx="315" cy="265" r="5" transform="rotate(0,315,265)"/><circle cx="315" cy="305" r="5" transform="rotate(0,315,305)"/><circle cx="315" cy="345" r="5" transform="rotate(0,315,345)"/><path d="M 310 360 v 10 h 5 a 5 5, 0, 0, 0, 0 -10 z" transform="rotate(-90,315,365)"/><rect x="310" y="370" width="10" height="10" transform="rotate(0,315,375)"/><path d="M 310 380 v 10 h 5 a 5 5, 0, 0, 0, 0 -10 z" transform="rotate(90,315,385)"/><path d="M 320 120 v 10 h 5 a 5 5, 0, 0, 0, 0 -10 z" transform="rotate(-90,325,125)"/><rect x="320" y="130" width="10" height="10" transform="rotate(0,325,135)"/><path d="M 320 140 v 10 h 5 a 5 5, 0, 0, 0, 0 -10 z" transform="rotate(90,325,145)"/><circle cx="325" cy="165" r="5" transform="rotate(0,325,165)"/><circle cx="325" cy="185" r="5" transform="rotate(0,325,185)"/><circle cx="325" cy="225" r="5" transform="rotate(0,325,225)"/><path d="M 320 240 v 10 h 5 a 5 5, 0, 0, 0, 0 -10 z" transform="rotate(-90,325,245)"/><rect x="320" y="250" width="10" height="10" transform="rotate(0,325,255)"/><path d="M 320 260 v 10 h 5 a 5 5, 0, 0, 0, 0 -10 z" transform="rotate(90,325,265)"/><circle cx="325" cy="285" r="5" transform="rotate(0,325,285)"/><circle cx="325" cy="305" r="5" transform="rotate(0,325,305)"/><circle cx="325" cy="325" r="5" transform="rotate(0,325,325)"/><path d="M 320 340 v 10 h 5 a 5 5, 0, 0, 0, 0 -10 z" transform="rotate(-90,325,345)"/><path d="M 320 350 v 10 h 5 a 5 5, 0, 0, 0, 0 -10 z" transform="rotate(90,325,355)"/><circle cx="325" cy="385" r="5" transform="rotate(0,325,385)"/><path d="M 330 110 v 10 h 5 a 5 5, 0, 0, 0, 0 -10 z" transform="rotate(-90,335,115)"/><path d="M 330 120 v 10 h 5 a 5 5, 0, 0, 0, 0 -10 z" transform="rotate(90,335,125)"/><path d="M 330 230 v 10 h 5 a 5 5, 0, 0, 0, 0 -10 z" transform="rotate(-90,335,235)"/><path d="M 330 240 v 10 h 5 a 5 5, 0, 0, 0, 0 -10 z" transform="rotate(90,335,245)"/><circle cx="335" cy="275" r="5" transform="rotate(0,335,275)"/><circle cx="335" cy="305" r="5" transform="rotate(0,335,305)"/><circle cx="335" cy="345" r="5" transform="rotate(0,335,345)"/><circle cx="335" cy="375" r="5" transform="rotate(0,335,375)"/><path d="M 340 110 v 10 h 5 a 5 5, 0, 0, 0, 0 -10 z" transform="rotate(-90,345,115)"/><path d="M 340 120 v 10 h 5 a 5 5, 0, 0, 0, 0 -10 z" transform="rotate(90,345,125)"/><path d="M 340 160 v 10 h 5 a 5 5, 0, 0, 0, 0 -10 z" transform="rotate(-90,345,165)"/><rect x="340" y="170" width="10" height="10" transform="rotate(0,345,175)"/><path d="M 340 180 v 10 h 5 a 5 5, 0, 0, 0, 0 -10 z" transform="rotate(90,345,185)"/><circle cx="345" cy="205" r="5" transform="rotate(0,345,205)"/><path d="M 340 220 v 10 h 5 a 5 5, 0, 0, 0, 0 -10 z" transform="rotate(-90,345,225)"/><path d="M 340 230 v 10 h 5 a 5 5, 0, 0, 0, 0 -10 z" transform="rotate(90,345,235)"/><circle cx="345" cy="255" r="5" transform="rotate(0,345,255)"/><path d="M 340 280 v 10 h 5 a 5 5, 0, 0, 0, 0 -10 z" transform="rotate(-90,345,285)"/><rect x="340" y="290" width="10" height="10" transform="rotate(0,345,295)"/><rect x="340" y="300" width="10" height="10" transform="rotate(0,345,305)"/><rect x="340" y="310" width="10" height="10" transform="rotate(0,345,315)"/><rect x="340" y="320" width="10" height="10" transform="rotate(0,345,325)"/><rect x="340" y="330" width="10" height="10" transform="rotate(0,345,335)"/><path d="M 340 340 v 10 h 5 a 5 5, 0, 0, 0, 0 -10 z" transform="rotate(90,345,345)"/><circle cx="345" cy="385" r="5" transform="rotate(0,345,385)"/><path d="M 350 110 v 10 h 5 a 5 5, 0, 0, 0, 0 -10 z" transform="rotate(-90,355,115)"/><rect x="350" y="120" width="10" height="10" transform="rotate(0,355,125)"/><rect x="350" y="130" width="10" height="10" transform="rotate(0,355,135)"/><path d="M 350 140 v 10 h 5 a 5 5, 0, 0, 0, 0 -10 z" transform="rotate(90,355,145)"/><circle cx="355" cy="185" r="5" transform="rotate(0,355,185)"/><path d="M 350 210 v 10 h 5 a 5 5, 0, 0, 0, 0 -10 z" transform="rotate(-90,355,215)"/><rect x="350" y="220" width="10" height="10" transform="rotate(0,355,225)"/><path d="M 350 230 v 10 h 5 a 5 5, 0, 0, 0, 0 -10 z" transform="rotate(90,355,235)"/><path d="M 350 250 v 10 h 5 a 5 5, 0, 0, 0, 0 -10 z" transform="rotate(-90,355,255)"/><path d="M 350 260 v 10 h 5 a 5 5, 0, 0, 0, 0 -10 z" transform="rotate(90,355,265)"/><circle cx="355" cy="295" r="5" transform="rotate(0,355,295)"/><path d="M 350 320 v 10 h 5 a 5 5, 0, 0, 0, 0 -10 z" transform="rotate(-90,355,325)"/><rect x="350" y="330" width="10" height="10" transform="rotate(0,355,335)"/><path d="M 350 340 v 10 h 5 a 5 5, 0, 0, 0, 0 -10 z" transform="rotate(90,355,345)"/><path d="M 360 110 v 10 h 5 a 5 5, 0, 0, 0, 0 -10 z" transform="rotate(-90,365,115)"/><path d="M 360 120 v 10 h 5 a 5 5, 0, 0, 0, 0 -10 z" transform="rotate(90,365,125)"/><path d="M 360 150 v 10 h 5 a 5 5, 0, 0, 0, 0 -10 z" transform="rotate(-90,365,155)"/><rect x="360" y="160" width="10" height="10" transform="rotate(0,365,165)"/><rect x="360" y="170" width="10" height="10" transform="rotate(0,365,175)"/><path d="M 360 180 v 10 h 5 a 5 5, 0, 0, 0, 0 -10 z" transform="rotate(90,365,185)"/><circle cx="365" cy="225" r="5" transform="rotate(0,365,225)"/><circle cx="365" cy="275" r="5" transform="rotate(0,365,275)"/><path d="M 360 290 v 10 h 5 a 5 5, 0, 0, 0, 0 -10 z" transform="rotate(-90,365,295)"/><path d="M 360 300 v 10 h 5 a 5 5, 0, 0, 0, 0 -10 z" transform="rotate(90,365,305)"/><circle cx="365" cy="345" r="5" transform="rotate(0,365,345)"/><circle cx="365" cy="365" r="5" transform="rotate(0,365,365)"/><circle cx="375" cy="105" r="5" transform="rotate(0,375,105)"/><path d="M 370 120 v 10 h 5 a 5 5, 0, 0, 0, 0 -10 z" transform="rotate(-90,375,125)"/><rect x="370" y="130" width="10" height="10" transform="rotate(0,375,135)"/><rect x="370" y="140" width="10" height="10" transform="rotate(0,375,145)"/><rect x="370" y="150" width="10" height="10" transform="rotate(0,375,155)"/><rect x="370" y="160" width="10" height="10" transform="rotate(0,375,165)"/><path d="M 370 170 v 10 h 5 a 5 5, 0, 0, 0, 0 -10 z" transform="rotate(90,375,175)"/><circle cx="375" cy="195" r="5" transform="rotate(0,375,195)"/><circle cx="375" cy="225" r="5" transform="rotate(0,375,225)"/><circle cx="375" cy="245" r="5" transform="rotate(0,375,245)"/><circle cx="375" cy="265" r="5" transform="rotate(0,375,265)"/><circle cx="375" cy="285" r="5" transform="rotate(0,375,285)"/><circle cx="375" cy="305" r="5" transform="rotate(0,375,305)"/><path d="M 370 340 v 10 h 5 a 5 5, 0, 0, 0, 0 -10 z" transform="rotate(-90,375,345)"/><path d="M 370 350 v 10 h 5 a 5 5, 0, 0, 0, 0 -10 z" transform="rotate(90,375,355)"/><circle cx="385" cy="105" r="5" transform="rotate(0,385,105)"/><path d="M 380 120 v 10 h 5 a 5 5, 0, 0, 0, 0 -10 z" transform="rotate(-90,385,125)"/><rect x="380" y="130" width="10" height="10" transform="rotate(0,385,135)"/><path d="M 380 140 v 10 h 5 a 5 5, 0, 0, 0, 0 -10 z" transform="rotate(90,385,145)"/><path d="M 380 160 v 10 h 5 a 5 5, 0, 0, 0, 0 -10 z" transform="rotate(-90,385,165)"/><rect x="380" y="170" width="10" height="10" transform="rotate(0,385,175)"/><path d="M 380 180 v 10 h 5 a 5 5, 0, 0, 0, 0 -10 z" transform="rotate(90,385,185)"/><path d="M 380 200 v 10 h 5 a 5 5, 0, 0, 0, 0 -10 z" transform="rotate(-90,385,205)"/><path d="M 380 210 v 10 h 5 a 5 5, 0, 0, 0, 0 -10 z" transform="rotate(90,385,215)"/><path d="M 380 240 v 10 h 5 a 5 5, 0, 0, 0, 0 -10 z" transform="rotate(-90,385,245)"/><rect x="380" y="250" width="10" height="10" transform="rotate(0,385,255)"/><path d="M 380 260 v 10 h 5 a 5 5, 0, 0, 0, 0 -10 z" transform="rotate(90,385,265)"/><circle cx="385" cy="285" r="5" transform="rotate(0,385,285)"/><path d="M 380 320 v 10 h 5 a 5 5, 0, 0, 0, 0 -10 z" transform="rotate(-90,385,325)"/><rect x="380" y="330" width="10" height="10" transform="rotate(0,385,335)"/><path d="M 380 340 v 10 h 5 a 5 5, 0, 0, 0, 0 -10 z" transform="rotate(90,385,345)"/><path d="M 380 360 v 10 h 5 a 5 5, 0, 0, 0, 0 -10 z" transform="rotate(-90,385,365)"/><rect x="380" y="370" width="10" height="10" transform="rotate(0,385,375)"/><path d="M 380 380 v 10 h 5 a 5 5, 0, 0, 0, 0 -10 z" transform="rotate(90,385,385)"/></g></mask><mask id="mask-corners-square-color-0-0-0-0" maskUnits="userSpaceOnUse" x="0" y="0" width="410" height="410"><g fill="#fff"><path clip-rule="evenodd" d="M 20 45 v 20 a 25 25, 0, 0, 0, 25 25 h 20 a 25 25, 0, 0, 0, 25 -25 v -20 a 25 25, 0, 0, 0, -25 -25 h -20 a 25 25, 0, 0, 0, -25 25 z M 45 30 h 20 a 15 15, 0, 0, 1, 15 15 v 20 a 15 15, 0, 0, 1, -15 15 h -20 a 15 15, 0, 0, 1, -15 -15 v -20 a 15 15, 0, 0, 1, 15 -15 z" transform="rotate(0,55,55)"/></g></mask><mask id="mask-corners-dot-color-0-0-0-0" maskUnits="userSpaceOnUse" x="0" y="0" width="410" height="410"><g fill="#fff"><circle cx="55" cy="55" r="14.2857143" transform="rotate(0,55,55)"/></g></mask><mask id="mask-corners-square-color-1-0-0-0" maskUnits="userSpaceOnUse" x="0" y="0" width="410" height="410"><g fill="#fff"><path clip-rule="evenodd" d="M 320 45 v 20 a 25 25, 0, 0, 0, 25 25 h 20 a 25 25, 0, 0, 0, 25 -25 v -20 a 25 25, 0, 0, 0, -25 -25 h -20 a 25 25, 0, 0, 0, -25 25 z M 345 30 h 20 a 15 15, 0, 0, 1, 15 15 v 20 a 15 15, 0, 0, 1, -15 15 h -20 a 15 15, 0, 0, 1, -15 -15 v -20 a 15 15, 0, 0, 1, 15 -15 z" transform="rotate(90,355,55)"/></g></mask><mask id="mask-corners-dot-color-1-0-0-0" maskUnits="userSpaceOnUse" x="0" y="0" width="410" height="410"><g fill="#fff"><circle cx="355" cy="55" r="14.2857143" transform="rotate(90,355,55)"/></g></mask><mask id="mask-corners-square-color-0-1-0-0" maskUnits="userSpaceOnUse" x="0" y="0" width="410" height="410"><g fill="#fff"><path clip-rule="evenodd" d="M 20 345 v 20 a 25 25, 0, 0, 0, 25 25 h 20 a 25 25, 0, 0, 0, 25 -25 v -20 a 25 25, 0, 0, 0, -25 -25 h -20 a 25 25, 0, 0, 0, -25 25 z M 45 330 h 20 a 15 15, 0, 0, 1, 15 15 v 20 a 15 15, 0, 0, 1, -15 15 h -20 a 15 15, 0, 0, 1, -15 -15 v -20 a 15 15, 0, 0, 1, 15 -15 z" transform="rotate(-90,55,355)"/></g></mask><mask id="mask-corners-dot-color-0-1-0-0" maskUnits="userSpaceOnUse" x="0" y="0" width="410" height="410"><g fill="#fff"><circle cx="55" cy="355" r="14.2857143" transform="rotate(-90,55,355)"/></g></mask></defs><rect x="0" y="0" height="410" width="410" style="mask:url(#mask-background-color-0-0)" fill="#ffffff"/><g><g><rect x="20" y="20" height="370" width="370" style="mask:url(#mask-dot-color-0-0)" fill="#000000"/><rect x="20" y="20" height="70" width="70" style="mask:url(#mask-corners-square-color-0-0-0-0)" fill="#000000"/><rect x="40" y="40" height="30" width="30" style="mask:url(#mask-corners-dot-color-0-0-0-0)" fill="#000000"/><rect x="320" y="20" height="70" width="70" style="mask:url(#mask-corners-square-color-1-0-0-0)" fill="#000000"/><rect x="340" y="40" height="30" width="30" style="mask:url(#mask-corners-dot-color-1-0-0-0)" fill="#000000"/><rect x="20" y="320" height="70" width="70" style="mask:url(#mask-corners-square-color-0-1-0-0)" fill="#000000"/><rect x="40" y="340" height="30" width="30" style="mask:url(#mask-corners-dot-color-0-1-0-0)" fill="#000000"/></g></g></svg>