<?xml version="1.0" standalone="no"?>
<svg width="450" height="450" viewBox="0 0 450 450" xmlns="http://www.w3.org/2000/svg"><defs><mask id="mask-background-color-3-3" maskUnits="userSpaceOnUse" x="0" y="0" width="450" height="450"><g fill="#fff"><rect x="0" y="0" width="450" height="450" rx="0"/></g></mask><mask id="mask-dot-color-3-3" maskUnits="userSpaceOnUse" x="0" y="0" width="450" height="450"><g fill="#fff"><path d="M 20 110 v 10 h 5 a 5 5, 0, 0, 0, 0 -10 z" transform="rotate(-90,25,115)"/><rect x="20" y="120" width="10" height="10" transform="rotate(0,25,125)"/><rect x="20" y="130" width="10" height="10" transform="rotate(0,25,135)"/><rect x="20" y="140" width="10" height="10" transform="rotate(0,25,145)"/><rect x="20" y="150" width="10" height="10" transform="rotate(0,25,155)"/><path d="M 20 160 v 10 h 5 a 5 5, 0, 0, 0, 0 -10 z" transform="rotate(90,25,165)"/><path d="M 20 190 v 10 h 5 a 5 5, 0, 0, 0, 0 -10 z" transform="rotate(-90,25,195)"/><path d="M 20 200 v 10 h 5 a 5 5, 0, 0, 0, 0 -10 z" transform="rotate(90,25,205)"/><circle cx="25" cy="225" r="5" transform="rotate(0,25,225)"/><path d="M 20 250 v 10 h 5 a 5 5, 0, 0, 0, 0 -10 z" transform="rotate(-90,25,255)"/><rect x="20" y="260" width="10" height="10" transform="rotate(0,25,265)"/><rect x="20" y="270" width="10" height="10" transform="rotate(0,25,275)"/><rect x="20" y="280" width="10" height="10" transform="rotate(0,25,285)"/><path d="M 20 290 v 10 h 5 a 5 5, 0, 0, 0, 0 -10 z" transform="rotate(90,25,295)"/><path d="M 20 310 v 10 h 5 a 5 5, 0, 0, 0, 0 -10 z" transform="rotate(-90,25,315)"/><rect x="20" y="320" width="10" height="10" transform="rotate(0,25,325)"/><rect x="20" y="330" width="10" height="10" transform="rotate(0,25,335)"/><path d="M 20 340 v 10 h 5 a 5 5, 0, 0, 0, 0 -10 z" transform="rotate(90,25,345)"/><circle cx="35" cy="105" r="5" transform="rotate(0,35,105)"/><path d="M 30 130 v 10 h 5 a 5 5, 0, 0, 0, 0 -10 z" transform="rotate(-90,35,135)"/><path d="M 30 140 v 10 h 5 a 5 5, 0, 0, 0, 0 -10 z" transform="rotate(90,35,145)"/><path d="M 30 160 v 10 h 5 a 5 5, 0, 0, 0, 0 -10 z" transform="rotate(-90,35,165)"/><path d="M 30 170 v 10 h 5 a 5 5, 0, 0, 0, 0 -10 z" transform="rotate(90,35,175)"/><circle cx="35" cy="195" r="5" transform="rotate(0,35,195)"/><circle cx="35" cy="215" r="5" transform="rotate(0,35,215)"/><circle cx="35" cy="235" r="5" transform="rotate(0,35,235)"/><circle cx="35" cy="275" r="5" transform="rotate(0,35,275)"/><circle cx="35" cy="295" r="5" transform="rotate(0,35,295)"/><circle cx="45" cy="105" r="5" transform="rotate(0,45,105)"/><path d="M 40 120 v 10 h 5 a 5 5, 0, 0, 0, 0 -10 z" transform="rotate(-90,45,125)"/><path d="M 40 130 v 10 h 5 a 5 5, 0, 0, 0, 0 -10 z" transform="rotate(90,45,135)"/><circle cx="45" cy="225" r="5" transform="rotate(0,45,225)"/><path d="M 40 250 v 10 h 5 a 5 5, 0, 0, 0, 0 -10 z" transform="rotate(-90,45,255)"/><rect x="40" y="260" width="10" height="10" transform="rotate(0,45,265)"/><rect x="40" y="270" width="10" height="10" transform="rotate(0,45,275)"/><rect x="40" y="280" width="10" height="10" transform="rotate(0,45,285)"/><rect x="40" y="290" width="10" height="10" transform="rotate(0,45,295)"/><path d="M 40 300 v 10 h 5 a 5 5, 0, 0, 0, 0 -10 z" transform="rotate(90,45,305)"/><circle cx="45" cy="335" r="5" transform="rotate(0,45,335)"/><path d="M 50 100 v 10 h 5 a 5 5, 0, 0, 0, 0 -10 z" transform="rotate(-90,55,105)"/><path d="M 50 110 v 10 h 5 a 5 5, 0, 0, 0, 0 -10 z" transform="rotate(90,55,115)"/><path d="M 50 150 v 10 h 5 a 5 5, 0, 0, 0, 0 -10 z" transform="rotate(-90,55,155)"/><path d="M 50 160 v 10 h 5 a 5 5, 0, 0, 0, 0 -10 z" transform="rotate(90,55,165)"/><circle cx="55" cy="195" r="5" transform="rotate(0,55,195)"/><circle cx="55" cy="215" r="5" transform="rotate(0,55,215)"/><circle cx="55" cy="245" r="5" transform="rotate(0,55,245)"/><path d="M 50 270 v 10 h 5 a 5 5, 0, 0, 0, 0 -10 z" transform="rotate(-90,55,275)"/><path d="M 50 280 v 10 h 5 a 5 5, 0, 0, 0, 0 -10 z" transform="rotate(90,55,285)"/><circle cx="55" cy="305" r="5" transform="rotate(0,55,305)"/><circle cx="55" cy="335" r="5" transform="rotate(0,55,335)"/><circle cx="65" cy="105" r="5" transform="rotate(0,65,105)"/><circle cx="65" cy="135" r="5" transform="rotate(0,65,135)"/><path d="M 60 150 v 10 h 5 a 5 5, 0, 0, 0, 0 -10 z" transform="rotate(-90,65,155)"/><rect x="60" y="160" width="10" height="10" transform="rotate(0,65,165)"/><path d="M 60 170 v 10 h 5 a 5 5, 0, 0, 0, 0 -10 z" transform="rotate(90,65,175)"/><path d="M 60 190 v 10 h 5 a 5 5, 0, 0, 0, 0 -10 z" transform="rotate(-90,65,195)"/><rect x="60" y="200" width="10" height="10" transform="rotate(0,65,205)"/><rect x="60" y="210" width="10" height="10" transform="rotate(0,65,215)"/><path d="M 60 220 v 10 h 5 a 5 5, 0, 0, 0, 0 -10 z" transform="rotate(90,65,225)"/><circle cx="65" cy="255" r="5" transform="rotate(0,65,255)"/><path d="M 60 270 v 10 h 5 a 5 5, 0, 0, 0, 0 -10 z" transform="rotate(-90,65,275)"/><path d="M 60 280 v 10 h 5 a 5 5, 0, 0, 0, 0 -10 z" transform="rotate(90,65,285)"/><path d="M 60 320 v 10 h 5 a 5 5, 0, 0, 0, 0 -10 z" transform="rotate(-90,65,325)"/><rect x="60" y="330" width="10" height="10" transform="rotate(0,65,335)"/><path d="M 60 340 v 10 h 5 a 5 5, 0, 0, 0, 0 -10 z" transform="rotate(90,65,345)"/><path d="M 70 100 v 10 h 5 a 5 5, 0, 0, 0, 0 -10 z" transform="rotate(-90,75,105)"/><rect x="70" y="110" width="10" height="10" transform="rotate(0,75,115)"/><path d="M 70 120 v 10 h 5 a 5 5, 0, 0, 0, 0 -10 z" transform="rotate(90,75,125)"/><circle cx="75" cy="155" r="5" transform="rotate(0,75,155)"/><circle cx="75" cy="195" r="5" transform="rotate(0,75,195)"/><circle cx="75" cy="215" r="5" transform="rotate(0,75,215)"/><path d="M 70 240 v 10 h 5 a 5 5, 0, 0, 0, 0 -10 z" transform="rotate(-90,75,245)"/><path d="M 70 250 v 10 h 5 a 5 5, 0, 0, 0, 0 -10 z" transform="rotate(90,75,255)"/><path d="M 70 270 v 10 h 5 a 5 5, 0, 0, 0, 0 -10 z" transform="rotate(-90,75,275)"/><rect x="70" y="280" width="10" height="10" transform="rotate(0,75,285)"/><path d="M 70 290 v 10 h 5 a 5 5, 0, 0, 0, 0 -10 z" transform="rotate(90,75,295)"/><path d="M 70 320 v 10 h 5 a 5 5, 0, 0, 0, 0 -10 z" transform="rotate(-90,75,325)"/><path d="M 70 330 v 10 h 5 a 5 5, 0, 0, 0, 0 -10 z" transform="rotate(90,75,335)"/><circle cx="85" cy="105" r="5" transform="rotate(0,85,105)"/><circle cx="85" cy="125" r="5" transform="rotate(0,85,125)"/><circle cx="85" cy="145" r="5" transform="rotate(0,85,145)"/><circle cx="85" cy="165" r="5" transform="rotate(0,85,165)"/><circle cx="85" cy="185" r="5" transform="rotate(0,85,185)"/><circle cx="85" cy="205" r="5" transform="rotate(0,85,205)"/><circle cx="85" cy="225" r="5" transform="rotate(0,85,225)"/><circle cx="85" cy="245" r="5" transform="rotate(0,85,245)"/><circle cx="85" cy="265" r="5" transform="rotate(0,85,265)"/><circle cx="85" cy="285" r="5" transform="rotate(0,85,285)"/><circle cx="85" cy="305" r="5" transform="rotate(0,85,305)"/><circle cx="85" cy="325" r="5" transform="rotate(0,85,325)"/><circle cx="85" cy="345" r="5" transform="rotate(0,85,345)"/><path d="M 90 100 v 10 h 5 a 5 5, 0, 0, 0, 0 -10 z" transform="rotate(-90,95,105)"/><path d="M 90 110 v 10 h 5 a 5 5, 0, 0, 0, 0 -10 z" transform="rotate(90,95,115)"/><path d="M 90 140 v 10 h 5 a 5 5, 0, 0, 0, 0 -10 z" transform="rotate(-90,95,145)"/><path d="M 90 150 v 10 h 5 a 5 5, 0, 0, 0, 0 -10 z" transform="rotate(90,95,155)"/><circle cx="95" cy="185" r="5" transform="rotate(0,95,185)"/><circle cx="95" cy="205" r="5" transform="rotate(0,95,205)"/><path d="M 90 230 v 10 h 5 a 5 5, 0, 0, 0, 0 -10 z" transform="rotate(-90,95,235)"/><path d="M 90 240 v 10 h 5 a 5 5, 0, 0, 0, 0 -10 z" transform="rotate(90,95,245)"/><path d="M 90 300 v 10 h 5 a 5 5, 0, 0, 0, 0 -10 z" transform="rotate(-90,95,305)"/><rect x="90" y="310" width="10" height="10" transform="rotate(0,95,315)"/><rect x="90" y="320" width="10" height="10" transform="rotate(0,95,325)"/><rect x="90" y="330" width="10" height="10" transform="rotate(0,95,335)"/><path d="M 90 340 v 10 h 5 a 5 5, 0, 0, 0, 0 -10 z" transform="rotate(90,95,345)"/><circle cx="105" cy="25" r="5" transform="rotate(0,105,25)"/><path d="M 100 60 v 10 h 5 a 5 5, 0, 0, 0, 0 -10 z" transform="rotate(-90,105,65)"/><rect x="100" y="70" width="10" height="10" transform="rotate(0,105,75)"/><path d="M 100 80 v 10 h 5 a 5 5, 0, 0, 0, 0 -10 z" transform="rotate(90,105,85)"/><path d="M 100 130 v 10 h 5 a 5 5, 0, 0, 0, 0 -10 z" transform="rotate(-90,105,135)"/><rect x="100" y="140" width="10" height="10" transform="rotate(0,105,145)"/><rect x="100" y="150" width="10" height="10" transform="rotate(0,105,155)"/><path d="M 100 160 v 10 h 5 a 5 5, 0, 0, 0, 0 -10 z" transform="rotate(90,105,165)"/><circle cx="105" cy="185" r="5" transform="rotate(0,105,185)"/><circle cx="105" cy="205" r="5" transform="rotate(0,105,205)"/><path d="M 100 220 v 10 h 5 a 5 5, 0, 0, 0, 0 -10 z" transform="rotate(-90,105,225)"/><rect x="100" y="230" width="10" height="10" transform="rotate(0,105,235)"/><rect x="100" y="240" width="10" height="10" transform="rotate(0,105,245)"/><rect x="100" y="250" width="10" height="10" transform="rotate(0,105,255)"/><path d="M 100 260 v 10 h 5 a 5 5, 0, 0, 0, 0 -10 z" transform="rotate(90,105,265)"/><path d="M 100 280 v 10 h 5 a 5 5, 0, 0, 0, 0 -10 z" transform="rotate(-90,105,285)"/><rect x="100" y="290" width="10" height="10" transform="rotate(0,105,295)"/><rect x="100" y="300" width="10" height="10" transform="rotate(0,105,305)"/><path d="M 100 310 v 10 h 5 a 5 5, 0, 0, 0, 0 -10 z" transform="rotate(90,105,315)"/><path d="M 100 340 v 10 h 5 a 5 5, 0, 0, 0, 0 -10 z" transform="rotate(-90,105,345)"/><rect x="100" y="350" width="10" height="10" transform="rotate(0,105,355)"/><rect x="100" y="360" width="10" height="10" transform="rotate(0,105,365)"/><rect x="100" y="370" width="10" height="10" transform="rotate(0,105,375)"/><rect x="100" y="380" width="10" height="10" transform="rotate(0,105,385)"/><rect x="100" y="390" width="10" height="10" transform="rotate(0,105,395)"/><rect x="100" y="400" width="10" height="10" transform="rotate(0,105,405)"/><path d="M 100 410 v 10 h 5 a 5 5, 0, 0, 0, 0 -10 z" transform="rotate(90,105,415)"/><path d="M 110 30 v 10 h 5 a 5 5, 0, 0, 0, 0 -10 z" transform="rotate(-90,115,35)"/><rect x="110" y="40" width="10" height="10" transform="rotate(0,115,45)"/><path d="M 110 50 v 10 h 5 a 5 5, 0, 0, 0, 0 -10 z" transform="rotate(90,115,55)"/><circle cx="115" cy="75" r="5" transform="rotate(0,115,75)"/><circle cx="115" cy="105" r="5" transform="rotate(0,115,105)"/><circle cx="115" cy="145" r="5" transform="rotate(0,115,145)"/><circle cx="115" cy="165" r="5" transform="rotate(0,115,165)"/><circle cx="115" cy="185" r="5" transform="rotate(0,115,185)"/><circle cx="115" cy="205" r="5" transform="rotate(0,115,205)"/><path d="M 110 290 v 10 h 5 a 5 5, 0, 0, 0, 0 -10 z" transform="rotate(-90,115,295)"/><rect x="110" y="300" width="10" height="10" transform="rotate(0,115,305)"/><path d="M 110 310 v 10 h 5 a 5 5, 0, 0, 0, 0 -10 z" transform="rotate(90,115,315)"/><circle cx="115" cy="365" r="5" transform="rotate(0,115,365)"/><path d="M 110 380 v 10 h 5 a 5 5, 0, 0, 0, 0 -10 z" transform="rotate(-90,115,385)"/><rect x="110" y="390" width="10" height="10" transform="rotate(0,115,395)"/><path d="M 110 400 v 10 h 5 a 5 5, 0, 0, 0, 0 -10 z" transform="rotate(90,115,405)"/><circle cx="115" cy="425" r="5" transform="rotate(0,115,425)"/><path d="M 120 30 v 10 h 5 a 5 5, 0, 0, 0, 0 -10 z" transform="rotate(-90,125,35)"/><path d="M 120 40 v 10 h 5 a 5 5, 0, 0, 0, 0 -10 z" transform="rotate(90,125,45)"/><circle cx="125" cy="65" r="5" transform="rotate(0,125,65)"/><path d="M 120 80 v 10 h 5 a 5 5, 0, 0, 0, 0 -10 z" transform="rotate(-90,125,85)"/><path d="M 120 90 v 10 h 5 a 5 5, 0, 0, 0, 0 -10 z" transform="rotate(90,125,95)"/><circle cx="125" cy="115" r="5" transform="rotate(0,125,115)"/><path d="M 120 130 v 10 h 5 a 5 5, 0, 0, 0, 0 -10 z" transform="rotate(-90,125,135)"/><path d="M 120 140 v 10 h 5 a 5 5, 0, 0, 0, 0 -10 z" transform="rotate(90,125,145)"/><circle cx="125" cy="175" r="5" transform="rotate(0,125,175)"/><circle cx="125" cy="215" r="5" transform="rotate(0,125,215)"/><path d="M 120 250 v 10 h 5 a 5 5, 0, 0, 0, 0 -10 z" transform="rotate(-90,125,255)"/><path d="M 120 260 v 10 h 5 a 5 5, 0, 0, 0, 0 -10 z" transform="rotate(90,125,265)"/><path d="M 120 290 v 10 h 5 a 5 5, 0, 0, 0, 0 -10 z" transform="rotate(-90,125,295)"/><rect x="120" y="300" width="10" height="10" transform="rotate(0,125,305)"/><path d="M 120 310 v 10 h 5 a 5 5, 0, 0, 0, 0 -10 z" transform="rotate(90,125,315)"/><path d="M 120 330 v 10 h 5 a 5 5, 0, 0, 0, 0 -10 z" transform="rotate(-90,125,335)"/><rect x="120" y="340" width="10" height="10" transform="rotate(0,125,345)"/><path d="M 120 350 v 10 h 5 a 5 5, 0, 0, 0, 0 -10 z" transform="rotate(90,125,355)"/><circle cx="125" cy="375" r="5" transform="rotate(0,125,375)"/><path d="M 120 410 v 10 h 5 a 5 5, 0, 0, 0, 0 -10 z" transform="rotate(-90,125,415)"/><path d="M 120 420 v 10 h 5 a 5 5, 0, 0, 0, 0 -10 z" transform="rotate(90,125,425)"/><circle cx="135" cy="25" r="5" transform="rotate(0,135,25)"/><path d="M 130 40 v 10 h 5 a 5 5, 0, 0, 0, 0 -10 z" transform="rotate(-90,135,45)"/><path d="M 130 50 v 10 h 5 a 5 5, 0, 0, 0, 0 -10 z" transform="rotate(90,135,55)"/><path d="M 130 120 v 10 h 5 a 5 5, 0, 0, 0, 0 -10 z" transform="rotate(-90,135,125)"/><rect x="130" y="130" width="10" height="10" transform="rotate(0,135,135)"/><path d="M 130 140 v 10 h 5 a 5 5, 0, 0, 0, 0 -10 z" transform="rotate(90,135,145)"/><circle cx="135" cy="165" r="5" transform="rotate(0,135,165)"/><path d="M 130 180 v 10 h 5 a 5 5, 0, 0, 0, 0 -10 z" transform="rotate(-90,135,185)"/><path d="M 130 190 v 10 h 5 a 5 5, 0, 0, 0, 0 -10 z" transform="rotate(90,135,195)"/><path d="M 130 220 v 10 h 5 a 5 5, 0, 0, 0, 0 -10 z" transform="rotate(-90,135,225)"/><rect x="130" y="230" width="10" height="10" transform="rotate(0,135,235)"/><rect x="130" y="240" width="10" height="10" transform="rotate(0,135,245)"/><path d="M 130 250 v 10 h 5 a 5 5, 0, 0, 0, 0 -10 z" transform="rotate(90,135,255)"/><circle cx="135" cy="275" r="5" transform="rotate(0,135,275)"/><path d="M 130 300 v 10 h 5 a 5 5, 0, 0, 0, 0 -10 z" transform="rotate(-90,135,305)"/><rect x="130" y="310" width="10" height="10" transform="rotate(0,135,315)"/><rect x="130" y="320" width="10" height="10" transform="rotate(0,135,325)"/><rect x="130" y="330" width="10" height="10" transform="rotate(0,135,335)"/><path d="M 130 340 v 10 h 5 a 5 5, 0, 0, 0, 0 -10 z" transform="rotate(90,135,345)"/><path d="M 130 380 v 10 h 5 a 5 5, 0, 0, 0, 0 -10 z" transform="rotate(-90,135,385)"/><rect x="130" y="390" width="10" height="10" transform="rotate(0,135,395)"/><rect x="130" y="400" width="10" height="10" transform="rotate(0,135,405)"/><rect x="130" y="410" width="10" height="10" transform="rotate(0,135,415)"/><path d="M 130 420 v 10 h 5 a 5 5, 0, 0, 0, 0 -10 z" transform="rotate(90,135,425)"/><path d="M 140 20 v 10 h 5 a 5 5, 0, 0, 0, 0 -10 z" transform="rotate(-90,145,25)"/><path d="M 140 30 v 10 h 5 a 5 5, 0, 0, 0, 0 -10 z" transform="rotate(90,145,35)"/><path d="M 140 50 v 10 h 5 a 5 5, 0, 0, 0, 0 -10 z" transform="rotate(-90,145,55)"/><rect x="140" y="60" width="10" height="10" transform="rotate(0,145,65)"/><rect x="140" y="70" width="10" height="10" transform="rotate(0,145,75)"/><path d="M 140 80 v 10 h 5 a 5 5, 0, 0, 0, 0 -10 z" transform="rotate(90,145,85)"/><path d="M 140 110 v 10 h 5 a 5 5, 0, 0, 0, 0 -10 z" transform="rotate(-90,145,115)"/><path d="M 140 120 v 10 h 5 a 5 5, 0, 0, 0, 0 -10 z" transform="rotate(90,145,125)"/><path d="M 140 140 v 10 h 5 a 5 5, 0, 0, 0, 0 -10 z" transform="rotate(-90,145,145)"/><path d="M 140 150 v 10 h 5 a 5 5, 0, 0, 0, 0 -10 z" transform="rotate(90,145,155)"/><path d="M 140 170 v 10 h 5 a 5 5, 0, 0, 0, 0 -10 z" transform="rotate(-90,145,175)"/><rect x="140" y="180" width="10" height="10" transform="rotate(0,145,185)"/><path d="M 140 190 v 10 h 5 a 5 5, 0, 0, 0, 0 -10 z" transform="rotate(90,145,195)"/><circle cx="145" cy="235" r="5" transform="rotate(0,145,235)"/><path d="M 140 280 v 10 h 5 a 5 5, 0, 0, 0, 0 -10 z" transform="rotate(-90,145,285)"/><path d="M 140 290 v 10 h 5 a 5 5, 0, 0, 0, 0 -10 z" transform="rotate(90,145,295)"/><circle cx="145" cy="325" r="5" transform="rotate(0,145,325)"/><path d="M 140 340 v 10 h 5 a 5 5, 0, 0, 0, 0 -10 z" transform="rotate(-90,145,345)"/><rect x="140" y="350" width="10" height="10" transform="rotate(0,145,355)"/><path d="M 140 360 v 10 h 5 a 5 5, 0, 0, 0, 0 -10 z" transform="rotate(90,145,365)"/><circle cx="145" cy="385" r="5" transform="rotate(0,145,385)"/><path d="M 140 400 v 10 h 5 a 5 5, 0, 0, 0, 0 -10 z" transform="rotate(-90,145,405)"/><rect x="140" y="410" width="10" height="10" transform="rotate(0,145,415)"/><path d="M 140 420 v 10 h 5 a 5 5, 0, 0, 0, 0 -10 z" transform="rotate(90,145,425)"/><path d="M 150 20 v 10 h 5 a 5 5, 0, 0, 0, 0 -10 z" transform="rotate(-90,155,25)"/><rect x="150" y="30" width="10" height="10" transform="rotate(0,155,35)"/><path d="M 150 40 v 10 h 5 a 5 5, 0, 0, 0, 0 -10 z" transform="rotate(90,155,45)"/><path d="M 150 120 v 10 h 5 a 5 5, 0, 0, 0, 0 -10 z" transform="rotate(-90,155,125)"/><path d="M 150 130 v 10 h 5 a 5 5, 0, 0, 0, 0 -10 z" transform="rotate(90,155,135)"/><circle cx="155" cy="165" r="5" transform="rotate(0,155,165)"/><circle cx="155" cy="195" r="5" transform="rotate(0,155,195)"/><circle cx="155" cy="215" r="5" transform="rotate(0,155,215)"/><path d="M 150 240 v 10 h 5 a 5 5, 0, 0, 0, 0 -10 z" transform="rotate(-90,155,245)"/><rect x="150" y="250" width="10" height="10" transform="rotate(0,155,255)"/><rect x="150" y="260" width="10" height="10" transform="rotate(0,155,265)"/><path d="M 150 270 v 10 h 5 a 5 5, 0, 0, 0, 0 -10 z" transform="rotate(90,155,275)"/><path d="M 150 290 v 10 h 5 a 5 5, 0, 0, 0, 0 -10 z" transform="rotate(-90,155,295)"/><path d="M 150 300 v 10 h 5 a 5 5, 0, 0, 0, 0 -10 z" transform="rotate(90,155,305)"/><path d="M 150 330 v 10 h 5 a 5 5, 0, 0, 0, 0 -10 z" transform="rotate(-90,155,335)"/><path d="M 150 340 v 10 h 5 a 5 5, 0, 0, 0, 0 -10 z" transform="rotate(90,155,345)"/><path d="M 150 360 v 10 h 5 a 5 5, 0, 0, 0, 0 -10 z" transform="rotate(-90,155,365)"/><rect x="150" y="370" width="10" height="10" transform="rotate(0,155,375)"/><rect x="150" y="380" width="10" height="10" transform="rotate(0,155,385)"/><path d="M 150 390 v 10 h 5 a 5 5, 0, 0, 0, 0 -10 z" transform="rotate(90,155,395)"/><circle cx="155" cy="425" r="5" transform="rotate(0,155,425)"/><path d="M 160 30 v 10 h 5 a 5 5, 0, 0, 0, 0 -10 z" transform="rotate(-90,165,35)"/><path d="M 160 40 v 10 h 5 a 5 5, 0, 0, 0, 0 -10 z" transform="rotate(90,165,45)"/><circle cx="165" cy="65" r="5" transform="rotate(0,165,65)"/><circle cx="165" cy="85" r="5" transform="rotate(0,165,85)"/><path d="M 160 110 v 10 h 5 a 5 5, 0, 0, 0, 0 -10 z" transform="rotate(-90,165,115)"/><path d="M 160 120 v 10 h 5 a 5 5, 0, 0, 0, 0 -10 z" transform="rotate(90,165,125)"/><circle cx="165" cy="145" r="5" transform="rotate(0,165,145)"/><path d="M 160 190 v 10 h 5 a 5 5, 0, 0, 0, 0 -10 z" transform="rotate(-90,165,195)"/><path d="M 160 200 v 10 h 5 a 5 5, 0, 0, 0, 0 -10 z" transform="rotate(90,165,205)"/><circle cx="165" cy="225" r="5" transform="rotate(0,165,225)"/><circle cx="165" cy="285" r="5" transform="rotate(0,165,285)"/><circle cx="165" cy="305" r="5" transform="rotate(0,165,305)"/><path d="M 160 320 v 10 h 5 a 5 5, 0, 0, 0, 0 -10 z" transform="rotate(-90,165,325)"/><path d="M 160 330 v 10 h 5 a 5 5, 0, 0, 0, 0 -10 z" transform="rotate(90,165,335)"/><path d="M 160 350 v 10 h 5 a 5 5, 0, 0, 0, 0 -10 z" transform="rotate(-90,165,355)"/><rect x="160" y="360" width="10" height="10" transform="rotate(0,165,365)"/><rect x="160" y="370" width="10" height="10" transform="rotate(0,165,375)"/><path d="M 160 380 v 10 h 5 a 5 5, 0, 0, 0, 0 -10 z" transform="rotate(90,165,385)"/><path d="M 160 400 v 10 h 5 a 5 5, 0, 0, 0, 0 -10 z" transform="rotate(-90,165,405)"/><rect x="160" y="410" width="10" height="10" transform="rotate(0,165,415)"/><path d="M 160 420 v 10 h 5 a 5 5, 0, 0, 0, 0 -10 z" transform="rotate(90,165,425)"/><path d="M 170 30 v 10 h 5 a 5 5, 0, 0, 0, 0 -10 z" transform="rotate(-90,175,35)"/><path d="M 170 40 v 10 h 5 a 5 5, 0, 0, 0, 0 -10 z" transform="rotate(90,175,45)"/><path d="M 170 90 v 10 h 5 a 5 5, 0, 0, 0, 0 -10 z" transform="rotate(-90,175,95)"/><rect x="170" y="100" width="10" height="10" transform="rotate(0,175,105)"/><rect x="170" y="110" width="10" height="10" transform="rotate(0,175,115)"/><path d="M 170 120 v 10 h 5 a 5 5, 0, 0, 0, 0 -10 z" transform="rotate(90,175,125)"/><circle cx="175" cy="155" r="5" transform="rotate(0,175,155)"/><circle cx="175" cy="185" r="5" transform="rotate(0,175,185)"/><path d="M 170 200 v 10 h 5 a 5 5, 0, 0, 0, 0 -10 z" transform="rotate(-90,175,205)"/><path d="M 170 210 v 10 h 5 a 5 5, 0, 0, 0, 0 -10 z" transform="rotate(90,175,215)"/><path d="M 170 250 v 10 h 5 a 5 5, 0, 0, 0, 0 -10 z" transform="rotate(-90,175,255)"/><path d="M 170 260 v 10 h 5 a 5 5, 0, 0, 0, 0 -10 z" transform="rotate(90,175,265)"/><path d="M 170 290 v 10 h 5 a 5 5, 0, 0, 0, 0 -10 z" transform="rotate(-90,175,295)"/><rect x="170" y="300" width="10" height="10" transform="rotate(0,175,305)"/><path d="M 170 310 v 10 h 5 a 5 5, 0, 0, 0, 0 -10 z" transform="rotate(90,175,315)"/><path d="M 170 330 v 10 h 5 a 5 5, 0, 0, 0, 0 -10 z" transform="rotate(-90,175,335)"/><path d="M 170 340 v 10 h 5 a 5 5, 0, 0, 0, 0 -10 z" transform="rotate(90,175,345)"/><circle cx="175" cy="395" r="5" transform="rotate(0,175,395)"/><circle cx="185" cy="25" r="5" transform="rotate(0,185,25)"/><path d="M 180 50 v 10 h 5 a 5 5, 0, 0, 0, 0 -10 z" transform="rotate(-90,185,55)"/><rect x="180" y="60" width="10" height="10" transform="rotate(0,185,65)"/><rect x="180" y="70" width="10" height="10" transform="rotate(0,185,75)"/><rect x="180" y="80" width="10" height="10" transform="rotate(0,185,85)"/><rect x="180" y="90" width="10" height="10" transform="rotate(0,185,95)"/><path d="M 180 100 v 10 h 5 a 5 5, 0, 0, 0, 0 -10 z" transform="rotate(90,185,105)"/><circle cx="185" cy="125" r="5" transform="rotate(0,185,125)"/><path d="M 180 140 v 10 h 5 a 5 5, 0, 0, 0, 0 -10 z" transform="rotate(-90,185,145)"/><path d="M 180 150 v 10 h 5 a 5 5, 0, 0, 0, 0 -10 z" transform="rotate(90,185,155)"/><path d="M 180 210 v 10 h 5 a 5 5, 0, 0, 0, 0 -10 z" transform="rotate(-90,185,215)"/><path d="M 180 220 v 10 h 5 a 5 5, 0, 0, 0, 0 -10 z" transform="rotate(90,185,225)"/><circle cx="185" cy="245" r="5" transform="rotate(0,185,245)"/><path d="M 180 260 v 10 h 5 a 5 5, 0, 0, 0, 0 -10 z" transform="rotate(-90,185,265)"/><path d="M 180 270 v 10 h 5 a 5 5, 0, 0, 0, 0 -10 z" transform="rotate(90,185,275)"/><circle cx="185" cy="295" r="5" transform="rotate(0,185,295)"/><circle cx="185" cy="315" r="5" transform="rotate(0,185,315)"/><path d="M 180 330 v 10 h 5 a 5 5, 0, 0, 0, 0 -10 z" transform="rotate(-90,185,335)"/><path d="M 180 340 v 10 h 5 a 5 5, 0, 0, 0, 0 -10 z" transform="rotate(90,185,345)"/><circle cx="185" cy="385" r="5" transform="rotate(0,185,385)"/><circle cx="185" cy="405" r="5" transform="rotate(0,185,405)"/><circle cx="195" cy="25" r="5" transform="rotate(0,195,25)"/><path d="M 190 40 v 10 h 5 a 5 5, 0, 0, 0, 0 -10 z" transform="rotate(-90,195,45)"/><path d="M 190 50 v 10 h 5 a 5 5, 0, 0, 0, 0 -10 z" transform="rotate(90,195,55)"/><circle cx="195" cy="75" r="5" transform="rotate(0,195,75)"/><circle cx="195" cy="95" r="5" transform="rotate(0,195,95)"/><path d="M 190 120 v 10 h 5 a 5 5, 0, 0, 0, 0 -10 z" transform="rotate(-90,195,125)"/><path d="M 190 130 v 10 h 5 a 5 5, 0, 0, 0, 0 -10 z" transform="rotate(90,195,135)"/><circle cx="195" cy="195" r="5" transform="rotate(0,195,195)"/><path d="M 190 210 v 10 h 5 a 5 5, 0, 0, 0, 0 -10 z" transform="rotate(-90,195,215)"/><rect x="190" y="220" width="10" height="10" transform="rotate(0,195,225)"/><path d="M 190 230 v 10 h 5 a 5 5, 0, 0, 0, 0 -10 z" transform="rotate(90,195,235)"/><path d="M 190 250 v 10 h 5 a 5 5, 0, 0, 0, 0 -10 z" transform="rotate(-90,195,255)"/><rect x="190" y="260" width="10" height="10" transform="rotate(0,195,265)"/><rect x="190" y="270" width="10" height="10" transform="rotate(0,195,275)"/><rect x="190" y="280" width="10" height="10" transform="rotate(0,195,285)"/><path d="M 190 290 v 10 h 5 a 5 5, 0, 0, 0, 0 -10 z" transform="rotate(90,195,295)"/><circle cx="195" cy="325" r="5" transform="rotate(0,195,325)"/><circle cx="195" cy="345" r="5" transform="rotate(0,195,345)"/><circle cx="195" cy="405" r="5" transform="rotate(0,195,405)"/><path d="M 200 30 v 10 h 5 a 5 5, 0, 0, 0, 0 -10 z" transform="rotate(-90,205,35)"/><path d="M 200 40 v 10 h 5 a 5 5, 0, 0, 0, 0 -10 z" transform="rotate(90,205,45)"/><path d="M 200 70 v 10 h 5 a 5 5, 0, 0, 0, 0 -10 z" transform="rotate(-90,205,75)"/><path d="M 200 80 v 10 h 5 a 5 5, 0, 0, 0, 0 -10 z" transform="rotate(90,205,85)"/><path d="M 200 130 v 10 h 5 a 5 5, 0, 0, 0, 0 -10 z" transform="rotate(-90,205,135)"/><rect x="200" y="140" width="10" height="10" transform="rotate(0,205,145)"/><rect x="200" y="150" width="10" height="10" transform="rotate(0,205,155)"/><rect x="200" y="160" width="10" height="10" transform="rotate(0,205,165)"/><path d="M 200 170 v 10 h 5 a 5 5, 0, 0, 0, 0 -10 z" transform="rotate(90,205,175)"/><circle cx="205" cy="205" r="5" transform="rotate(0,205,205)"/><path d="M 200 230 v 10 h 5 a 5 5, 0, 0, 0, 0 -10 z" transform="rotate(-90,205,235)"/><path d="M 200 240 v 10 h 5 a 5 5, 0, 0, 0, 0 -10 z" transform="rotate(90,205,245)"/><circle cx="205" cy="265" r="5" transform="rotate(0,205,265)"/><circle cx="205" cy="305" r="5" transform="rotate(0,205,305)"/><path d="M 200 370 v 10 h 5 a 5 5, 0, 0, 0, 0 -10 z" transform="rotate(-90,205,375)"/><path d="M 200 380 v 10 h 5 a 5 5, 0, 0, 0, 0 -10 z" transform="rotate(90,205,385)"/><circle cx="205" cy="425" r="5" transform="rotate(0,205,425)"/><circle cx="215" cy="25" r="5" transform="rotate(0,215,25)"/><circle cx="215" cy="75" r="5" transform="rotate(0,215,75)"/><path d="M 210 100 v 10 h 5 a 5 5, 0, 0, 0, 0 -10 z" transform="rotate(-90,215,105)"/><path d="M 210 110 v 10 h 5 a 5 5, 0, 0, 0, 0 -10 z" transform="rotate(90,215,115)"/><circle cx="215" cy="145" r="5" transform="rotate(0,215,145)"/><path d="M 210 160 v 10 h 5 a 5 5, 0, 0, 0, 0 -10 z" transform="rotate(-90,215,165)"/><rect x="210" y="170" width="10" height="10" transform="rotate(0,215,175)"/><rect x="210" y="180" width="10" height="10" transform="rotate(0,215,185)"/><rect x="210" y="190" width="10" height="10" transform="rotate(0,215,195)"/><path d="M 210 200 v 10 h 5 a 5 5, 0, 0, 0, 0 -10 z" transform="rotate(90,215,205)"/><circle cx="215" cy="265" r="5" transform="rotate(0,215,265)"/><circle cx="215" cy="285" r="5" transform="rotate(0,215,285)"/><circle cx="215" cy="315" r="5" transform="rotate(0,215,315)"/><circle cx="215" cy="335" r="5" transform="rotate(0,215,335)"/><circle cx="215" cy="355" r="5" transform="rotate(0,215,355)"/><path d="M 210 390 v 10 h 5 a 5 5, 0, 0, 0, 0 -10 z" transform="rotate(-90,215,395)"/><rect x="210" y="400" width="10" height="10" transform="rotate(0,215,405)"/><path d="M 210 410 v 10 h 5 a 5 5, 0, 0, 0, 0 -10 z" transform="rotate(90,215,415)"/><path d="M 220 30 v 10 h 5 a 5 5, 0, 0, 0, 0 -10 z" transform="rotate(-90,225,35)"/><rect x="220" y="40" width="10" height="10" transform="rotate(0,225,45)"/><path d="M 220 50 v 10 h 5 a 5 5, 0, 0, 0, 0 -10 z" transform="rotate(90,225,55)"/><path d="M 220 70 v 10 h 5 a 5 5, 0, 0, 0, 0 -10 z" transform="rotate(-90,225,75)"/><rect x="220" y="80" width="10" height="10" transform="rotate(0,225,85)"/><rect x="220" y="90" width="10" height="10" transform="rotate(0,225,95)"/><path d="M 220 100 v 10 h 5 a 5 5, 0, 0, 0, 0 -10 z" transform="rotate(90,225,105)"/><path d="M 220 120 v 10 h 5 a 5 5, 0, 0, 0, 0 -10 z" transform="rotate(-90,225,125)"/><path d="M 220 130 v 10 h 5 a 5 5, 0, 0, 0, 0 -10 z" transform="rotate(90,225,135)"/><path d="M 220 150 v 10 h 5 a 5 5, 0, 0, 0, 0 -10 z" transform="rotate(-90,225,155)"/><rect x="220" y="160" width="10" height="10" transform="rotate(0,225,165)"/><path d="M 220 170 v 10 h 5 a 5 5, 0, 0, 0, 0 -10 z" transform="rotate(90,225,175)"/><circle cx="225" cy="195" r="5" transform="rotate(0,225,195)"/><circle cx="225" cy="225" r="5" transform="rotate(0,225,225)"/><path d="M 220 240 v 10 h 5 a 5 5, 0, 0, 0, 0 -10 z" transform="rotate(-90,225,245)"/><path d="M 220 250 v 10 h 5 a 5 5, 0, 0, 0, 0 -10 z" transform="rotate(90,225,255)"/><circle cx="225" cy="275" r="5" transform="rotate(0,225,275)"/><circle cx="225" cy="295" r="5" transform="rotate(0,225,295)"/><path d="M 220 320 v 10 h 5 a 5 5, 0, 0, 0, 0 -10 z" transform="rotate(-90,225,325)"/><rect x="220" y="330" width="10" height="10" transform="rotate(0,225,335)"/><rect x="220" y="340" width="10" height="10" transform="rotate(0,225,345)"/><path d="M 220 350 v 10 h 5 a 5 5, 0, 0, 0, 0 -10 z" transform="rotate(90,225,355)"/><circle cx="225" cy="375" r="5" transform="rotate(0,225,375)"/><path d="M 220 390 v 10 h 5 a 5 5, 0, 0, 0, 0 -10 z" transform="rotate(-90,225,395)"/><path d="M 220 400 v 10 h 5 a 5 5, 0, 0, 0, 0 -10 z" transform="rotate(90,225,405)"/><circle cx="225" cy="425" r="5" transform="rotate(0,225,425)"/><circle cx="235" cy="35" r="5" transform="rotate(0,235,35)"/><path d="M 230 60 v 10 h 5 a 5 5, 0, 0, 0, 0 -10 z" transform="rotate(-90,235,65)"/><path d="M 230 70 v 10 h 5 a 5 5, 0, 0, 0, 0 -10 z" transform="rotate(90,235,75)"/><circle cx="235" cy="125" r="5" transform="rotate(0,235,125)"/><path d="M 230 150 v 10 h 5 a 5 5, 0, 0, 0, 0 -10 z" transform="rotate(-90,235,155)"/><rect x="230" y="160" width="10" height="10" transform="rotate(0,235,165)"/><rect x="230" y="170" width="10" height="10" transform="rotate(0,235,175)"/><rect x="230" y="180" width="10" height="10" transform="rotate(0,235,185)"/><path d="M 230 190 v 10 h 5 a 5 5, 0, 0, 0, 0 -10 z" transform="rotate(90,235,195)"/><circle cx="235" cy="235" r="5" transform="rotate(0,235,235)"/><path d="M 230 270 v 10 h 5 a 5 5, 0, 0, 0, 0 -10 z" transform="rotate(-90,235,275)"/><rect x="230" y="280" width="10" height="10" transform="rotate(0,235,285)"/><path d="M 230 290 v 10 h 5 a 5 5, 0, 0, 0, 0 -10 z" transform="rotate(90,235,295)"/><circle cx="235" cy="355" r="5" transform="rotate(0,235,355)"/><circle cx="235" cy="405" r="5" transform="rotate(0,235,405)"/><circle cx="235" cy="425" r="5" transform="rotate(0,235,425)"/><path d="M 240 30 v 10 h 5 a 5 5, 0, 0, 0, 0 -10 z" transform="rotate(-90,245,35)"/><rect x="240" y="40" width="10" height="10" transform="rotate(0,245,45)"/><path d="M 240 50 v 10 h 5 a 5 5, 0, 0, 0, 0 -10 z" transform="rotate(90,245,55)"/><path d="M 240 80 v 10 h 5 a 5 5, 0, 0, 0, 0 -10 z" transform="rotate(-90,245,85)"/><path d="M 240 90 v 10 h 5 a 5 5, 0, 0, 0, 0 -10 z" transform="rotate(90,245,95)"/><path d="M 240 110 v 10 h 5 a 5 5, 0, 0, 0, 0 -10 z" transform="rotate(-90,245,115)"/><rect x="240" y="120" width="10" height="10" transform="rotate(0,245,125)"/><path d="M 240 130 v 10 h 5 a 5 5, 0, 0, 0, 0 -10 z" transform="rotate(90,245,135)"/><path d="M 240 150 v 10 h 5 a 5 5, 0, 0, 0, 0 -10 z" transform="rotate(-90,245,155)"/><rect x="240" y="160" width="10" height="10" transform="rotate(0,245,165)"/><rect x="240" y="170" width="10" height="10" transform="rotate(0,245,175)"/><rect x="240" y="180" width="10" height="10" transform="rotate(0,245,185)"/><rect x="240" y="190" width="10" height="10" transform="rotate(0,245,195)"/><rect x="240" y="200" width="10" height="10" transform="rotate(0,245,205)"/><rect x="240" y="210" width="10" height="10" transform="rotate(0,245,215)"/><path d="M 240 220 v 10 h 5 a 5 5, 0, 0, 0, 0 -10 z" transform="rotate(90,245,225)"/><circle cx="245" cy="295" r="5" transform="rotate(0,245,295)"/><path d="M 240 310 v 10 h 5 a 5 5, 0, 0, 0, 0 -10 z" transform="rotate(-90,245,315)"/><path d="M 240 320 v 10 h 5 a 5 5, 0, 0, 0, 0 -10 z" transform="rotate(90,245,325)"/><circle cx="245" cy="345" r="5" transform="rotate(0,245,345)"/><circle cx="245" cy="375" r="5" transform="rotate(0,245,375)"/><path d="M 240 400 v 10 h 5 a 5 5, 0, 0, 0, 0 -10 z" transform="rotate(-90,245,405)"/><path d="M 240 410 v 10 h 5 a 5 5, 0, 0, 0, 0 -10 z" transform="rotate(90,245,415)"/><path d="M 250 20 v 10 h 5 a 5 5, 0, 0, 0, 0 -10 z" transform="rotate(-90,255,25)"/><rect x="250" y="30" width="10" height="10" transform="rotate(0,255,35)"/><rect x="250" y="40" width="10" height="10" transform="rotate(0,255,45)"/><path d="M 250 50 v 10 h 5 a 5 5, 0, 0, 0, 0 -10 z" transform="rotate(90,255,55)"/><circle cx="255" cy="105" r="5" transform="rotate(0,255,105)"/><circle cx="255" cy="135" r="5" transform="rotate(0,255,135)"/><path d="M 250 160 v 10 h 5 a 5 5, 0, 0, 0, 0 -10 z" transform="rotate(-90,255,165)"/><rect x="250" y="170" width="10" height="10" transform="rotate(0,255,175)"/><rect x="250" y="180" width="10" height="10" transform="rotate(0,255,185)"/><path d="M 250 190 v 10 h 5 a 5 5, 0, 0, 0, 0 -10 z" transform="rotate(90,255,195)"/><circle cx="255" cy="235" r="5" transform="rotate(0,255,235)"/><circle cx="255" cy="255" r="5" transform="rotate(0,255,255)"/><circle cx="255" cy="275" r="5" transform="rotate(0,255,275)"/><path d="M 250 290 v 10 h 5 a 5 5, 0, 0, 0, 0 -10 z" transform="rotate(-90,255,295)"/><path d="M 250 300 v 10 h 5 a 5 5, 0, 0, 0, 0 -10 z" transform="rotate(90,255,305)"/><circle cx="255" cy="355" r="5" transform="rotate(0,255,355)"/><circle cx="255" cy="375" r="5" transform="rotate(0,255,375)"/><circle cx="255" cy="415" r="5" transform="rotate(0,255,415)"/><path d="M 260 30 v 10 h 5 a 5 5, 0, 0, 0, 0 -10 z" transform="rotate(-90,265,35)"/><path d="M 260 40 v 10 h 5 a 5 5, 0, 0, 0, 0 -10 z" transform="rotate(90,265,45)"/><circle cx="265" cy="85" r="5" transform="rotate(0,265,85)"/><circle cx="265" cy="105" r="5" transform="rotate(0,265,105)"/><circle cx="265" cy="145" r="5" transform="rotate(0,265,145)"/><circle cx="265" cy="165" r="5" transform="rotate(0,265,165)"/><circle cx="265" cy="185" r="5" transform="rotate(0,265,185)"/><path d="M 260 200 v 10 h 5 a 5 5, 0, 0, 0, 0 -10 z" transform="rotate(-90,265,205)"/><rect x="260" y="210" width="10" height="10" transform="rotate(0,265,215)"/><path d="M 260 220 v 10 h 5 a 5 5, 0, 0, 0, 0 -10 z" transform="rotate(90,265,225)"/><circle cx="265" cy="255" r="5" transform="rotate(0,265,255)"/><circle cx="265" cy="275" r="5" transform="rotate(0,265,275)"/><circle cx="265" cy="295" r="5" transform="rotate(0,265,295)"/><circle cx="265" cy="315" r="5" transform="rotate(0,265,315)"/><path d="M 260 330 v 10 h 5 a 5 5, 0, 0, 0, 0 -10 z" transform="rotate(-90,265,335)"/><rect x="260" y="340" width="10" height="10" transform="rotate(0,265,345)"/><rect x="260" y="350" width="10" height="10" transform="rotate(0,265,355)"/><rect x="260" y="360" width="10" height="10" transform="rotate(0,265,365)"/><path d="M 260 370 v 10 h 5 a 5 5, 0, 0, 0, 0 -10 z" transform="rotate(90,265,375)"/><path d="M 260 400 v 10 h 5 a 5 5, 0, 0, 0, 0 -10 z" transform="rotate(-90,265,405)"/><rect x="260" y="410" width="10" height="10" transform="rotate(0,265,415)"/><path d="M 260 420 v 10 h 5 a 5 5, 0, 0, 0, 0 -10 z" transform="rotate(90,265,425)"/><path d="M 270 20 v 10 h 5 a 5 5, 0, 0, 0, 0 -10 z" transform="rotate(-90,275,25)"/><rect x="270" y="30" width="10" height="10" transform="rotate(0,275,35)"/><path d="M 270 40 v 10 h 5 a 5 5, 0, 0, 0, 0 -10 z" transform="rotate(90,275,45)"/><circle cx="275" cy="105" r="5" transform="rotate(0,275,105)"/><circle cx="275" cy="125" r="5" transform="rotate(0,275,125)"/><circle cx="275" cy="145" r="5" transform="rotate(0,275,145)"/><path d="M 270 260 v 10 h 5 a 5 5, 0, 0, 0, 0 -10 z" transform="rotate(-90,275,265)"/><rect x="270" y="270" width="10" height="10" transform="rotate(0,275,275)"/><path d="M 270 280 v 10 h 5 a 5 5, 0, 0, 0, 0 -10 z" transform="rotate(90,275,285)"/><circle cx="275" cy="305" r="5" transform="rotate(0,275,305)"/><path d="M 270 350 v 10 h 5 a 5 5, 0, 0, 0, 0 -10 z" transform="rotate(-90,275,355)"/><rect x="270" y="360" width="10" height="10" transform="rotate(0,275,365)"/><path d="M 270 370 v 10 h 5 a 5 5, 0, 0, 0, 0 -10 z" transform="rotate(90,275,375)"/><circle cx="275" cy="405" r="5" transform="rotate(0,275,405)"/><circle cx="275" cy="425" r="5" transform="rotate(0,275,425)"/><circle cx="285" cy="35" r="5" transform="rotate(0,285,35)"/><circle cx="285" cy="55" r="5" transform="rotate(0,285,55)"/><path d="M 280 70 v 10 h 5 a 5 5, 0, 0, 0, 0 -10 z" transform="rotate(-90,285,75)"/><path d="M 280 80 v 10 h 5 a 5 5, 0, 0, 0, 0 -10 z" transform="rotate(90,285,85)"/><circle cx="285" cy="105" r="5" transform="rotate(0,285,105)"/><circle cx="285" cy="155" r="5" transform="rotate(0,285,155)"/><path d="M 280 180 v 10 h 5 a 5 5, 0, 0, 0, 0 -10 z" transform="rotate(-90,285,185)"/><path d="M 280 190 v 10 h 5 a 5 5, 0, 0, 0, 0 -10 z" transform="rotate(90,285,195)"/><circle cx="285" cy="215" r="5" transform="rotate(0,285,215)"/><circle cx="285" cy="235" r="5" transform="rotate(0,285,235)"/><path d="M 280 250 v 10 h 5 a 5 5, 0, 0, 0, 0 -10 z" transform="rotate(-90,285,255)"/><rect x="280" y="260" width="10" height="10" transform="rotate(0,285,265)"/><path d="M 280 270 v 10 h 5 a 5 5, 0, 0, 0, 0 -10 z" transform="rotate(90,285,275)"/><path d="M 280 330 v 10 h 5 a 5 5, 0, 0, 0, 0 -10 z" transform="rotate(-90,285,335)"/><rect x="280" y="340" width="10" height="10" transform="rotate(0,285,345)"/><rect x="280" y="350" width="10" height="10" transform="rotate(0,285,355)"/><path d="M 280 360 v 10 h 5 a 5 5, 0, 0, 0, 0 -10 z" transform="rotate(90,285,365)"/><circle cx="285" cy="385" r="5" transform="rotate(0,285,385)"/><path d="M 280 410 v 10 h 5 a 5 5, 0, 0, 0, 0 -10 z" transform="rotate(-90,285,415)"/><path d="M 280 420 v 10 h 5 a 5 5, 0, 0, 0, 0 -10 z" transform="rotate(90,285,425)"/><path d="M 290 30 v 10 h 5 a 5 5, 0, 0, 0, 0 -10 z" transform="rotate(-90,295,35)"/><path d="M 290 40 v 10 h 5 a 5 5, 0, 0, 0, 0 -10 z" transform="rotate(90,295,45)"/><circle cx="295" cy="75" r="5" transform="rotate(0,295,75)"/><path d="M 290 90 v 10 h 5 a 5 5, 0, 0, 0, 0 -10 z" transform="rotate(-90,295,95)"/><path d="M 290 100 v 10 h 5 a 5 5, 0, 0, 0, 0 -10 z" transform="rotate(90,295,105)"/><path d="M 290 120 v 10 h 5 a 5 5, 0, 0, 0, 0 -10 z" transform="rotate(-90,295,125)"/><rect x="290" y="130" width="10" height="10" transform="rotate(0,295,135)"/><rect x="290" y="140" width="10" height="10" transform="rotate(0,295,145)"/><rect x="290" y="150" width="10" height="10" transform="rotate(0,295,155)"/><rect x="290" y="160" width="10" height="10" transform="rotate(0,295,165)"/><rect x="290" y="170" width="10" height="10" transform="rotate(0,295,175)"/><path d="M 290 180 v 10 h 5 a 5 5, 0, 0, 0, 0 -10 z" transform="rotate(90,295,185)"/><path d="M 290 200 v 10 h 5 a 5 5, 0, 0, 0, 0 -10 z" transform="rotate(-90,295,205)"/><rect x="290" y="210" width="10" height="10" transform="rotate(0,295,215)"/><path d="M 290 220 v 10 h 5 a 5 5, 0, 0, 0, 0 -10 z" transform="rotate(90,295,225)"/><path d="M 290 240 v 10 h 5 a 5 5, 0, 0, 0, 0 -10 z" transform="rotate(-90,295,245)"/><path d="M 290 250 v 10 h 5 a 5 5, 0, 0, 0, 0 -10 z" transform="rotate(90,295,255)"/><path d="M 290 280 v 10 h 5 a 5 5, 0, 0, 0, 0 -10 z" transform="rotate(-90,295,285)"/><rect x="290" y="290" width="10" height="10" transform="rotate(0,295,295)"/><rect x="290" y="300" width="10" height="10" transform="rotate(0,295,305)"/><path d="M 290 310 v 10 h 5 a 5 5, 0, 0, 0, 0 -10 z" transform="rotate(90,295,315)"/><circle cx="295" cy="365" r="5" transform="rotate(0,295,365)"/><circle cx="295" cy="385" r="5" transform="rotate(0,295,385)"/><path d="M 290 400 v 10 h 5 a 5 5, 0, 0, 0, 0 -10 z" transform="rotate(-90,295,405)"/><rect x="290" y="410" width="10" height="10" transform="rotate(0,295,415)"/><path d="M 290 420 v 10 h 5 a 5 5, 0, 0, 0, 0 -10 z" transform="rotate(90,295,425)"/><path d="M 300 70 v 10 h 5 a 5 5, 0, 0, 0, 0 -10 z" transform="rotate(-90,305,75)"/><rect x="300" y="80" width="10" height="10" transform="rotate(0,305,85)"/><rect x="300" y="90" width="10" height="10" transform="rotate(0,305,95)"/><rect x="300" y="100" width="10" height="10" transform="rotate(0,305,105)"/><path d="M 300 110 v 10 h 5 a 5 5, 0, 0, 0, 0 -10 z" transform="rotate(90,305,115)"/><path d="M 300 130 v 10 h 5 a 5 5, 0, 0, 0, 0 -10 z" transform="rotate(-90,305,135)"/><path d="M 300 140 v 10 h 5 a 5 5, 0, 0, 0, 0 -10 z" transform="rotate(90,305,145)"/><circle cx="305" cy="165" r="5" transform="rotate(0,305,165)"/><circle cx="305" cy="195" r="5" transform="rotate(0,305,195)"/><circle cx="305" cy="215" r="5" transform="rotate(0,305,215)"/><path d="M 300 230 v 10 h 5 a 5 5, 0, 0, 0, 0 -10 z" transform="rotate(-90,305,235)"/><rect x="300" y="240" width="10" height="10" transform="rotate(0,305,245)"/><rect x="300" y="250" width="10" height="10" transform="rotate(0,305,255)"/><path d="M 300 260 v 10 h 5 a 5 5, 0, 0, 0, 0 -10 z" transform="rotate(90,305,265)"/><circle cx="305" cy="295" r="5" transform="rotate(0,305,295)"/><circle cx="305" cy="315" r="5" transform="rotate(0,305,315)"/><path d="M 300 330 v 10 h 5 a 5 5, 0, 0, 0, 0 -10 z" transform="rotate(-90,305,335)"/><rect x="300" y="340" width="10" height="10" transform="rotate(0,305,345)"/><path d="M 300 350 v 10 h 5 a 5 5, 0, 0, 0, 0 -10 z" transform="rotate(90,305,355)"/><path d="M 300 390 v 10 h 5 a 5 5, 0, 0, 0, 0 -10 z" transform="rotate(-90,305,395)"/><path d="M 300 400 v 10 h 5 a 5 5, 0, 0, 0, 0 -10 z" transform="rotate(90,305,405)"/><circle cx="305" cy="425" r="5" transform="rotate(0,305,425)"/><path d="M 310 100 v 10 h 5 a 5 5, 0, 0, 0, 0 -10 z" transform="rotate(-90,315,105)"/><path d="M 310 110 v 10 h 5 a 5 5, 0, 0, 0, 0 -10 z" transform="rotate(90,315,115)"/><path d="M 310 150 v 10 h 5 a 5 5, 0, 0, 0, 0 -10 z" transform="rotate(-90,315,155)"/><path d="M 310 160 v 10 h 5 a 5 5, 0, 0, 0, 0 -10 z" transform="rotate(90,315,165)"/><path d="M 310 180 v 10 h 5 a 5 5, 0, 0, 0, 0 -10 z" transform="rotate(-90,315,185)"/><rect x="310" y="190" width="10" height="10" transform="rotate(0,315,195)"/><rect x="310" y="200" width="10" height="10" transform="rotate(0,315,205)"/><path d="M 310 210 v 10 h 5 a 5 5, 0, 0, 0, 0 -10 z" transform="rotate(90,315,215)"/><path d="M 310 260 v 10 h 5 a 5 5, 0, 0, 0, 0 -10 z" transform="rotate(-90,315,265)"/><rect x="310" y="270" width="10" height="10" transform="rotate(0,315,275)"/><path d="M 310 280 v 10 h 5 a 5 5, 0, 0, 0, 0 -10 z" transform="rotate(90,315,285)"/><circle cx="315" cy="305" r="5" transform="rotate(0,315,305)"/><circle cx="315" cy="345" r="5" transform="rotate(0,315,345)"/><circle cx="315" cy="405" r="5" transform="rotate(0,315,405)"/><circle cx="315" cy="425" r="5" transform="rotate(0,315,425)"/><path d="M 320 20 v 10 h 5 a 5 5, 0, 0, 0, 0 -10 z" transform="rotate(-90,325,25)"/><path d="M 320 30 v 10 h 5 a 5 5, 0, 0, 0, 0 -10 z" transform="rotate(90,325,35)"/><circle cx="325" cy="55" r="5" transform="rotate(0,325,55)"/><circle cx="325" cy="85" r="5" transform="rotate(0,325,85)"/><path d="M 320 110 v 10 h 5 a 5 5, 0, 0, 0, 0 -10 z" transform="rotate(-90,325,115)"/><path d="M 320 120 v 10 h 5 a 5 5, 0, 0, 0, 0 -10 z" transform="rotate(90,325,125)"/><circle cx="325" cy="155" r="5" transform="rotate(0,325,155)"/><circle cx="325" cy="215" r="5" transform="rotate(0,325,215)"/><circle cx="325" cy="235" r="5" transform="rotate(0,325,235)"/><circle cx="325" cy="295" r="5" transform="rotate(0,325,295)"/><circle cx="325" cy="315" r="5" transform="rotate(0,325,315)"/><circle cx="325" cy="365" r="5" transform="rotate(0,325,365)"/><circle cx="325" cy="385" r="5" transform="rotate(0,325,385)"/><circle cx="325" cy="405" r="5" transform="rotate(0,325,405)"/><circle cx="335" cy="25" r="5" transform="rotate(0,335,25)"/><circle cx="335" cy="45" r="5" transform="rotate(0,335,45)"/><circle cx="335" cy="65" r="5" transform="rotate(0,335,65)"/><circle cx="335" cy="115" r="5" transform="rotate(0,335,115)"/><path d="M 330 160 v 10 h 5 a 5 5, 0, 0, 0, 0 -10 z" transform="rotate(-90,335,165)"/><rect x="330" y="170" width="10" height="10" transform="rotate(0,335,175)"/><rect x="330" y="180" width="10" height="10" transform="rotate(0,335,185)"/><path d="M 330 190 v 10 h 5 a 5 5, 0, 0, 0, 0 -10 z" transform="rotate(90,335,195)"/><circle cx="335" cy="235" r="5" transform="rotate(0,335,235)"/><path d="M 330 260 v 10 h 5 a 5 5, 0, 0, 0, 0 -10 z" transform="rotate(-90,335,265)"/><path d="M 330 270 v 10 h 5 a 5 5, 0, 0, 0, 0 -10 z" transform="rotate(90,335,275)"/><circle cx="335" cy="295" r="5" transform="rotate(0,335,295)"/><circle cx="335" cy="365" r="5" transform="rotate(0,335,365)"/><circle cx="335" cy="425" r="5" transform="rotate(0,335,425)"/><circle cx="345" cy="25" r="5" transform="rotate(0,345,25)"/><path d="M 340 40 v 10 h 5 a 5 5, 0, 0, 0, 0 -10 z" transform="rotate(-90,345,45)"/><rect x="340" y="50" width="10" height="10" transform="rotate(0,345,55)"/><rect x="340" y="60" width="10" height="10" transform="rotate(0,345,65)"/><rect x="340" y="70" width="10" height="10" transform="rotate(0,345,75)"/><path d="M 340 80 v 10 h 5 a 5 5, 0, 0, 0, 0 -10 z" transform="rotate(90,345,85)"/><path d="M 340 100 v 10 h 5 a 5 5, 0, 0, 0, 0 -10 z" transform="rotate(-90,345,105)"/><rect x="340" y="110" width="10" height="10" transform="rotate(0,345,115)"/><path d="M 340 120 v 10 h 5 a 5 5, 0, 0, 0, 0 -10 z" transform="rotate(90,345,125)"/><circle cx="345" cy="155" r="5" transform="rotate(0,345,155)"/><circle cx="345" cy="175" r="5" transform="rotate(0,345,175)"/><circle cx="345" cy="195" r="5" transform="rotate(0,345,195)"/><circle cx="345" cy="235" r="5" transform="rotate(0,345,235)"/><path d="M 340 250 v 10 h 5 a 5 5, 0, 0, 0, 0 -10 z" transform="rotate(-90,345,255)"/><rect x="340" y="260" width="10" height="10" transform="rotate(0,345,265)"/><path d="M 340 270 v 10 h 5 a 5 5, 0, 0, 0, 0 -10 z" transform="rotate(90,345,275)"/><circle cx="345" cy="305" r="5" transform="rotate(0,345,305)"/><circle cx="345" cy="325" r="5" transform="rotate(0,345,325)"/><path d="M 340 340 v 10 h 5 a 5 5, 0, 0, 0, 0 -10 z" transform="rotate(-90,345,345)"/><rect x="340" y="350" width="10" height="10" transform="rotate(0,345,355)"/><rect x="340" y="360" width="10" height="10" transform="rotate(0,345,365)"/><rect x="340" y="370" width="10" height="10" transform="rotate(0,345,375)"/><rect x="340" y="380" width="10" height="10" transform="rotate(0,345,385)"/><path d="M 340 390 v 10 h 5 a 5 5, 0, 0, 0, 0 -10 z" transform="rotate(90,345,395)"/><circle cx="345" cy="415" r="5" transform="rotate(0,345,415)"/><path d="M 350 140 v 10 h 5 a 5 5, 0, 0, 0, 0 -10 z" transform="rotate(-90,355,145)"/><rect x="350" y="150" width="10" height="10" transform="rotate(0,355,155)"/><rect x="350" y="160" width="10" height="10" transform="rotate(0,355,165)"/><rect x="350" y="170" width="10" height="10" transform="rotate(0,355,175)"/><path d="M 350 180 v 10 h 5 a 5 5, 0, 0, 0, 0 -10 z" transform="rotate(90,355,185)"/><circle cx="355" cy="205" r="5" transform="rotate(0,355,205)"/><circle cx="355" cy="295" r="5" transform="rotate(0,355,295)"/><path d="M 350 310 v 10 h 5 a 5 5, 0, 0, 0, 0 -10 z" transform="rotate(-90,355,315)"/><rect x="350" y="320" width="10" height="10" transform="rotate(0,355,325)"/><rect x="350" y="330" width="10" height="10" transform="rotate(0,355,335)"/><path d="M 350 340 v 10 h 5 a 5 5, 0, 0, 0, 0 -10 z" transform="rotate(90,355,345)"/><path d="M 350 380 v 10 h 5 a 5 5, 0, 0, 0, 0 -10 z" transform="rotate(-90,355,385)"/><rect x="350" y="390" width="10" height="10" transform="rotate(0,355,395)"/><rect x="350" y="400" width="10" height="10" transform="rotate(0,355,405)"/><rect x="350" y="410" width="10" height="10" transform="rotate(0,355,415)"/><path d="M 350 420 v 10 h 5 a 5 5, 0, 0, 0, 0 -10 z" transform="rotate(90,355,425)"/><path d="M 360 110 v 10 h 5 a 5 5, 0, 0, 0, 0 -10 z" transform="rotate(-90,365,115)"/><path d="M 360 120 v 10 h 5 a 5 5, 0, 0, 0, 0 -10 z" transform="rotate(90,365,125)"/><circle cx="365" cy="175" r="5" transform="rotate(0,365,175)"/><circle cx="365" cy="195" r="5" transform="rotate(0,365,195)"/><circle cx="365" cy="215" r="5" transform="rotate(0,365,215)"/><circle cx="365" cy="235" r="5" transform="rotate(0,365,235)"/><path d="M 360 270 v 10 h 5 a 5 5, 0, 0, 0, 0 -10 z" transform="rotate(-90,365,275)"/><rect x="360" y="280" width="10" height="10" transform="rotate(0,365,285)"/><rect x="360" y="290" width="10" height="10" transform="rotate(0,365,295)"/><path d="M 360 300 v 10 h 5 a 5 5, 0, 0, 0, 0 -10 z" transform="rotate(90,365,305)"/><path d="M 360 320 v 10 h 5 a 5 5, 0, 0, 0, 0 -10 z" transform="rotate(-90,365,325)"/><rect x="360" y="330" width="10" height="10" transform="rotate(0,365,335)"/><path d="M 360 340 v 10 h 5 a 5 5, 0, 0, 0, 0 -10 z" transform="rotate(90,365,345)"/><circle cx="365" cy="365" r="5" transform="rotate(0,365,365)"/><circle cx="365" cy="385" r="5" transform="rotate(0,365,385)"/><circle cx="365" cy="405" r="5" transform="rotate(0,365,405)"/><path d="M 370 100 v 10 h 5 a 5 5, 0, 0, 0, 0 -10 z" transform="rotate(-90,375,105)"/><rect x="370" y="110" width="10" height="10" transform="rotate(0,375,115)"/><rect x="370" y="120" width="10" height="10" transform="rotate(0,375,125)"/><rect x="370" y="130" width="10" height="10" transform="rotate(0,375,135)"/><rect x="370" y="140" width="10" height="10" transform="rotate(0,375,145)"/><rect x="370" y="150" width="10" height="10" transform="rotate(0,375,155)"/><path d="M 370 160 v 10 h 5 a 5 5, 0, 0, 0, 0 -10 z" transform="rotate(90,375,165)"/><path d="M 370 210 v 10 h 5 a 5 5, 0, 0, 0, 0 -10 z" transform="rotate(-90,375,215)"/><rect x="370" y="220" width="10" height="10" transform="rotate(0,375,225)"/><path d="M 370 230 v 10 h 5 a 5 5, 0, 0, 0, 0 -10 z" transform="rotate(90,375,235)"/><path d="M 370 270 v 10 h 5 a 5 5, 0, 0, 0, 0 -10 z" transform="rotate(-90,375,275)"/><path d="M 370 280 v 10 h 5 a 5 5, 0, 0, 0, 0 -10 z" transform="rotate(90,375,285)"/><circle cx="375" cy="315" r="5" transform="rotate(0,375,315)"/><path d="M 370 330 v 10 h 5 a 5 5, 0, 0, 0, 0 -10 z" transform="rotate(-90,375,335)"/><path d="M 370 340 v 10 h 5 a 5 5, 0, 0, 0, 0 -10 z" transform="rotate(90,375,345)"/><circle cx="375" cy="385" r="5" transform="rotate(0,375,385)"/><path d="M 370 400 v 10 h 5 a 5 5, 0, 0, 0, 0 -10 z" transform="rotate(-90,375,405)"/><path d="M 370 410 v 10 h 5 a 5 5, 0, 0, 0, 0 -10 z" transform="rotate(90,375,415)"/><path d="M 380 100 v 10 h 5 a 5 5, 0, 0, 0, 0 -10 z" transform="rotate(-90,385,105)"/><path d="M 380 110 v 10 h 5 a 5 5, 0, 0, 0, 0 -10 z" transform="rotate(90,385,115)"/><path d="M 380 150 v 10 h 5 a 5 5, 0, 0, 0, 0 -10 z" transform="rotate(-90,385,155)"/><path d="M 380 160 v 10 h 5 a 5 5, 0, 0, 0, 0 -10 z" transform="rotate(90,385,165)"/><path d="M 380 190 v 10 h 5 a 5 5, 0, 0, 0, 0 -10 z" transform="rotate(-90,385,195)"/><rect x="380" y="200" width="10" height="10" transform="rotate(0,385,205)"/><path d="M 380 210 v 10 h 5 a 5 5, 0, 0, 0, 0 -10 z" transform="rotate(90,385,215)"/><circle cx="385" cy="235" r="5" transform="rotate(0,385,235)"/><circle cx="385" cy="255" r="5" transform="rotate(0,385,255)"/><path d="M 380 270 v 10 h 5 a 5 5, 0, 0, 0, 0 -10 z" transform="rotate(-90,385,275)"/><path d="M 380 280 v 10 h 5 a 5 5, 0, 0, 0, 0 -10 z" transform="rotate(90,385,285)"/><path d="M 380 310 v 10 h 5 a 5 5, 0, 0, 0, 0 -10 z" transform="rotate(-90,385,315)"/><rect x="380" y="320" width="10" height="10" transform="rotate(0,385,325)"/><rect x="380" y="330" width="10" height="10" transform="rotate(0,385,335)"/><rect x="380" y="340" width="10" height="10" transform="rotate(0,385,345)"/><rect x="380" y="350" width="10" height="10" transform="rotate(0,385,355)"/><rect x="380" y="360" width="10" height="10" transform="rotate(0,385,365)"/><rect x="380" y="370" width="10" height="10" transform="rotate(0,385,375)"/><path d="M 380 380 v 10 h 5 a 5 5, 0, 0, 0, 0 -10 z" transform="rotate(90,385,385)"/><path d="M 380 400 v 10 h 5 a 5 5, 0, 0, 0, 0 -10 z" transform="rotate(-90,385,405)"/><path d="M 380 410 v 10 h 5 a 5 5, 0, 0, 0, 0 -10 z" transform="rotate(90,385,415)"/><circle cx="395" cy="125" r="5" transform="rotate(0,395,125)"/><circle cx="395" cy="155" r="5" transform="rotate(0,395,155)"/><circle cx="395" cy="195" r="5" transform="rotate(0,395,195)"/><circle cx="395" cy="235" r="5" transform="rotate(0,395,235)"/><circle cx="395" cy="255" r="5" transform="rotate(0,395,255)"/><circle cx="395" cy="295" r="5" transform="rotate(0,395,295)"/><circle cx="395" cy="335" r="5" transform="rotate(0,395,335)"/><path d="M 390 370 v 10 h 5 a 5 5, 0, 0, 0, 0 -10 z" transform="rotate(-90,395,375)"/><rect x="390" y="380" width="10" height="10" transform="rotate(0,395,385)"/><rect x="390" y="390" width="10" height="10" transform="rotate(0,395,395)"/><path d="M 390 400 v 10 h 5 a 5 5, 0, 0, 0, 0 -10 z" transform="rotate(90,395,405)"/><path d="M 400 110 v 10 h 5 a 5 5, 0, 0, 0, 0 -10 z" transform="rotate(-90,405,115)"/><path d="M 400 120 v 10 h 5 a 5 5, 0, 0, 0, 0 -10 z" transform="rotate(90,405,125)"/><path d="M 400 140 v 10 h 5 a 5 5, 0, 0, 0, 0 -10 z" transform="rotate(-90,405,145)"/><path d="M 400 150 v 10 h 5 a 5 5, 0, 0, 0, 0 -10 z" transform="rotate(90,405,155)"/><path d="M 400 180 v 10 h 5 a 5 5, 0, 0, 0, 0 -10 z" transform="rotate(-90,405,185)"/><rect x="400" y="190" width="10" height="10" transform="rotate(0,405,195)"/><path d="M 400 200 v 10 h 5 a 5 5, 0, 0, 0, 0 -10 z" transform="rotate(90,405,205)"/><circle cx="405" cy="225" r="5" transform="rotate(0,405,225)"/><circle cx="405" cy="265" r="5" transform="rotate(0,405,265)"/><circle cx="405" cy="285" r="5" transform="rotate(0,405,285)"/><circle cx="405" cy="305" r="5" transform="rotate(0,405,305)"/><circle cx="405" cy="325" r="5" transform="rotate(0,405,325)"/><circle cx="405" cy="345" r="5" transform="rotate(0,405,345)"/><circle cx="405" cy="385" r="5" transform="rotate(0,405,385)"/><circle cx="405" cy="425" r="5" transform="rotate(0,405,425)"/><circle cx="415" cy="115" r="5" transform="rotate(0,415,115)"/><circle cx="415" cy="155" r="5" transform="rotate(0,415,155)"/><path d="M 410 180 v 10 h 5 a 5 5, 0, 0, 0, 0 -10 z" transform="rotate(-90,415,185)"/><rect x="410" y="190" width="10" height="10" transform="rotate(0,415,195)"/><rect x="410" y="200" width="10" height="10" transform="rotate(0,415,205)"/><rect x="410" y="210" width="10" height="10" transform="rotate(0,415,215)"/><path d="M 410 220 v 10 h 5 a 5 5, 0, 0, 0, 0 -10 z" transform="rotate(90,415,225)"/><circle cx="415" cy="275" r="5" transform="rotate(0,415,275)"/><path d="M 410 300 v 10 h 5 a 5 5, 0, 0, 0, 0 -10 z" transform="rotate(-90,415,305)"/><path d="M 410 310 v 10 h 5 a 5 5, 0, 0, 0, 0 -10 z" transform="rotate(90,415,315)"/><path d="M 410 340 v 10 h 5 a 5 5, 0, 0, 0, 0 -10 z" transform="rotate(-90,415,345)"/><rect x="410" y="350" width="10" height="10" transform="rotate(0,415,355)"/><path d="M 410 360 v 10 h 5 a 5 5, 0, 0, 0, 0 -10 z" transform="rotate(90,415,365)"/><circle cx="415" cy="385" r="5" transform="rotate(0,415,385)"/><path d="M 410 400 v 10 h 5 a 5 5, 0, 0, 0, 0 -10 z" transform="rotate(-90,415,405)"/><path d="M 410 410 v 10 h 5 a 5 5, 0, 0, 0, 0 -10 z" transform="rotate(90,415,415)"/><path d="M 420 100 v 10 h 5 a 5 5, 0, 0, 0, 0 -10 z" transform="rotate(-90,425,105)"/><path d="M 420 110 v 10 h 5 a 5 5, 0, 0, 0, 0 -10 z" transform="rotate(90,425,115)"/><path d="M 420 130 v 10 h 5 a 5 5, 0, 0, 0, 0 -10 z" transform="rotate(-90,425,135)"/><rect x="420" y="140" width="10" height="10" transform="rotate(0,425,145)"/><path d="M 420 150 v 10 h 5 a 5 5, 0, 0, 0, 0 -10 z" transform="rotate(90,425,155)"/><circle cx="425" cy="195" r="5" transform="rotate(0,425,195)"/><circle cx="425" cy="215" r="5" transform="rotate(0,425,215)"/><circle cx="425" cy="235" r="5" transform="rotate(0,425,235)"/><path d="M 420 260 v 10 h 5 a 5 5, 0, 0, 0, 0 -10 z" transform="rotate(-90,425,265)"/><path d="M 420 270 v 10 h 5 a 5 5, 0, 0, 0, 0 -10 z" transform="rotate(90,425,275)"/><circle cx="425" cy="295" r="5" transform="rotate(0,425,295)"/><circle cx="425" cy="315" r="5" transform="rotate(0,425,315)"/><circle cx="425" cy="335" r="5" transform="rotate(0,425,335)"/><circle cx="425" cy="355" r="5" transform="rotate(0,425,355)"/><circle cx="425" cy="395" r="5" transform="rotate(0,425,395)"/></g></mask><mask id="mask-corners-square-color-0-0-3-3" maskUnits="userSpaceOnUse" x="0" y="0" width="450" height="450"><g fill="#fff"><path clip-rule="evenodd" d="M 20 45 v 20 a 25 25, 0, 0, 0, 25 25 h 20 a 25 25, 0, 0, 0, 25 -25 v -20 a 25 25, 0, 0, 0, -25 -25 h -20 a 25 25, 0, 0, 0, -25 25 z M 45 30 h 20 a 15 15, 0, 0, 1, 15 15 v 20 a 15 15, 0, 0, 1, -15 15 h -20 a 15 15, 0, 0, 1, -15 -15 v -20 a 15 15, 0, 0, 1, 15 -15 z" transform="rotate(0,55,55)"/></g></mask><mask id="mask-corners-dot-color-0-0-3-3" maskUnits="userSpaceOnUse" x="0" y="0" width="450" height="450"><g fill="#fff"><circle cx="55" cy="55" r="14.2857143" transform="rotate(0,55,55)"/></g></mask><mask id="mask-corners-square-color-1-0-3-3" maskUnits="userSpaceOnUse" x="0" y="0" width="450" height="450"><g fill="#fff"><path clip-rule="evenodd" d="M 360 45 v 20 a 25 25, 0, 0, 0, 25 25 h 20 a 25 25, 0, 0, 0, 25 -25 v -20 a 25 25, 0, 0, 0, -25 -25 h -20 a 25 25, 0, 0, 0, -25 25 z M 385 30 h 20 a 15 15, 0, 0, 1, 15 15 v 20 a 15 15, 0, 0, 1, -15 15 h -20 a 15 15, 0, 0, 1, -15 -15 v -20 a 15 15, 0, 0, 1, 15 -15 z" transform="rotate(90,395,55)"/></g></mask><mask id="mask-corners-dot-color-1-0-3-3" maskUnits="userSpaceOnUse" x="0" y="0" width="450" height="450"><g fill="#fff"><circle cx="395" cy="55" r="14.2857143" transform="rotate(90,395,55)"/></g></mask><mask id="mask-corners-square-color-0-1-3-3" maskUnits="userSpaceOnUse" x="0" y="0" width="450" height="450"><g fill="#fff"><path clip-rule="evenodd" d="M 20 385 v 20 a 25 25, 0, 0, 0, 25 25 h 20 a 25 25, 0, 0, 0, 25 -25 v -20 a 25 25, 0, 0, 0, -25 -25 h -20 a 25 25, 0, 0, 0, -25 25 z M 45 370 h 20 a 15 15, 0, 0, 1, 15 15 v 20 a 15 15, 0, 0, 1, -15 15 h -20 a 15 15, 0, 0, 1, -15 -15 v -20 a 15 15, 0, 0, 1, 15 -15 z" transform="rotate(-90,55,395)"/></g></mask><mask id="mask-corners-dot-color-0-1-3-3" maskUnits="userSpaceOnUse" x="0" y="0" width="450" height="450"><g fill="#fff"><circle cx="55" cy="395" r="14.2857143" transform="rotate(-90,55,395)"/></g></mask></defs><rect x="0" y="0" height="450" width="450" style="mask:url(#mask-background-color-3-3)" fill="#ffffff"/><g><g><rect x="20" y="20" height="410" width="410" style="mask:url(#mask-dot-color-3-3)" fill="#000000"/><rect x="20" y="20" height="70" width="70" style="mask:url(#mask-corners-square-color-0-0-3-3)" fill="#000000"/><rect x="40" y="40" height="30" width="30" style="mask:url(#mask-corners-dot-color-0-0-3-3)" fill="#000000"/><rect x="360" y="20" height="70" width="70" style="mask:url(#mask-corners-square-color-1-0-3-3)" fill="#000000"/><rect x="380" y="40" height="30" width="30" style="mask:url(#mask-corners-dot-color-1-0-3-3)" fill="#000000"/><rect x="20" y="360" height="70" width="70" style="mask:url(#mask-corners-square-color-0-1-3-3)" fill="#000000"/><rect x="40" y="380" height="30" width="30" style="mask:url(#mask-corners-dot-color-0-1-3-3)" fill="#000000"/></g></g></svg>