<?xml version="1.0" standalone="no"?>
<svg width="410" height="410" viewBox="0 0 410 410" xmlns="http://www.w3.org/2000/svg"><defs><mask id="mask-background-color-0-0" maskUnits="userSpaceOnUse" x="0" y="0" width="410" height="410"><g fill="#fff"><rect x="0" y="0" width="410" height="410" rx="0"/></g></mask><mask id="mask-dot-color-0-0" maskUnits="userSpaceOnUse" x="0" y="0" width="410" height="410"><g fill="#fff"><path d="M 20 110 v 10 h 5 a 5 5, 0, 0, 0, 0 -10 z" transform="rotate(-90,25,115)"/><path d="M 20 120 v 10 h 5 a 5 5, 0, 0, 0, 0 -10 z" transform="rotate(90,25,125)"/><circle cx="25" cy="145" r="5" transform="rotate(0,25,145)"/><circle cx="25" cy="165" r="5" transform="rotate(0,25,165)"/><path d="M 20 190 v 10 h 5 a 5 5, 0, 0, 0, 0 -10 z" transform="rotate(-90,25,195)"/><path d="M 20 200 v 10 h 5 a 5 5, 0, 0, 0, 0 -10 z" transform="rotate(90,25,205)"/><path d="M 20 220 v 10 h 5 a 5 5, 0, 0, 0, 0 -10 z" transform="rotate(-90,25,225)"/><rect x="20" y="230" width="10" height="10" transform="rotate(0,25,235)"/><path d="M 20 240 v 10 h 5 a 5 5, 0, 0, 0, 0 -10 z" transform="rotate(90,25,245)"/><circle cx="25" cy="295" r="5" transform="rotate(0,25,295)"/><circle cx="35" cy="105" r="5" transform="rotate(0,35,105)"/><circle cx="35" cy="135" r="5" transform="rotate(0,35,135)"/><path d="M 30 150 v 10 h 5 a 5 5, 0, 0, 0, 0 -10 z" transform="rotate(-90,35,155)"/><path d="M 30 160 v 10 h 5 a 5 5, 0, 0, 0, 0 -10 z" transform="rotate(90,35,165)"/><path d="M 30 190 v 10 h 5 a 5 5, 0, 0, 0, 0 -10 z" transform="rotate(-90,35,195)"/><rect x="30" y="200" width="10" height="10" transform="rotate(0,35,205)"/><rect x="30" y="210" width="10" height="10" transform="rotate(0,35,215)"/><path d="M 30 220 v 10 h 5 a 5 5, 0, 0, 0, 0 -10 z" transform="rotate(90,35,225)"/><circle cx="35" cy="245" r="5" transform="rotate(0,35,245)"/><path d="M 30 270 v 10 h 5 a 5 5, 0, 0, 0, 0 -10 z" transform="rotate(-90,35,275)"/><path d="M 30 280 v 10 h 5 a 5 5, 0, 0, 0, 0 -10 z" transform="rotate(90,35,285)"/><circle cx="45" cy="105" r="5" transform="rotate(0,45,105)"/><circle cx="45" cy="155" r="5" transform="rotate(0,45,155)"/><circle cx="45" cy="175" r="5" transform="rotate(0,45,175)"/><circle cx="45" cy="195" r="5" transform="rotate(0,45,195)"/><circle cx="45" cy="215" r="5" transform="rotate(0,45,215)"/><path d="M 40 250 v 10 h 5 a 5 5, 0, 0, 0, 0 -10 z" transform="rotate(-90,45,255)"/><path d="M 40 260 v 10 h 5 a 5 5, 0, 0, 0, 0 -10 z" transform="rotate(90,45,265)"/><circle cx="45" cy="295" r="5" transform="rotate(0,45,295)"/><circle cx="55" cy="105" r="5" transform="rotate(0,55,105)"/><path d="M 50 130 v 10 h 5 a 5 5, 0, 0, 0, 0 -10 z" transform="rotate(-90,55,135)"/><rect x="50" y="140" width="10" height="10" transform="rotate(0,55,145)"/><path d="M 50 150 v 10 h 5 a 5 5, 0, 0, 0, 0 -10 z" transform="rotate(90,55,155)"/><path d="M 50 210 v 10 h 5 a 5 5, 0, 0, 0, 0 -10 z" transform="rotate(-90,55,215)"/><rect x="50" y="220" width="10" height="10" transform="rotate(0,55,225)"/><path d="M 50 230 v 10 h 5 a 5 5, 0, 0, 0, 0 -10 z" transform="rotate(90,55,235)"/><circle cx="55" cy="255" r="5" transform="rotate(0,55,255)"/><path d="M 50 290 v 10 h 5 a 5 5, 0, 0, 0, 0 -10 z" transform="rotate(-90,55,295)"/><path d="M 50 300 v 10 h 5 a 5 5, 0, 0, 0, 0 -10 z" transform="rotate(90,55,305)"/><circle cx="65" cy="145" r="5" transform="rotate(0,65,145)"/><circle cx="65" cy="165" r="5" transform="rotate(0,65,165)"/><path d="M 60 180 v 10 h 5 a 5 5, 0, 0, 0, 0 -10 z" transform="rotate(-90,65,185)"/><path d="M 60 190 v 10 h 5 a 5 5, 0, 0, 0, 0 -10 z" transform="rotate(90,65,195)"/><path d="M 60 240 v 10 h 5 a 5 5, 0, 0, 0, 0 -10 z" transform="rotate(-90,65,245)"/><path d="M 60 250 v 10 h 5 a 5 5, 0, 0, 0, 0 -10 z" transform="rotate(90,65,255)"/><circle cx="65" cy="275" r="5" transform="rotate(0,65,275)"/><circle cx="65" cy="295" r="5" transform="rotate(0,65,295)"/><path d="M 70 100 v 10 h 5 a 5 5, 0, 0, 0, 0 -10 z" transform="rotate(-90,75,105)"/><rect x="70" y="110" width="10" height="10" transform="rotate(0,75,115)"/><path d="M 70 120 v 10 h 5 a 5 5, 0, 0, 0, 0 -10 z" transform="rotate(90,75,125)"/><path d="M 70 140 v 10 h 5 a 5 5, 0, 0, 0, 0 -10 z" transform="rotate(-90,75,145)"/><rect x="70" y="150" width="10" height="10" transform="rotate(0,75,155)"/><path d="M 70 160 v 10 h 5 a 5 5, 0, 0, 0, 0 -10 z" transform="rotate(90,75,165)"/><path d="M 70 200 v 10 h 5 a 5 5, 0, 0, 0, 0 -10 z" transform="rotate(-90,75,205)"/><path d="M 70 210 v 10 h 5 a 5 5, 0, 0, 0, 0 -10 z" transform="rotate(90,75,215)"/><circle cx="75" cy="245" r="5" transform="rotate(0,75,245)"/><circle cx="75" cy="285" r="5" transform="rotate(0,75,285)"/><circle cx="75" cy="305" r="5" transform="rotate(0,75,305)"/><circle cx="85" cy="105" r="5" transform="rotate(0,85,105)"/><circle cx="85" cy="125" r="5" transform="rotate(0,85,125)"/><circle cx="85" cy="145" r="5" transform="rotate(0,85,145)"/><circle cx="85" cy="165" r="5" transform="rotate(0,85,165)"/><circle cx="85" cy="185" r="5" transform="rotate(0,85,185)"/><circle cx="85" cy="205" r="5" transform="rotate(0,85,205)"/><circle cx="85" cy="225" r="5" transform="rotate(0,85,225)"/><circle cx="85" cy="245" r="5" transform="rotate(0,85,245)"/><circle cx="85" cy="265" r="5" transform="rotate(0,85,265)"/><circle cx="85" cy="285" r="5" transform="rotate(0,85,285)"/><circle cx="85" cy="305" r="5" transform="rotate(0,85,305)"/><circle cx="95" cy="155" r="5" transform="rotate(0,95,155)"/><circle cx="95" cy="185" r="5" transform="rotate(0,95,185)"/><circle cx="95" cy="235" r="5" transform="rotate(0,95,235)"/><path d="M 90 280 v 10 h 5 a 5 5, 0, 0, 0, 0 -10 z" transform="rotate(-90,95,285)"/><path d="M 90 290 v 10 h 5 a 5 5, 0, 0, 0, 0 -10 z" transform="rotate(90,95,295)"/><path d="M 100 30 v 10 h 5 a 5 5, 0, 0, 0, 0 -10 z" transform="rotate(-90,105,35)"/><path d="M 100 40 v 10 h 5 a 5 5, 0, 0, 0, 0 -10 z" transform="rotate(90,105,45)"/><circle cx="105" cy="85" r="5" transform="rotate(0,105,85)"/><path d="M 100 110 v 10 h 5 a 5 5, 0, 0, 0, 0 -10 z" transform="rotate(-90,105,115)"/><rect x="100" y="120" width="10" height="10" transform="rotate(0,105,125)"/><path d="M 100 130 v 10 h 5 a 5 5, 0, 0, 0, 0 -10 z" transform="rotate(90,105,135)"/><path d="M 100 150 v 10 h 5 a 5 5, 0, 0, 0, 0 -10 z" transform="rotate(-90,105,155)"/><rect x="100" y="160" width="10" height="10" transform="rotate(0,105,165)"/><path d="M 100 170 v 10 h 5 a 5 5, 0, 0, 0, 0 -10 z" transform="rotate(90,105,175)"/><circle cx="105" cy="195" r="5" transform="rotate(0,105,195)"/><circle cx="105" cy="225" r="5" transform="rotate(0,105,225)"/><path d="M 100 240 v 10 h 5 a 5 5, 0, 0, 0, 0 -10 z" transform="rotate(-90,105,245)"/><path d="M 100 250 v 10 h 5 a 5 5, 0, 0, 0, 0 -10 z" transform="rotate(90,105,255)"/><path d="M 100 280 v 10 h 5 a 5 5, 0, 0, 0, 0 -10 z" transform="rotate(-90,105,285)"/><rect x="100" y="290" width="10" height="10" transform="rotate(0,105,295)"/><rect x="100" y="300" width="10" height="10" transform="rotate(0,105,305)"/><path d="M 100 310 v 10 h 5 a 5 5, 0, 0, 0, 0 -10 z" transform="rotate(90,105,315)"/><circle cx="105" cy="335" r="5" transform="rotate(0,105,335)"/><path d="M 100 350 v 10 h 5 a 5 5, 0, 0, 0, 0 -10 z" transform="rotate(-90,105,355)"/><rect x="100" y="360" width="10" height="10" transform="rotate(0,105,365)"/><path d="M 100 370 v 10 h 5 a 5 5, 0, 0, 0, 0 -10 z" transform="rotate(90,105,375)"/><path d="M 110 40 v 10 h 5 a 5 5, 0, 0, 0, 0 -10 z" transform="rotate(-90,115,45)"/><path d="M 110 50 v 10 h 5 a 5 5, 0, 0, 0, 0 -10 z" transform="rotate(90,115,55)"/><path d="M 110 90 v 10 h 5 a 5 5, 0, 0, 0, 0 -10 z" transform="rotate(-90,115,95)"/><rect x="110" y="100" width="10" height="10" transform="rotate(0,115,105)"/><path d="M 110 110 v 10 h 5 a 5 5, 0, 0, 0, 0 -10 z" transform="rotate(90,115,115)"/><path d="M 110 150 v 10 h 5 a 5 5, 0, 0, 0, 0 -10 z" transform="rotate(-90,115,155)"/><path d="M 110 160 v 10 h 5 a 5 5, 0, 0, 0, 0 -10 z" transform="rotate(90,115,165)"/><circle cx="115" cy="185" r="5" transform="rotate(0,115,185)"/><circle cx="115" cy="215" r="5" transform="rotate(0,115,215)"/><path d="M 110 230 v 10 h 5 a 5 5, 0, 0, 0, 0 -10 z" transform="rotate(-90,115,235)"/><path d="M 110 240 v 10 h 5 a 5 5, 0, 0, 0, 0 -10 z" transform="rotate(90,115,245)"/><path d="M 110 260 v 10 h 5 a 5 5, 0, 0, 0, 0 -10 z" transform="rotate(-90,115,265)"/><rect x="110" y="270" width="10" height="10" transform="rotate(0,115,275)"/><rect x="110" y="280" width="10" height="10" transform="rotate(0,115,285)"/><path d="M 110 290 v 10 h 5 a 5 5, 0, 0, 0, 0 -10 z" transform="rotate(90,115,295)"/><circle cx="115" cy="315" r="5" transform="rotate(0,115,315)"/><circle cx="115" cy="345" r="5" transform="rotate(0,115,345)"/><circle cx="115" cy="375" r="5" transform="rotate(0,115,375)"/><circle cx="125" cy="35" r="5" transform="rotate(0,125,35)"/><path d="M 120 50 v 10 h 5 a 5 5, 0, 0, 0, 0 -10 z" transform="rotate(-90,125,55)"/><path d="M 120 60 v 10 h 5 a 5 5, 0, 0, 0, 0 -10 z" transform="rotate(90,125,65)"/><path d="M 120 80 v 10 h 5 a 5 5, 0, 0, 0, 0 -10 z" transform="rotate(-90,125,85)"/><rect x="120" y="90" width="10" height="10" transform="rotate(0,125,95)"/><path d="M 120 100 v 10 h 5 a 5 5, 0, 0, 0, 0 -10 z" transform="rotate(90,125,105)"/><path d="M 120 130 v 10 h 5 a 5 5, 0, 0, 0, 0 -10 z" transform="rotate(-90,125,135)"/><path d="M 120 140 v 10 h 5 a 5 5, 0, 0, 0, 0 -10 z" transform="rotate(90,125,145)"/><path d="M 120 160 v 10 h 5 a 5 5, 0, 0, 0, 0 -10 z" transform="rotate(-90,125,165)"/><rect x="120" y="170" width="10" height="10" transform="rotate(0,125,175)"/><path d="M 120 180 v 10 h 5 a 5 5, 0, 0, 0, 0 -10 z" transform="rotate(90,125,185)"/><circle cx="125" cy="225" r="5" transform="rotate(0,125,225)"/><circle cx="125" cy="245" r="5" transform="rotate(0,125,245)"/><path d="M 120 290 v 10 h 5 a 5 5, 0, 0, 0, 0 -10 z" transform="rotate(-90,125,295)"/><path d="M 120 300 v 10 h 5 a 5 5, 0, 0, 0, 0 -10 z" transform="rotate(90,125,305)"/><path d="M 120 320 v 10 h 5 a 5 5, 0, 0, 0, 0 -10 z" transform="rotate(-90,125,325)"/><path d="M 120 330 v 10 h 5 a 5 5, 0, 0, 0, 0 -10 z" transform="rotate(90,125,335)"/><circle cx="125" cy="355" r="5" transform="rotate(0,125,355)"/><path d="M 120 370 v 10 h 5 a 5 5, 0, 0, 0, 0 -10 z" transform="rotate(-90,125,375)"/><path d="M 120 380 v 10 h 5 a 5 5, 0, 0, 0, 0 -10 z" transform="rotate(90,125,385)"/><circle cx="135" cy="65" r="5" transform="rotate(0,135,65)"/><path d="M 130 100 v 10 h 5 a 5 5, 0, 0, 0, 0 -10 z" transform="rotate(-90,135,105)"/><path d="M 130 110 v 10 h 5 a 5 5, 0, 0, 0, 0 -10 z" transform="rotate(90,135,115)"/><path d="M 130 140 v 10 h 5 a 5 5, 0, 0, 0, 0 -10 z" transform="rotate(-90,135,145)"/><rect x="130" y="150" width="10" height="10" transform="rotate(0,135,155)"/><path d="M 130 160 v 10 h 5 a 5 5, 0, 0, 0, 0 -10 z" transform="rotate(90,135,165)"/><path d="M 130 180 v 10 h 5 a 5 5, 0, 0, 0, 0 -10 z" transform="rotate(-90,135,185)"/><rect x="130" y="190" width="10" height="10" transform="rotate(0,135,195)"/><rect x="130" y="200" width="10" height="10" transform="rotate(0,135,205)"/><path d="M 130 210 v 10 h 5 a 5 5, 0, 0, 0, 0 -10 z" transform="rotate(90,135,215)"/><path d="M 130 230 v 10 h 5 a 5 5, 0, 0, 0, 0 -10 z" transform="rotate(-90,135,235)"/><path d="M 130 240 v 10 h 5 a 5 5, 0, 0, 0, 0 -10 z" transform="rotate(90,135,245)"/><path d="M 130 300 v 10 h 5 a 5 5, 0, 0, 0, 0 -10 z" transform="rotate(-90,135,305)"/><path d="M 130 310 v 10 h 5 a 5 5, 0, 0, 0, 0 -10 z" transform="rotate(90,135,315)"/><circle cx="135" cy="365" r="5" transform="rotate(0,135,365)"/><circle cx="135" cy="385" r="5" transform="rotate(0,135,385)"/><circle cx="145" cy="25" r="5" transform="rotate(0,145,25)"/><path d="M 140 60 v 10 h 5 a 5 5, 0, 0, 0, 0 -10 z" transform="rotate(-90,145,65)"/><rect x="140" y="70" width="10" height="10" transform="rotate(0,145,75)"/><path d="M 140 80 v 10 h 5 a 5 5, 0, 0, 0, 0 -10 z" transform="rotate(90,145,85)"/><path d="M 140 130 v 10 h 5 a 5 5, 0, 0, 0, 0 -10 z" transform="rotate(-90,145,135)"/><path d="M 140 140 v 10 h 5 a 5 5, 0, 0, 0, 0 -10 z" transform="rotate(90,145,145)"/><circle cx="145" cy="165" r="5" transform="rotate(0,145,165)"/><circle cx="145" cy="185" r="5" transform="rotate(0,145,185)"/><circle cx="145" cy="215" r="5" transform="rotate(0,145,215)"/><path d="M 140 230 v 10 h 5 a 5 5, 0, 0, 0, 0 -10 z" transform="rotate(-90,145,235)"/><rect x="140" y="240" width="10" height="10" transform="rotate(0,145,245)"/><rect x="140" y="250" width="10" height="10" transform="rotate(0,145,255)"/><rect x="140" y="260" width="10" height="10" transform="rotate(0,145,265)"/><path d="M 140 270 v 10 h 5 a 5 5, 0, 0, 0, 0 -10 z" transform="rotate(90,145,275)"/><circle cx="145" cy="305" r="5" transform="rotate(0,145,305)"/><path d="M 140 320 v 10 h 5 a 5 5, 0, 0, 0, 0 -10 z" transform="rotate(-90,145,325)"/><rect x="140" y="330" width="10" height="10" transform="rotate(0,145,335)"/><path d="M 140 340 v 10 h 5 a 5 5, 0, 0, 0, 0 -10 z" transform="rotate(90,145,345)"/><path d="M 140 370 v 10 h 5 a 5 5, 0, 0, 0, 0 -10 z" transform="rotate(-90,145,375)"/><path d="M 140 380 v 10 h 5 a 5 5, 0, 0, 0, 0 -10 z" transform="rotate(90,145,385)"/><circle cx="155" cy="35" r="5" transform="rotate(0,155,35)"/><path d="M 150 50 v 10 h 5 a 5 5, 0, 0, 0, 0 -10 z" transform="rotate(-90,155,55)"/><path d="M 150 60 v 10 h 5 a 5 5, 0, 0, 0, 0 -10 z" transform="rotate(90,155,65)"/><path d="M 150 90 v 10 h 5 a 5 5, 0, 0, 0, 0 -10 z" transform="rotate(-90,155,95)"/><path d="M 150 100 v 10 h 5 a 5 5, 0, 0, 0, 0 -10 z" transform="rotate(90,155,105)"/><path d="M 150 120 v 10 h 5 a 5 5, 0, 0, 0, 0 -10 z" transform="rotate(-90,155,125)"/><rect x="150" y="130" width="10" height="10" transform="rotate(0,155,135)"/><rect x="150" y="140" width="10" height="10" transform="rotate(0,155,145)"/><rect x="150" y="150" width="10" height="10" transform="rotate(0,155,155)"/><rect x="150" y="160" width="10" height="10" transform="rotate(0,155,165)"/><path d="M 150 170 v 10 h 5 a 5 5, 0, 0, 0, 0 -10 z" transform="rotate(90,155,175)"/><path d="M 150 190 v 10 h 5 a 5 5, 0, 0, 0, 0 -10 z" transform="rotate(-90,155,195)"/><path d="M 150 200 v 10 h 5 a 5 5, 0, 0, 0, 0 -10 z" transform="rotate(90,155,205)"/><circle cx="155" cy="225" r="5" transform="rotate(0,155,225)"/><circle cx="155" cy="245" r="5" transform="rotate(0,155,245)"/><path d="M 150 280 v 10 h 5 a 5 5, 0, 0, 0, 0 -10 z" transform="rotate(-90,155,285)"/><rect x="150" y="290" width="10" height="10" transform="rotate(0,155,295)"/><path d="M 150 300 v 10 h 5 a 5 5, 0, 0, 0, 0 -10 z" transform="rotate(90,155,305)"/><path d="M 150 320 v 10 h 5 a 5 5, 0, 0, 0, 0 -10 z" transform="rotate(-90,155,325)"/><path d="M 150 330 v 10 h 5 a 5 5, 0, 0, 0, 0 -10 z" transform="rotate(90,155,335)"/><path d="M 150 350 v 10 h 5 a 5 5, 0, 0, 0, 0 -10 z" transform="rotate(-90,155,355)"/><path d="M 150 360 v 10 h 5 a 5 5, 0, 0, 0, 0 -10 z" transform="rotate(90,155,365)"/><circle cx="165" cy="25" r="5" transform="rotate(0,165,25)"/><path d="M 160 70 v 10 h 5 a 5 5, 0, 0, 0, 0 -10 z" transform="rotate(-90,165,75)"/><rect x="160" y="80" width="10" height="10" transform="rotate(0,165,85)"/><path d="M 160 90 v 10 h 5 a 5 5, 0, 0, 0, 0 -10 z" transform="rotate(90,165,95)"/><path d="M 160 110 v 10 h 5 a 5 5, 0, 0, 0, 0 -10 z" transform="rotate(-90,165,115)"/><path d="M 160 120 v 10 h 5 a 5 5, 0, 0, 0, 0 -10 z" transform="rotate(90,165,125)"/><circle cx="165" cy="145" r="5" transform="rotate(0,165,145)"/><path d="M 160 180 v 10 h 5 a 5 5, 0, 0, 0, 0 -10 z" transform="rotate(-90,165,185)"/><rect x="160" y="190" width="10" height="10" transform="rotate(0,165,195)"/><path d="M 160 200 v 10 h 5 a 5 5, 0, 0, 0, 0 -10 z" transform="rotate(90,165,205)"/><circle cx="165" cy="235" r="5" transform="rotate(0,165,235)"/><path d="M 160 260 v 10 h 5 a 5 5, 0, 0, 0, 0 -10 z" transform="rotate(-90,165,265)"/><rect x="160" y="270" width="10" height="10" transform="rotate(0,165,275)"/><path d="M 160 280 v 10 h 5 a 5 5, 0, 0, 0, 0 -10 z" transform="rotate(90,165,285)"/><circle cx="165" cy="305" r="5" transform="rotate(0,165,305)"/><path d="M 160 360 v 10 h 5 a 5 5, 0, 0, 0, 0 -10 z" transform="rotate(-90,165,365)"/><rect x="160" y="370" width="10" height="10" transform="rotate(0,165,375)"/><path d="M 160 380 v 10 h 5 a 5 5, 0, 0, 0, 0 -10 z" transform="rotate(90,165,385)"/><circle cx="175" cy="35" r="5" transform="rotate(0,175,35)"/><circle cx="175" cy="75" r="5" transform="rotate(0,175,75)"/><path d="M 170 90 v 10 h 5 a 5 5, 0, 0, 0, 0 -10 z" transform="rotate(-90,175,95)"/><path d="M 170 100 v 10 h 5 a 5 5, 0, 0, 0, 0 -10 z" transform="rotate(90,175,105)"/><circle cx="175" cy="125" r="5" transform="rotate(0,175,125)"/><circle cx="175" cy="145" r="5" transform="rotate(0,175,145)"/><circle cx="175" cy="175" r="5" transform="rotate(0,175,175)"/><path d="M 170 220 v 10 h 5 a 5 5, 0, 0, 0, 0 -10 z" transform="rotate(-90,175,225)"/><rect x="170" y="230" width="10" height="10" transform="rotate(0,175,235)"/><rect x="170" y="240" width="10" height="10" transform="rotate(0,175,245)"/><rect x="170" y="250" width="10" height="10" transform="rotate(0,175,255)"/><rect x="170" y="260" width="10" height="10" transform="rotate(0,175,265)"/><rect x="170" y="270" width="10" height="10" transform="rotate(0,175,275)"/><path d="M 170 280 v 10 h 5 a 5 5, 0, 0, 0, 0 -10 z" transform="rotate(90,175,285)"/><circle cx="175" cy="335" r="5" transform="rotate(0,175,335)"/><path d="M 170 350 v 10 h 5 a 5 5, 0, 0, 0, 0 -10 z" transform="rotate(-90,175,355)"/><path d="M 170 360 v 10 h 5 a 5 5, 0, 0, 0, 0 -10 z" transform="rotate(90,175,365)"/><circle cx="185" cy="35" r="5" transform="rotate(0,185,35)"/><path d="M 180 50 v 10 h 5 a 5 5, 0, 0, 0, 0 -10 z" transform="rotate(-90,185,55)"/><path d="M 180 60 v 10 h 5 a 5 5, 0, 0, 0, 0 -10 z" transform="rotate(90,185,65)"/><path d="M 180 80 v 10 h 5 a 5 5, 0, 0, 0, 0 -10 z" transform="rotate(-90,185,85)"/><rect x="180" y="90" width="10" height="10" transform="rotate(0,185,95)"/><path d="M 180 100 v 10 h 5 a 5 5, 0, 0, 0, 0 -10 z" transform="rotate(90,185,105)"/><path d="M 180 120 v 10 h 5 a 5 5, 0, 0, 0, 0 -10 z" transform="rotate(-90,185,125)"/><rect x="180" y="130" width="10" height="10" transform="rotate(0,185,135)"/><rect x="180" y="140" width="10" height="10" transform="rotate(0,185,145)"/><path d="M 180 150 v 10 h 5 a 5 5, 0, 0, 0, 0 -10 z" transform="rotate(90,185,155)"/><circle cx="185" cy="175" r="5" transform="rotate(0,185,175)"/><path d="M 180 190 v 10 h 5 a 5 5, 0, 0, 0, 0 -10 z" transform="rotate(-90,185,195)"/><rect x="180" y="200" width="10" height="10" transform="rotate(0,185,205)"/><path d="M 180 210 v 10 h 5 a 5 5, 0, 0, 0, 0 -10 z" transform="rotate(90,185,215)"/><path d="M 180 250 v 10 h 5 a 5 5, 0, 0, 0, 0 -10 z" transform="rotate(-90,185,255)"/><path d="M 180 260 v 10 h 5 a 5 5, 0, 0, 0, 0 -10 z" transform="rotate(90,185,265)"/><path d="M 180 280 v 10 h 5 a 5 5, 0, 0, 0, 0 -10 z" transform="rotate(-90,185,285)"/><rect x="180" y="290" width="10" height="10" transform="rotate(0,185,295)"/><rect x="180" y="300" width="10" height="10" transform="rotate(0,185,305)"/><path d="M 180 310 v 10 h 5 a 5 5, 0, 0, 0, 0 -10 z" transform="rotate(90,185,315)"/><path d="M 180 330 v 10 h 5 a 5 5, 0, 0, 0, 0 -10 z" transform="rotate(-90,185,335)"/><rect x="180" y="340" width="10" height="10" transform="rotate(0,185,345)"/><path d="M 180 350 v 10 h 5 a 5 5, 0, 0, 0, 0 -10 z" transform="rotate(90,185,355)"/><circle cx="185" cy="385" r="5" transform="rotate(0,185,385)"/><circle cx="195" cy="65" r="5" transform="rotate(0,195,65)"/><circle cx="195" cy="95" r="5" transform="rotate(0,195,95)"/><path d="M 190 110 v 10 h 5 a 5 5, 0, 0, 0, 0 -10 z" transform="rotate(-90,195,115)"/><rect x="190" y="120" width="10" height="10" transform="rotate(0,195,125)"/><rect x="190" y="130" width="10" height="10" transform="rotate(0,195,135)"/><path d="M 190 140 v 10 h 5 a 5 5, 0, 0, 0, 0 -10 z" transform="rotate(90,195,145)"/><path d="M 190 170 v 10 h 5 a 5 5, 0, 0, 0, 0 -10 z" transform="rotate(-90,195,175)"/><path d="M 190 180 v 10 h 5 a 5 5, 0, 0, 0, 0 -10 z" transform="rotate(90,195,185)"/><circle cx="195" cy="205" r="5" transform="rotate(0,195,205)"/><circle cx="195" cy="225" r="5" transform="rotate(0,195,225)"/><circle cx="195" cy="245" r="5" transform="rotate(0,195,245)"/><path d="M 190 270 v 10 h 5 a 5 5, 0, 0, 0, 0 -10 z" transform="rotate(-90,195,275)"/><rect x="190" y="280" width="10" height="10" transform="rotate(0,195,285)"/><path d="M 190 290 v 10 h 5 a 5 5, 0, 0, 0, 0 -10 z" transform="rotate(90,195,295)"/><path d="M 190 310 v 10 h 5 a 5 5, 0, 0, 0, 0 -10 z" transform="rotate(-90,195,315)"/><path d="M 190 320 v 10 h 5 a 5 5, 0, 0, 0, 0 -10 z" transform="rotate(90,195,325)"/><path d="M 190 340 v 10 h 5 a 5 5, 0, 0, 0, 0 -10 z" transform="rotate(-90,195,345)"/><rect x="190" y="350" width="10" height="10" transform="rotate(0,195,355)"/><rect x="190" y="360" width="10" height="10" transform="rotate(0,195,365)"/><path d="M 190 370 v 10 h 5 a 5 5, 0, 0, 0, 0 -10 z" transform="rotate(90,195,375)"/><circle cx="205" cy="25" r="5" transform="rotate(0,205,25)"/><path d="M 200 70 v 10 h 5 a 5 5, 0, 0, 0, 0 -10 z" transform="rotate(-90,205,75)"/><path d="M 200 80 v 10 h 5 a 5 5, 0, 0, 0, 0 -10 z" transform="rotate(90,205,85)"/><path d="M 200 110 v 10 h 5 a 5 5, 0, 0, 0, 0 -10 z" transform="rotate(-90,205,115)"/><path d="M 200 120 v 10 h 5 a 5 5, 0, 0, 0, 0 -10 z" transform="rotate(90,205,125)"/><circle cx="205" cy="145" r="5" transform="rotate(0,205,145)"/><circle cx="205" cy="175" r="5" transform="rotate(0,205,175)"/><circle cx="205" cy="205" r="5" transform="rotate(0,205,205)"/><circle cx="205" cy="285" r="5" transform="rotate(0,205,285)"/><path d="M 200 310 v 10 h 5 a 5 5, 0, 0, 0, 0 -10 z" transform="rotate(-90,205,315)"/><path d="M 200 320 v 10 h 5 a 5 5, 0, 0, 0, 0 -10 z" transform="rotate(90,205,325)"/><circle cx="205" cy="345" r="5" transform="rotate(0,205,345)"/><circle cx="205" cy="365" r="5" transform="rotate(0,205,365)"/><path d="M 210 30 v 10 h 5 a 5 5, 0, 0, 0, 0 -10 z" transform="rotate(-90,215,35)"/><path d="M 210 40 v 10 h 5 a 5 5, 0, 0, 0, 0 -10 z" transform="rotate(90,215,45)"/><circle cx="215" cy="75" r="5" transform="rotate(0,215,75)"/><path d="M 210 100 v 10 h 5 a 5 5, 0, 0, 0, 0 -10 z" transform="rotate(-90,215,105)"/><rect x="210" y="110" width="10" height="10" transform="rotate(0,215,115)"/><path d="M 210 120 v 10 h 5 a 5 5, 0, 0, 0, 0 -10 z" transform="rotate(90,215,125)"/><path d="M 210 150 v 10 h 5 a 5 5, 0, 0, 0, 0 -10 z" transform="rotate(-90,215,155)"/><rect x="210" y="160" width="10" height="10" transform="rotate(0,215,165)"/><path d="M 210 170 v 10 h 5 a 5 5, 0, 0, 0, 0 -10 z" transform="rotate(90,215,175)"/><circle cx="215" cy="195" r="5" transform="rotate(0,215,195)"/><circle cx="215" cy="215" r="5" transform="rotate(0,215,215)"/><path d="M 210 230 v 10 h 5 a 5 5, 0, 0, 0, 0 -10 z" transform="rotate(-90,215,235)"/><path d="M 210 240 v 10 h 5 a 5 5, 0, 0, 0, 0 -10 z" transform="rotate(90,215,245)"/><path d="M 210 260 v 10 h 5 a 5 5, 0, 0, 0, 0 -10 z" transform="rotate(-90,215,265)"/><path d="M 210 270 v 10 h 5 a 5 5, 0, 0, 0, 0 -10 z" transform="rotate(90,215,275)"/><circle cx="215" cy="305" r="5" transform="rotate(0,215,305)"/><circle cx="215" cy="325" r="5" transform="rotate(0,215,325)"/><circle cx="215" cy="365" r="5" transform="rotate(0,215,365)"/><circle cx="215" cy="385" r="5" transform="rotate(0,215,385)"/><path d="M 220 40 v 10 h 5 a 5 5, 0, 0, 0, 0 -10 z" transform="rotate(-90,225,45)"/><rect x="220" y="50" width="10" height="10" transform="rotate(0,225,55)"/><path d="M 220 60 v 10 h 5 a 5 5, 0, 0, 0, 0 -10 z" transform="rotate(90,225,65)"/><circle cx="225" cy="85" r="5" transform="rotate(0,225,85)"/><circle cx="225" cy="105" r="5" transform="rotate(0,225,105)"/><circle cx="225" cy="125" r="5" transform="rotate(0,225,125)"/><circle cx="225" cy="185" r="5" transform="rotate(0,225,185)"/><circle cx="225" cy="215" r="5" transform="rotate(0,225,215)"/><path d="M 220 240 v 10 h 5 a 5 5, 0, 0, 0, 0 -10 z" transform="rotate(-90,225,245)"/><path d="M 220 250 v 10 h 5 a 5 5, 0, 0, 0, 0 -10 z" transform="rotate(90,225,255)"/><path d="M 220 280 v 10 h 5 a 5 5, 0, 0, 0, 0 -10 z" transform="rotate(-90,225,285)"/><rect x="220" y="290" width="10" height="10" transform="rotate(0,225,295)"/><path d="M 220 300 v 10 h 5 a 5 5, 0, 0, 0, 0 -10 z" transform="rotate(90,225,305)"/><path d="M 220 320 v 10 h 5 a 5 5, 0, 0, 0, 0 -10 z" transform="rotate(-90,225,325)"/><path d="M 220 330 v 10 h 5 a 5 5, 0, 0, 0, 0 -10 z" transform="rotate(90,225,335)"/><path d="M 220 350 v 10 h 5 a 5 5, 0, 0, 0, 0 -10 z" transform="rotate(-90,225,355)"/><rect x="220" y="360" width="10" height="10" transform="rotate(0,225,365)"/><path d="M 220 370 v 10 h 5 a 5 5, 0, 0, 0, 0 -10 z" transform="rotate(90,225,375)"/><circle cx="235" cy="25" r="5" transform="rotate(0,235,25)"/><path d="M 230 100 v 10 h 5 a 5 5, 0, 0, 0, 0 -10 z" transform="rotate(-90,235,105)"/><rect x="230" y="110" width="10" height="10" transform="rotate(0,235,115)"/><path d="M 230 120 v 10 h 5 a 5 5, 0, 0, 0, 0 -10 z" transform="rotate(90,235,125)"/><path d="M 230 150 v 10 h 5 a 5 5, 0, 0, 0, 0 -10 z" transform="rotate(-90,235,155)"/><path d="M 230 160 v 10 h 5 a 5 5, 0, 0, 0, 0 -10 z" transform="rotate(90,235,165)"/><circle cx="235" cy="225" r="5" transform="rotate(0,235,225)"/><circle cx="235" cy="265" r="5" transform="rotate(0,235,265)"/><path d="M 230 290 v 10 h 5 a 5 5, 0, 0, 0, 0 -10 z" transform="rotate(-90,235,295)"/><path d="M 230 300 v 10 h 5 a 5 5, 0, 0, 0, 0 -10 z" transform="rotate(90,235,305)"/><circle cx="235" cy="325" r="5" transform="rotate(0,235,325)"/><path d="M 230 350 v 10 h 5 a 5 5, 0, 0, 0, 0 -10 z" transform="rotate(-90,235,355)"/><path d="M 230 360 v 10 h 5 a 5 5, 0, 0, 0, 0 -10 z" transform="rotate(90,235,365)"/><path d="M 240 20 v 10 h 5 a 5 5, 0, 0, 0, 0 -10 z" transform="rotate(-90,245,25)"/><rect x="240" y="30" width="10" height="10" transform="rotate(0,245,35)"/><path d="M 240 40 v 10 h 5 a 5 5, 0, 0, 0, 0 -10 z" transform="rotate(90,245,45)"/><path d="M 240 60 v 10 h 5 a 5 5, 0, 0, 0, 0 -10 z" transform="rotate(-90,245,65)"/><rect x="240" y="70" width="10" height="10" transform="rotate(0,245,75)"/><rect x="240" y="80" width="10" height="10" transform="rotate(0,245,85)"/><path d="M 240 90 v 10 h 5 a 5 5, 0, 0, 0, 0 -10 z" transform="rotate(90,245,95)"/><circle cx="245" cy="115" r="5" transform="rotate(0,245,115)"/><circle cx="245" cy="135" r="5" transform="rotate(0,245,135)"/><path d="M 240 180 v 10 h 5 a 5 5, 0, 0, 0, 0 -10 z" transform="rotate(-90,245,185)"/><path d="M 240 190 v 10 h 5 a 5 5, 0, 0, 0, 0 -10 z" transform="rotate(90,245,195)"/><circle cx="245" cy="235" r="5" transform="rotate(0,245,235)"/><circle cx="245" cy="265" r="5" transform="rotate(0,245,265)"/><circle cx="245" cy="285" r="5" transform="rotate(0,245,285)"/><path d="M 240 300 v 10 h 5 a 5 5, 0, 0, 0, 0 -10 z" transform="rotate(-90,245,305)"/><path d="M 240 310 v 10 h 5 a 5 5, 0, 0, 0, 0 -10 z" transform="rotate(90,245,315)"/><path d="M 240 330 v 10 h 5 a 5 5, 0, 0, 0, 0 -10 z" transform="rotate(-90,245,335)"/><rect x="240" y="340" width="10" height="10" transform="rotate(0,245,345)"/><path d="M 240 350 v 10 h 5 a 5 5, 0, 0, 0, 0 -10 z" transform="rotate(90,245,355)"/><circle cx="245" cy="385" r="5" transform="rotate(0,245,385)"/><circle cx="255" cy="35" r="5" transform="rotate(0,255,35)"/><circle cx="255" cy="65" r="5" transform="rotate(0,255,65)"/><circle cx="255" cy="95" r="5" transform="rotate(0,255,95)"/><path d="M 250 110 v 10 h 5 a 5 5, 0, 0, 0, 0 -10 z" transform="rotate(-90,255,115)"/><path d="M 250 120 v 10 h 5 a 5 5, 0, 0, 0, 0 -10 z" transform="rotate(90,255,125)"/><circle cx="255" cy="145" r="5" transform="rotate(0,255,145)"/><path d="M 250 170 v 10 h 5 a 5 5, 0, 0, 0, 0 -10 z" transform="rotate(-90,255,175)"/><path d="M 250 180 v 10 h 5 a 5 5, 0, 0, 0, 0 -10 z" transform="rotate(90,255,185)"/><circle cx="255" cy="205" r="5" transform="rotate(0,255,205)"/><circle cx="255" cy="225" r="5" transform="rotate(0,255,225)"/><circle cx="255" cy="245" r="5" transform="rotate(0,255,245)"/><path d="M 250 300 v 10 h 5 a 5 5, 0, 0, 0, 0 -10 z" transform="rotate(-90,255,305)"/><path d="M 250 310 v 10 h 5 a 5 5, 0, 0, 0, 0 -10 z" transform="rotate(90,255,315)"/><circle cx="255" cy="335" r="5" transform="rotate(0,255,335)"/><circle cx="255" cy="365" r="5" transform="rotate(0,255,365)"/><path d="M 260 20 v 10 h 5 a 5 5, 0, 0, 0, 0 -10 z" transform="rotate(-90,265,25)"/><path d="M 260 30 v 10 h 5 a 5 5, 0, 0, 0, 0 -10 z" transform="rotate(90,265,35)"/><path d="M 260 60 v 10 h 5 a 5 5, 0, 0, 0, 0 -10 z" transform="rotate(-90,265,65)"/><rect x="260" y="70" width="10" height="10" transform="rotate(0,265,75)"/><path d="M 260 80 v 10 h 5 a 5 5, 0, 0, 0, 0 -10 z" transform="rotate(90,265,85)"/><circle cx="265" cy="135" r="5" transform="rotate(0,265,135)"/><path d="M 260 150 v 10 h 5 a 5 5, 0, 0, 0, 0 -10 z" transform="rotate(-90,265,155)"/><rect x="260" y="160" width="10" height="10" transform="rotate(0,265,165)"/><path d="M 260 170 v 10 h 5 a 5 5, 0, 0, 0, 0 -10 z" transform="rotate(90,265,175)"/><path d="M 260 190 v 10 h 5 a 5 5, 0, 0, 0, 0 -10 z" transform="rotate(-90,265,195)"/><rect x="260" y="200" width="10" height="10" transform="rotate(0,265,205)"/><rect x="260" y="210" width="10" height="10" transform="rotate(0,265,215)"/><path d="M 260 220 v 10 h 5 a 5 5, 0, 0, 0, 0 -10 z" transform="rotate(90,265,225)"/><path d="M 260 260 v 10 h 5 a 5 5, 0, 0, 0, 0 -10 z" transform="rotate(-90,265,265)"/><path d="M 260 270 v 10 h 5 a 5 5, 0, 0, 0, 0 -10 z" transform="rotate(90,265,275)"/><path d="M 260 290 v 10 h 5 a 5 5, 0, 0, 0, 0 -10 z" transform="rotate(-90,265,295)"/><rect x="260" y="300" width="10" height="10" transform="rotate(0,265,305)"/><path d="M 260 310 v 10 h 5 a 5 5, 0, 0, 0, 0 -10 z" transform="rotate(90,265,315)"/><path d="M 260 330 v 10 h 5 a 5 5, 0, 0, 0, 0 -10 z" transform="rotate(-90,265,335)"/><rect x="260" y="340" width="10" height="10" transform="rotate(0,265,345)"/><rect x="260" y="350" width="10" height="10" transform="rotate(0,265,355)"/><path d="M 260 360 v 10 h 5 a 5 5, 0, 0, 0, 0 -10 z" transform="rotate(90,265,365)"/><circle cx="265" cy="385" r="5" transform="rotate(0,265,385)"/><path d="M 270 30 v 10 h 5 a 5 5, 0, 0, 0, 0 -10 z" transform="rotate(-90,275,35)"/><rect x="270" y="40" width="10" height="10" transform="rotate(0,275,45)"/><path d="M 270 50 v 10 h 5 a 5 5, 0, 0, 0, 0 -10 z" transform="rotate(90,275,55)"/><circle cx="275" cy="75" r="5" transform="rotate(0,275,75)"/><circle cx="275" cy="105" r="5" transform="rotate(0,275,105)"/><path d="M 270 130 v 10 h 5 a 5 5, 0, 0, 0, 0 -10 z" transform="rotate(-90,275,135)"/><rect x="270" y="140" width="10" height="10" transform="rotate(0,275,145)"/><rect x="270" y="150" width="10" height="10" transform="rotate(0,275,155)"/><path d="M 270 160 v 10 h 5 a 5 5, 0, 0, 0, 0 -10 z" transform="rotate(90,275,165)"/><path d="M 270 180 v 10 h 5 a 5 5, 0, 0, 0, 0 -10 z" transform="rotate(-90,275,185)"/><path d="M 270 190 v 10 h 5 a 5 5, 0, 0, 0, 0 -10 z" transform="rotate(90,275,195)"/><path d="M 270 230 v 10 h 5 a 5 5, 0, 0, 0, 0 -10 z" transform="rotate(-90,275,235)"/><path d="M 270 240 v 10 h 5 a 5 5, 0, 0, 0, 0 -10 z" transform="rotate(90,275,245)"/><circle cx="275" cy="285" r="5" transform="rotate(0,275,285)"/><path d="M 270 300 v 10 h 5 a 5 5, 0, 0, 0, 0 -10 z" transform="rotate(-90,275,305)"/><rect x="270" y="310" width="10" height="10" transform="rotate(0,275,315)"/><path d="M 270 320 v 10 h 5 a 5 5, 0, 0, 0, 0 -10 z" transform="rotate(90,275,325)"/><path d="M 270 350 v 10 h 5 a 5 5, 0, 0, 0, 0 -10 z" transform="rotate(-90,275,355)"/><rect x="270" y="360" width="10" height="10" transform="rotate(0,275,365)"/><rect x="270" y="370" width="10" height="10" transform="rotate(0,275,375)"/><path d="M 270 380 v 10 h 5 a 5 5, 0, 0, 0, 0 -10 z" transform="rotate(90,275,385)"/><path d="M 280 30 v 10 h 5 a 5 5, 0, 0, 0, 0 -10 z" transform="rotate(-90,285,35)"/><rect x="280" y="40" width="10" height="10" transform="rotate(0,285,45)"/><rect x="280" y="50" width="10" height="10" transform="rotate(0,285,55)"/><path d="M 280 60 v 10 h 5 a 5 5, 0, 0, 0, 0 -10 z" transform="rotate(90,285,65)"/><circle cx="285" cy="85" r="5" transform="rotate(0,285,85)"/><path d="M 280 110 v 10 h 5 a 5 5, 0, 0, 0, 0 -10 z" transform="rotate(-90,285,115)"/><rect x="280" y="120" width="10" height="10" transform="rotate(0,285,125)"/><rect x="280" y="130" width="10" height="10" transform="rotate(0,285,135)"/><path d="M 280 140 v 10 h 5 a 5 5, 0, 0, 0, 0 -10 z" transform="rotate(90,285,145)"/><circle cx="285" cy="175" r="5" transform="rotate(0,285,175)"/><circle cx="285" cy="195" r="5" transform="rotate(0,285,195)"/><circle cx="285" cy="225" r="5" transform="rotate(0,285,225)"/><path d="M 280 260 v 10 h 5 a 5 5, 0, 0, 0, 0 -10 z" transform="rotate(-90,285,265)"/><rect x="280" y="270" width="10" height="10" transform="rotate(0,285,275)"/><rect x="280" y="280" width="10" height="10" transform="rotate(0,285,285)"/><path d="M 280 290 v 10 h 5 a 5 5, 0, 0, 0, 0 -10 z" transform="rotate(90,285,295)"/><path d="M 280 340 v 10 h 5 a 5 5, 0, 0, 0, 0 -10 z" transform="rotate(-90,285,345)"/><path d="M 280 350 v 10 h 5 a 5 5, 0, 0, 0, 0 -10 z" transform="rotate(90,285,355)"/><path d="M 290 50 v 10 h 5 a 5 5, 0, 0, 0, 0 -10 z" transform="rotate(-90,295,55)"/><path d="M 290 60 v 10 h 5 a 5 5, 0, 0, 0, 0 -10 z" transform="rotate(90,295,65)"/><circle cx="295" cy="95" r="5" transform="rotate(0,295,95)"/><path d="M 290 110 v 10 h 5 a 5 5, 0, 0, 0, 0 -10 z" transform="rotate(-90,295,115)"/><rect x="290" y="120" width="10" height="10" transform="rotate(0,295,125)"/><path d="M 290 130 v 10 h 5 a 5 5, 0, 0, 0, 0 -10 z" transform="rotate(90,295,135)"/><circle cx="295" cy="155" r="5" transform="rotate(0,295,155)"/><path d="M 290 190 v 10 h 5 a 5 5, 0, 0, 0, 0 -10 z" transform="rotate(-90,295,195)"/><rect x="290" y="200" width="10" height="10" transform="rotate(0,295,205)"/><path d="M 290 210 v 10 h 5 a 5 5, 0, 0, 0, 0 -10 z" transform="rotate(90,295,215)"/><circle cx="295" cy="255" r="5" transform="rotate(0,295,255)"/><path d="M 290 290 v 10 h 5 a 5 5, 0, 0, 0, 0 -10 z" transform="rotate(-90,295,295)"/><rect x="290" y="300" width="10" height="10" transform="rotate(0,295,305)"/><rect x="290" y="310" width="10" height="10" transform="rotate(0,295,315)"/><rect x="290" y="320" width="10" height="10" transform="rotate(0,295,325)"/><path d="M 290 330 v 10 h 5 a 5 5, 0, 0, 0, 0 -10 z" transform="rotate(90,295,335)"/><circle cx="295" cy="355" r="5" transform="rotate(0,295,355)"/><circle cx="295" cy="385" r="5" transform="rotate(0,295,385)"/><circle cx="305" cy="25" r="5" transform="rotate(0,305,25)"/><path d="M 300 50 v 10 h 5 a 5 5, 0, 0, 0, 0 -10 z" transform="rotate(-90,305,55)"/><rect x="300" y="60" width="10" height="10" transform="rotate(0,305,65)"/><rect x="300" y="70" width="10" height="10" transform="rotate(0,305,75)"/><path d="M 300 80 v 10 h 5 a 5 5, 0, 0, 0, 0 -10 z" transform="rotate(90,305,85)"/><path d="M 300 100 v 10 h 5 a 5 5, 0, 0, 0, 0 -10 z" transform="rotate(-90,305,105)"/><path d="M 300 110 v 10 h 5 a 5 5, 0, 0, 0, 0 -10 z" transform="rotate(90,305,115)"/><circle cx="305" cy="155" r="5" transform="rotate(0,305,155)"/><circle cx="305" cy="225" r="5" transform="rotate(0,305,225)"/><circle cx="305" cy="255" r="5" transform="rotate(0,305,255)"/><path d="M 300 290 v 10 h 5 a 5 5, 0, 0, 0, 0 -10 z" transform="rotate(-90,305,295)"/><rect x="300" y="300" width="10" height="10" transform="rotate(0,305,305)"/><rect x="300" y="310" width="10" height="10" transform="rotate(0,305,315)"/><rect x="300" y="320" width="10" height="10" transform="rotate(0,305,325)"/><rect x="300" y="330" width="10" height="10" transform="rotate(0,305,335)"/><rect x="300" y="340" width="10" height="10" transform="rotate(0,305,345)"/><path d="M 300 350 v 10 h 5 a 5 5, 0, 0, 0, 0 -10 z" transform="rotate(90,305,355)"/><circle cx="315" cy="155" r="5" transform="rotate(0,315,155)"/><circle cx="315" cy="185" r="5" transform="rotate(0,315,185)"/><circle cx="315" cy="215" r="5" transform="rotate(0,315,215)"/><circle cx="315" cy="245" r="5" transform="rotate(0,315,245)"/><circle cx="315" cy="265" r="5" transform="rotate(0,315,265)"/><circle cx="315" cy="305" r="5" transform="rotate(0,315,305)"/><circle cx="315" cy="345" r="5" transform="rotate(0,315,345)"/><circle cx="315" cy="375" r="5" transform="rotate(0,315,375)"/><path d="M 320 140 v 10 h 5 a 5 5, 0, 0, 0, 0 -10 z" transform="rotate(-90,325,145)"/><path d="M 320 150 v 10 h 5 a 5 5, 0, 0, 0, 0 -10 z" transform="rotate(90,325,155)"/><circle cx="325" cy="195" r="5" transform="rotate(0,325,195)"/><circle cx="325" cy="215" r="5" transform="rotate(0,325,215)"/><path d="M 320 250 v 10 h 5 a 5 5, 0, 0, 0, 0 -10 z" transform="rotate(-90,325,255)"/><rect x="320" y="260" width="10" height="10" transform="rotate(0,325,265)"/><path d="M 320 270 v 10 h 5 a 5 5, 0, 0, 0, 0 -10 z" transform="rotate(90,325,275)"/><circle cx="325" cy="305" r="5" transform="rotate(0,325,305)"/><circle cx="325" cy="325" r="5" transform="rotate(0,325,325)"/><path d="M 320 340 v 10 h 5 a 5 5, 0, 0, 0, 0 -10 z" transform="rotate(-90,325,345)"/><rect x="320" y="350" width="10" height="10" transform="rotate(0,325,355)"/><rect x="320" y="360" width="10" height="10" transform="rotate(0,325,365)"/><rect x="320" y="370" width="10" height="10" transform="rotate(0,325,375)"/><path d="M 320 380 v 10 h 5 a 5 5, 0, 0, 0, 0 -10 z" transform="rotate(90,325,385)"/><path d="M 330 120 v 10 h 5 a 5 5, 0, 0, 0, 0 -10 z" transform="rotate(-90,335,125)"/><rect x="330" y="130" width="10" height="10" transform="rotate(0,335,135)"/><path d="M 330 140 v 10 h 5 a 5 5, 0, 0, 0, 0 -10 z" transform="rotate(90,335,145)"/><circle cx="335" cy="165" r="5" transform="rotate(0,335,165)"/><path d="M 330 190 v 10 h 5 a 5 5, 0, 0, 0, 0 -10 z" transform="rotate(-90,335,195)"/><path d="M 330 200 v 10 h 5 a 5 5, 0, 0, 0, 0 -10 z" transform="rotate(90,335,205)"/><path d="M 330 220 v 10 h 5 a 5 5, 0, 0, 0, 0 -10 z" transform="rotate(-90,335,225)"/><rect x="330" y="230" width="10" height="10" transform="rotate(0,335,235)"/><rect x="330" y="240" width="10" height="10" transform="rotate(0,335,245)"/><rect x="330" y="250" width="10" height="10" transform="rotate(0,335,255)"/><path d="M 330 260 v 10 h 5 a 5 5, 0, 0, 0, 0 -10 z" transform="rotate(90,335,265)"/><circle cx="335" cy="285" r="5" transform="rotate(0,335,285)"/><circle cx="335" cy="305" r="5" transform="rotate(0,335,305)"/><circle cx="335" cy="345" r="5" transform="rotate(0,335,345)"/><circle cx="335" cy="385" r="5" transform="rotate(0,335,385)"/><circle cx="345" cy="125" r="5" transform="rotate(0,345,125)"/><path d="M 340 140 v 10 h 5 a 5 5, 0, 0, 0, 0 -10 z" transform="rotate(-90,345,145)"/><rect x="340" y="150" width="10" height="10" transform="rotate(0,345,155)"/><path d="M 340 160 v 10 h 5 a 5 5, 0, 0, 0, 0 -10 z" transform="rotate(90,345,165)"/><path d="M 340 210 v 10 h 5 a 5 5, 0, 0, 0, 0 -10 z" transform="rotate(-90,345,215)"/><path d="M 340 220 v 10 h 5 a 5 5, 0, 0, 0, 0 -10 z" transform="rotate(90,345,225)"/><path d="M 340 240 v 10 h 5 a 5 5, 0, 0, 0, 0 -10 z" transform="rotate(-90,345,245)"/><rect x="340" y="250" width="10" height="10" transform="rotate(0,345,255)"/><rect x="340" y="260" width="10" height="10" transform="rotate(0,345,265)"/><path d="M 340 270 v 10 h 5 a 5 5, 0, 0, 0, 0 -10 z" transform="rotate(90,345,275)"/><path d="M 340 300 v 10 h 5 a 5 5, 0, 0, 0, 0 -10 z" transform="rotate(-90,345,305)"/><rect x="340" y="310" width="10" height="10" transform="rotate(0,345,315)"/><rect x="340" y="320" width="10" height="10" transform="rotate(0,345,325)"/><rect x="340" y="330" width="10" height="10" transform="rotate(0,345,335)"/><rect x="340" y="340" width="10" height="10" transform="rotate(0,345,345)"/><rect x="340" y="350" width="10" height="10" transform="rotate(0,345,355)"/><path d="M 340 360 v 10 h 5 a 5 5, 0, 0, 0, 0 -10 z" transform="rotate(90,345,365)"/><path d="M 350 130 v 10 h 5 a 5 5, 0, 0, 0, 0 -10 z" transform="rotate(-90,355,135)"/><path d="M 350 140 v 10 h 5 a 5 5, 0, 0, 0, 0 -10 z" transform="rotate(90,355,145)"/><path d="M 350 160 v 10 h 5 a 5 5, 0, 0, 0, 0 -10 z" transform="rotate(-90,355,165)"/><path d="M 350 170 v 10 h 5 a 5 5, 0, 0, 0, 0 -10 z" transform="rotate(90,355,175)"/><circle cx="355" cy="215" r="5" transform="rotate(0,355,215)"/><path d="M 350 240 v 10 h 5 a 5 5, 0, 0, 0, 0 -10 z" transform="rotate(-90,355,245)"/><rect x="350" y="250" width="10" height="10" transform="rotate(0,355,255)"/><rect x="350" y="260" width="10" height="10" transform="rotate(0,355,265)"/><rect x="350" y="270" width="10" height="10" transform="rotate(0,355,275)"/><rect x="350" y="280" width="10" height="10" transform="rotate(0,355,285)"/><path d="M 350 290 v 10 h 5 a 5 5, 0, 0, 0, 0 -10 z" transform="rotate(90,355,295)"/><path d="M 350 320 v 10 h 5 a 5 5, 0, 0, 0, 0 -10 z" transform="rotate(-90,355,325)"/><path d="M 350 330 v 10 h 5 a 5 5, 0, 0, 0, 0 -10 z" transform="rotate(90,355,335)"/><path d="M 350 350 v 10 h 5 a 5 5, 0, 0, 0, 0 -10 z" transform="rotate(-90,355,355)"/><path d="M 350 360 v 10 h 5 a 5 5, 0, 0, 0, 0 -10 z" transform="rotate(90,355,365)"/><circle cx="365" cy="105" r="5" transform="rotate(0,365,105)"/><path d="M 360 130 v 10 h 5 a 5 5, 0, 0, 0, 0 -10 z" transform="rotate(-90,365,135)"/><rect x="360" y="140" width="10" height="10" transform="rotate(0,365,145)"/><path d="M 360 150 v 10 h 5 a 5 5, 0, 0, 0, 0 -10 z" transform="rotate(90,365,155)"/><path d="M 360 180 v 10 h 5 a 5 5, 0, 0, 0, 0 -10 z" transform="rotate(-90,365,185)"/><rect x="360" y="190" width="10" height="10" transform="rotate(0,365,195)"/><path d="M 360 200 v 10 h 5 a 5 5, 0, 0, 0, 0 -10 z" transform="rotate(90,365,205)"/><circle cx="365" cy="235" r="5" transform="rotate(0,365,235)"/><path d="M 360 250 v 10 h 5 a 5 5, 0, 0, 0, 0 -10 z" transform="rotate(-90,365,255)"/><path d="M 360 260 v 10 h 5 a 5 5, 0, 0, 0, 0 -10 z" transform="rotate(90,365,265)"/><circle cx="365" cy="285" r="5" transform="rotate(0,365,285)"/><path d="M 360 300 v 10 h 5 a 5 5, 0, 0, 0, 0 -10 z" transform="rotate(-90,365,305)"/><rect x="360" y="310" width="10" height="10" transform="rotate(0,365,315)"/><path d="M 360 320 v 10 h 5 a 5 5, 0, 0, 0, 0 -10 z" transform="rotate(90,365,325)"/><path d="M 360 350 v 10 h 5 a 5 5, 0, 0, 0, 0 -10 z" transform="rotate(-90,365,355)"/><rect x="360" y="360" width="10" height="10" transform="rotate(0,365,365)"/><rect x="360" y="370" width="10" height="10" transform="rotate(0,365,375)"/><path d="M 360 380 v 10 h 5 a 5 5, 0, 0, 0, 0 -10 z" transform="rotate(90,365,385)"/><circle cx="375" cy="105" r="5" transform="rotate(0,375,105)"/><circle cx="375" cy="135" r="5" transform="rotate(0,375,135)"/><path d="M 370 160 v 10 h 5 a 5 5, 0, 0, 0, 0 -10 z" transform="rotate(-90,375,165)"/><rect x="370" y="170" width="10" height="10" transform="rotate(0,375,175)"/><rect x="370" y="180" width="10" height="10" transform="rotate(0,375,185)"/><rect x="370" y="190" width="10" height="10" transform="rotate(0,375,195)"/><path d="M 370 200 v 10 h 5 a 5 5, 0, 0, 0, 0 -10 z" transform="rotate(90,375,205)"/><path d="M 370 250 v 10 h 5 a 5 5, 0, 0, 0, 0 -10 z" transform="rotate(-90,375,255)"/><rect x="370" y="260" width="10" height="10" transform="rotate(0,375,265)"/><rect x="370" y="270" width="10" height="10" transform="rotate(0,375,275)"/><path d="M 370 280 v 10 h 5 a 5 5, 0, 0, 0, 0 -10 z" transform="rotate(90,375,285)"/><path d="M 370 320 v 10 h 5 a 5 5, 0, 0, 0, 0 -10 z" transform="rotate(-90,375,325)"/><rect x="370" y="330" width="10" height="10" transform="rotate(0,375,335)"/><rect x="370" y="340" width="10" height="10" transform="rotate(0,375,345)"/><rect x="370" y="350" width="10" height="10" transform="rotate(0,375,355)"/><path d="M 370 360 v 10 h 5 a 5 5, 0, 0, 0, 0 -10 z" transform="rotate(90,375,365)"/><circle cx="375" cy="385" r="5" transform="rotate(0,375,385)"/><path d="M 380 140 v 10 h 5 a 5 5, 0, 0, 0, 0 -10 z" transform="rotate(-90,385,145)"/><path d="M 380 150 v 10 h 5 a 5 5, 0, 0, 0, 0 -10 z" transform="rotate(90,385,155)"/><circle cx="385" cy="175" r="5" transform="rotate(0,385,175)"/><path d="M 380 190 v 10 h 5 a 5 5, 0, 0, 0, 0 -10 z" transform="rotate(-90,385,195)"/><rect x="380" y="200" width="10" height="10" transform="rotate(0,385,205)"/><path d="M 380 210 v 10 h 5 a 5 5, 0, 0, 0, 0 -10 z" transform="rotate(90,385,215)"/><circle cx="385" cy="255" r="5" transform="rotate(0,385,255)"/><circle cx="385" cy="275" r="5" transform="rotate(0,385,275)"/><path d="M 380 300 v 10 h 5 a 5 5, 0, 0, 0, 0 -10 z" transform="rotate(-90,385,305)"/><rect x="380" y="310" width="10" height="10" transform="rotate(0,385,315)"/><path d="M 380 320 v 10 h 5 a 5 5, 0, 0, 0, 0 -10 z" transform="rotate(90,385,325)"/><circle cx="385" cy="385" r="5" transform="rotate(0,385,385)"/></g></mask><mask id="mask-corners-square-color-0-0-0-0" maskUnits="userSpaceOnUse" x="0" y="0" width="410" height="410"><g fill="#fff"><path clip-rule="evenodd" d="M 20 45 v 20 a 25 25, 0, 0, 0, 25 25 h 20 a 25 25, 0, 0, 0, 25 -25 v -20 a 25 25, 0, 0, 0, -25 -25 h -20 a 25 25, 0, 0, 0, -25 25 z M 45 30 h 20 a 15 15, 0, 0, 1, 15 15 v 20 a 15 15, 0, 0, 1, -15 15 h -20 a 15 15, 0, 0, 1, -15 -15 v -20 a 15 15, 0, 0, 1, 15 -15 z" transform="rotate(0,55,55)"/></g></mask><mask id="mask-corners-dot-color-0-0-0-0" maskUnits="userSpaceOnUse" x="0" y="0" width="410" height="410"><g fill="#fff"><circle cx="55" cy="55" r="14.2857143" transform="rotate(0,55,55)"/></g></mask><mask id="mask-corners-square-color-1-0-0-0" maskUnits="userSpaceOnUse" x="0" y="0" width="410" height="410"><g fill="#fff"><path clip-rule="evenodd" d="M 320 45 v 20 a 25 25, 0, 0, 0, 25 25 h 20 a 25 25, 0, 0, 0, 25 -25 v -20 a 25 25, 0, 0, 0, -25 -25 h -20 a 25 25, 0, 0, 0, -25 25 z M 345 30 h 20 a 15 15, 0, 0, 1, 15 15 v 20 a 15 15, 0, 0, 1, -15 15 h -20 a 15 15, 0, 0, 1, -15 -15 v -20 a 15 15, 0, 0, 1, 15 -15 z" transform="rotate(90,355,55)"/></g></mask><mask id="mask-corners-dot-color-1-0-0-0" maskUnits="userSpaceOnUse" x="0" y="0" width="410" height="410"><g fill="#fff"><circle cx="355" cy="55" r="14.2857143" transform="rotate(90,355,55)"/></g></mask><mask id="mask-corners-square-color-0-1-0-0" maskUnits="userSpaceOnUse" x="0" y="0" width="410" height="410"><g fill="#fff"><path clip-rule="evenodd" d="M 20 345 v 20 a 25 25, 0, 0, 0, 25 25 h 20 a 25 25, 0, 0, 0, 25 -25 v -20 a 25 25, 0, 0, 0, -25 -25 h -20 a 25 25, 0, 0, 0, -25 25 z M 45 330 h 20 a 15 15, 0, 0, 1, 15 15 v 20 a 15 15, 0, 0, 1, -15 15 h -20 a 15 15, 0, 0, 1, -15 -15 v -20 a 15 15, 0, 0, 1, 15 -15 z" transform="rotate(-90,55,355)"/></g></mask><mask id="mask-corners-dot-color-0-1-0-0" maskUnits="userSpaceOnUse" x="0" y="0" width="410" height="410"><g fill="#fff"><circle cx="55" cy="355" r="14.2857143" transform="rotate(-90,55,355)"/></g></mask></defs><rect x="0" y="0" height="410" width="410" style="mask:url(#mask-background-color-0-0)" fill="#ffffff"/><g><g><rect x="20" y="20" height="370" width="370" style="mask:url(#mask-dot-color-0-0)" fill="#000000"/><rect x="20" y="20" height="70" width="70" style="mask:url(#mask-corners-square-color-0-0-0-0)" fill="#000000"/><rect x="40" y="40" height="30" width="30" style="mask:url(#mask-corners-dot-color-0-0-0-0)" fill="#000000"/><rect x="320" y="20" height="70" width="70" style="mask:url(#mask-corners-square-color-1-0-0-0)" fill="#000000"/><rect x="340" y="40" height="30" width="30" style="mask:url(#mask-corners-dot-color-1-0-0-0)" fill="#000000"/><rect x="20" y="320" height="70" width="70" style="mask:url(#mask-corners-square-color-0-1-0-0)" fill="#000000"/><rect x="40" y="340" height="30" width="30" style="mask:url(#mask-corners-dot-color-0-1-0-0)" fill="#000000"/></g></g></svg>