<?xml version="1.0" standalone="no"?>
<svg width="410" height="410" viewBox="0 0 410 410" xmlns="http://www.w3.org/2000/svg"><defs><mask id="mask-background-color-2-2" maskUnits="userSpaceOnUse" x="0" y="0" width="410" height="410"><g fill="#fff"><rect x="0" y="0" width="410" height="410" rx="0"/></g></mask><mask id="mask-dot-color-2-2" maskUnits="userSpaceOnUse" x="0" y="0" width="410" height="410"><g fill="#fff"><path d="M 20 140 v 10 h 5 a 5 5, 0, 0, 0, 0 -10 z" transform="rotate(-90,25,145)"/><rect x="20" y="150" width="10" height="10" transform="rotate(0,25,155)"/><rect x="20" y="160" width="10" height="10" transform="rotate(0,25,165)"/><rect x="20" y="170" width="10" height="10" transform="rotate(0,25,175)"/><rect x="20" y="180" width="10" height="10" transform="rotate(0,25,185)"/><rect x="20" y="190" width="10" height="10" transform="rotate(0,25,195)"/><rect x="20" y="200" width="10" height="10" transform="rotate(0,25,205)"/><path d="M 20 210 v 10 h 5 a 5 5, 0, 0, 0, 0 -10 z" transform="rotate(90,25,215)"/><path d="M 20 230 v 10 h 5 a 5 5, 0, 0, 0, 0 -10 z" transform="rotate(-90,25,235)"/><path d="M 20 240 v 10 h 5 a 5 5, 0, 0, 0, 0 -10 z" transform="rotate(90,25,245)"/><path d="M 20 260 v 10 h 5 a 5 5, 0, 0, 0, 0 -10 z" transform="rotate(-90,25,265)"/><path d="M 20 270 v 10 h 5 a 5 5, 0, 0, 0, 0 -10 z" transform="rotate(90,25,275)"/><circle cx="25" cy="305" r="5" transform="rotate(0,25,305)"/><path d="M 30 100 v 10 h 5 a 5 5, 0, 0, 0, 0 -10 z" transform="rotate(-90,35,105)"/><rect x="30" y="110" width="10" height="10" transform="rotate(0,35,115)"/><rect x="30" y="120" width="10" height="10" transform="rotate(0,35,125)"/><path d="M 30 130 v 10 h 5 a 5 5, 0, 0, 0, 0 -10 z" transform="rotate(90,35,135)"/><path d="M 30 180 v 10 h 5 a 5 5, 0, 0, 0, 0 -10 z" transform="rotate(-90,35,185)"/><rect x="30" y="190" width="10" height="10" transform="rotate(0,35,195)"/><path d="M 30 200 v 10 h 5 a 5 5, 0, 0, 0, 0 -10 z" transform="rotate(90,35,205)"/><path d="M 30 240 v 10 h 5 a 5 5, 0, 0, 0, 0 -10 z" transform="rotate(-90,35,245)"/><path d="M 30 250 v 10 h 5 a 5 5, 0, 0, 0, 0 -10 z" transform="rotate(90,35,255)"/><circle cx="35" cy="275" r="5" transform="rotate(0,35,275)"/><circle cx="35" cy="305" r="5" transform="rotate(0,35,305)"/><circle cx="45" cy="135" r="5" transform="rotate(0,45,135)"/><path d="M 40 160 v 10 h 5 a 5 5, 0, 0, 0, 0 -10 z" transform="rotate(-90,45,165)"/><rect x="40" y="170" width="10" height="10" transform="rotate(0,45,175)"/><path d="M 40 180 v 10 h 5 a 5 5, 0, 0, 0, 0 -10 z" transform="rotate(90,45,185)"/><path d="M 40 220 v 10 h 5 a 5 5, 0, 0, 0, 0 -10 z" transform="rotate(-90,45,225)"/><rect x="40" y="230" width="10" height="10" transform="rotate(0,45,235)"/><rect x="40" y="240" width="10" height="10" transform="rotate(0,45,245)"/><path d="M 40 250 v 10 h 5 a 5 5, 0, 0, 0, 0 -10 z" transform="rotate(90,45,255)"/><path d="M 50 120 v 10 h 5 a 5 5, 0, 0, 0, 0 -10 z" transform="rotate(-90,55,125)"/><rect x="50" y="130" width="10" height="10" transform="rotate(0,55,135)"/><rect x="50" y="140" width="10" height="10" transform="rotate(0,55,145)"/><path d="M 50 150 v 10 h 5 a 5 5, 0, 0, 0, 0 -10 z" transform="rotate(90,55,155)"/><circle cx="55" cy="175" r="5" transform="rotate(0,55,175)"/><path d="M 50 230 v 10 h 5 a 5 5, 0, 0, 0, 0 -10 z" transform="rotate(-90,55,235)"/><rect x="50" y="240" width="10" height="10" transform="rotate(0,55,245)"/><path d="M 50 250 v 10 h 5 a 5 5, 0, 0, 0, 0 -10 z" transform="rotate(90,55,255)"/><path d="M 50 270 v 10 h 5 a 5 5, 0, 0, 0, 0 -10 z" transform="rotate(-90,55,275)"/><rect x="50" y="280" width="10" height="10" transform="rotate(0,55,285)"/><path d="M 50 290 v 10 h 5 a 5 5, 0, 0, 0, 0 -10 z" transform="rotate(90,55,295)"/><circle cx="65" cy="105" r="5" transform="rotate(0,65,105)"/><circle cx="65" cy="155" r="5" transform="rotate(0,65,155)"/><circle cx="65" cy="185" r="5" transform="rotate(0,65,185)"/><circle cx="65" cy="225" r="5" transform="rotate(0,65,225)"/><circle cx="65" cy="255" r="5" transform="rotate(0,65,255)"/><circle cx="65" cy="275" r="5" transform="rotate(0,65,275)"/><circle cx="65" cy="295" r="5" transform="rotate(0,65,295)"/><circle cx="75" cy="115" r="5" transform="rotate(0,75,115)"/><path d="M 70 160 v 10 h 5 a 5 5, 0, 0, 0, 0 -10 z" transform="rotate(-90,75,165)"/><rect x="70" y="170" width="10" height="10" transform="rotate(0,75,175)"/><rect x="70" y="180" width="10" height="10" transform="rotate(0,75,185)"/><path d="M 70 190 v 10 h 5 a 5 5, 0, 0, 0, 0 -10 z" transform="rotate(90,75,195)"/><path d="M 70 210 v 10 h 5 a 5 5, 0, 0, 0, 0 -10 z" transform="rotate(-90,75,215)"/><path d="M 70 220 v 10 h 5 a 5 5, 0, 0, 0, 0 -10 z" transform="rotate(90,75,225)"/><path d="M 70 240 v 10 h 5 a 5 5, 0, 0, 0, 0 -10 z" transform="rotate(-90,75,245)"/><path d="M 70 250 v 10 h 5 a 5 5, 0, 0, 0, 0 -10 z" transform="rotate(90,75,255)"/><path d="M 70 270 v 10 h 5 a 5 5, 0, 0, 0, 0 -10 z" transform="rotate(-90,75,275)"/><path d="M 70 280 v 10 h 5 a 5 5, 0, 0, 0, 0 -10 z" transform="rotate(90,75,285)"/><circle cx="85" cy="105" r="5" transform="rotate(0,85,105)"/><circle cx="85" cy="125" r="5" transform="rotate(0,85,125)"/><circle cx="85" cy="145" r="5" transform="rotate(0,85,145)"/><circle cx="85" cy="165" r="5" transform="rotate(0,85,165)"/><circle cx="85" cy="185" r="5" transform="rotate(0,85,185)"/><circle cx="85" cy="205" r="5" transform="rotate(0,85,205)"/><circle cx="85" cy="225" r="5" transform="rotate(0,85,225)"/><circle cx="85" cy="245" r="5" transform="rotate(0,85,245)"/><circle cx="85" cy="265" r="5" transform="rotate(0,85,265)"/><circle cx="85" cy="285" r="5" transform="rotate(0,85,285)"/><circle cx="85" cy="305" r="5" transform="rotate(0,85,305)"/><circle cx="95" cy="115" r="5" transform="rotate(0,95,115)"/><path d="M 90 130 v 10 h 5 a 5 5, 0, 0, 0, 0 -10 z" transform="rotate(-90,95,135)"/><rect x="90" y="140" width="10" height="10" transform="rotate(0,95,145)"/><rect x="90" y="150" width="10" height="10" transform="rotate(0,95,155)"/><rect x="90" y="160" width="10" height="10" transform="rotate(0,95,165)"/><path d="M 90 170 v 10 h 5 a 5 5, 0, 0, 0, 0 -10 z" transform="rotate(90,95,175)"/><path d="M 90 200 v 10 h 5 a 5 5, 0, 0, 0, 0 -10 z" transform="rotate(-90,95,205)"/><rect x="90" y="210" width="10" height="10" transform="rotate(0,95,215)"/><path d="M 90 220 v 10 h 5 a 5 5, 0, 0, 0, 0 -10 z" transform="rotate(90,95,225)"/><circle cx="95" cy="275" r="5" transform="rotate(0,95,275)"/><path d="M 90 290 v 10 h 5 a 5 5, 0, 0, 0, 0 -10 z" transform="rotate(-90,95,295)"/><path d="M 90 300 v 10 h 5 a 5 5, 0, 0, 0, 0 -10 z" transform="rotate(90,95,305)"/><circle cx="105" cy="45" r="5" transform="rotate(0,105,45)"/><path d="M 100 60 v 10 h 5 a 5 5, 0, 0, 0, 0 -10 z" transform="rotate(-90,105,65)"/><rect x="100" y="70" width="10" height="10" transform="rotate(0,105,75)"/><path d="M 100 80 v 10 h 5 a 5 5, 0, 0, 0, 0 -10 z" transform="rotate(90,105,85)"/><circle cx="105" cy="105" r="5" transform="rotate(0,105,105)"/><circle cx="105" cy="135" r="5" transform="rotate(0,105,135)"/><path d="M 100 220 v 10 h 5 a 5 5, 0, 0, 0, 0 -10 z" transform="rotate(-90,105,225)"/><rect x="100" y="230" width="10" height="10" transform="rotate(0,105,235)"/><rect x="100" y="240" width="10" height="10" transform="rotate(0,105,245)"/><rect x="100" y="250" width="10" height="10" transform="rotate(0,105,255)"/><path d="M 100 260 v 10 h 5 a 5 5, 0, 0, 0, 0 -10 z" transform="rotate(90,105,265)"/><path d="M 100 280 v 10 h 5 a 5 5, 0, 0, 0, 0 -10 z" transform="rotate(-90,105,285)"/><path d="M 100 290 v 10 h 5 a 5 5, 0, 0, 0, 0 -10 z" transform="rotate(90,105,295)"/><circle cx="105" cy="315" r="5" transform="rotate(0,105,315)"/><circle cx="105" cy="345" r="5" transform="rotate(0,105,345)"/><circle cx="105" cy="375" r="5" transform="rotate(0,105,375)"/><circle cx="115" cy="25" r="5" transform="rotate(0,115,25)"/><circle cx="115" cy="105" r="5" transform="rotate(0,115,105)"/><path d="M 110 130 v 10 h 5 a 5 5, 0, 0, 0, 0 -10 z" transform="rotate(-90,115,135)"/><path d="M 110 140 v 10 h 5 a 5 5, 0, 0, 0, 0 -10 z" transform="rotate(90,115,145)"/><path d="M 110 170 v 10 h 5 a 5 5, 0, 0, 0, 0 -10 z" transform="rotate(-90,115,175)"/><path d="M 110 180 v 10 h 5 a 5 5, 0, 0, 0, 0 -10 z" transform="rotate(90,115,185)"/><circle cx="115" cy="255" r="5" transform="rotate(0,115,255)"/><path d="M 110 280 v 10 h 5 a 5 5, 0, 0, 0, 0 -10 z" transform="rotate(-90,115,285)"/><path d="M 110 290 v 10 h 5 a 5 5, 0, 0, 0, 0 -10 z" transform="rotate(90,115,295)"/><circle cx="115" cy="355" r="5" transform="rotate(0,115,355)"/><circle cx="115" cy="385" r="5" transform="rotate(0,115,385)"/><path d="M 120 30 v 10 h 5 a 5 5, 0, 0, 0, 0 -10 z" transform="rotate(-90,125,35)"/><rect x="120" y="40" width="10" height="10" transform="rotate(0,125,45)"/><rect x="120" y="50" width="10" height="10" transform="rotate(0,125,55)"/><rect x="120" y="60" width="10" height="10" transform="rotate(0,125,65)"/><rect x="120" y="70" width="10" height="10" transform="rotate(0,125,75)"/><path d="M 120 80 v 10 h 5 a 5 5, 0, 0, 0, 0 -10 z" transform="rotate(90,125,85)"/><circle cx="125" cy="135" r="5" transform="rotate(0,125,135)"/><circle cx="125" cy="155" r="5" transform="rotate(0,125,155)"/><circle cx="125" cy="185" r="5" transform="rotate(0,125,185)"/><path d="M 120 200 v 10 h 5 a 5 5, 0, 0, 0, 0 -10 z" transform="rotate(-90,125,205)"/><rect x="120" y="210" width="10" height="10" transform="rotate(0,125,215)"/><rect x="120" y="220" width="10" height="10" transform="rotate(0,125,225)"/><path d="M 120 230 v 10 h 5 a 5 5, 0, 0, 0, 0 -10 z" transform="rotate(90,125,235)"/><path d="M 120 290 v 10 h 5 a 5 5, 0, 0, 0, 0 -10 z" transform="rotate(-90,125,295)"/><rect x="120" y="300" width="10" height="10" transform="rotate(0,125,305)"/><path d="M 120 310 v 10 h 5 a 5 5, 0, 0, 0, 0 -10 z" transform="rotate(90,125,315)"/><circle cx="125" cy="345" r="5" transform="rotate(0,125,345)"/><path d="M 120 360 v 10 h 5 a 5 5, 0, 0, 0, 0 -10 z" transform="rotate(-90,125,365)"/><path d="M 120 370 v 10 h 5 a 5 5, 0, 0, 0, 0 -10 z" transform="rotate(90,125,375)"/><circle cx="135" cy="35" r="5" transform="rotate(0,135,35)"/><path d="M 130 50 v 10 h 5 a 5 5, 0, 0, 0, 0 -10 z" transform="rotate(-90,135,55)"/><rect x="130" y="60" width="10" height="10" transform="rotate(0,135,65)"/><path d="M 130 70 v 10 h 5 a 5 5, 0, 0, 0, 0 -10 z" transform="rotate(90,135,75)"/><path d="M 130 100 v 10 h 5 a 5 5, 0, 0, 0, 0 -10 z" transform="rotate(-90,135,105)"/><path d="M 130 110 v 10 h 5 a 5 5, 0, 0, 0, 0 -10 z" transform="rotate(90,135,115)"/><path d="M 130 130 v 10 h 5 a 5 5, 0, 0, 0, 0 -10 z" transform="rotate(-90,135,135)"/><path d="M 130 140 v 10 h 5 a 5 5, 0, 0, 0, 0 -10 z" transform="rotate(90,135,145)"/><circle cx="135" cy="175" r="5" transform="rotate(0,135,175)"/><circle cx="135" cy="195" r="5" transform="rotate(0,135,195)"/><circle cx="135" cy="235" r="5" transform="rotate(0,135,235)"/><path d="M 130 250 v 10 h 5 a 5 5, 0, 0, 0, 0 -10 z" transform="rotate(-90,135,255)"/><rect x="130" y="260" width="10" height="10" transform="rotate(0,135,265)"/><rect x="130" y="270" width="10" height="10" transform="rotate(0,135,275)"/><rect x="130" y="280" width="10" height="10" transform="rotate(0,135,285)"/><path d="M 130 290 v 10 h 5 a 5 5, 0, 0, 0, 0 -10 z" transform="rotate(90,135,295)"/><path d="M 130 330 v 10 h 5 a 5 5, 0, 0, 0, 0 -10 z" transform="rotate(-90,135,335)"/><path d="M 130 340 v 10 h 5 a 5 5, 0, 0, 0, 0 -10 z" transform="rotate(90,135,345)"/><circle cx="135" cy="375" r="5" transform="rotate(0,135,375)"/><path d="M 140 30 v 10 h 5 a 5 5, 0, 0, 0, 0 -10 z" transform="rotate(-90,145,35)"/><rect x="140" y="40" width="10" height="10" transform="rotate(0,145,45)"/><path d="M 140 50 v 10 h 5 a 5 5, 0, 0, 0, 0 -10 z" transform="rotate(90,145,55)"/><path d="M 140 70 v 10 h 5 a 5 5, 0, 0, 0, 0 -10 z" transform="rotate(-90,145,75)"/><path d="M 140 80 v 10 h 5 a 5 5, 0, 0, 0, 0 -10 z" transform="rotate(90,145,85)"/><circle cx="145" cy="105" r="5" transform="rotate(0,145,105)"/><circle cx="145" cy="135" r="5" transform="rotate(0,145,135)"/><path d="M 140 150 v 10 h 5 a 5 5, 0, 0, 0, 0 -10 z" transform="rotate(-90,145,155)"/><path d="M 140 160 v 10 h 5 a 5 5, 0, 0, 0, 0 -10 z" transform="rotate(90,145,165)"/><circle cx="145" cy="195" r="5" transform="rotate(0,145,195)"/><path d="M 140 250 v 10 h 5 a 5 5, 0, 0, 0, 0 -10 z" transform="rotate(-90,145,255)"/><path d="M 140 260 v 10 h 5 a 5 5, 0, 0, 0, 0 -10 z" transform="rotate(90,145,265)"/><path d="M 140 290 v 10 h 5 a 5 5, 0, 0, 0, 0 -10 z" transform="rotate(-90,145,295)"/><rect x="140" y="300" width="10" height="10" transform="rotate(0,145,305)"/><rect x="140" y="310" width="10" height="10" transform="rotate(0,145,315)"/><path d="M 140 320 v 10 h 5 a 5 5, 0, 0, 0, 0 -10 z" transform="rotate(90,145,325)"/><path d="M 140 340 v 10 h 5 a 5 5, 0, 0, 0, 0 -10 z" transform="rotate(-90,145,345)"/><rect x="140" y="350" width="10" height="10" transform="rotate(0,145,355)"/><rect x="140" y="360" width="10" height="10" transform="rotate(0,145,365)"/><rect x="140" y="370" width="10" height="10" transform="rotate(0,145,375)"/><path d="M 140 380 v 10 h 5 a 5 5, 0, 0, 0, 0 -10 z" transform="rotate(90,145,385)"/><circle cx="155" cy="45" r="5" transform="rotate(0,155,45)"/><path d="M 150 60 v 10 h 5 a 5 5, 0, 0, 0, 0 -10 z" transform="rotate(-90,155,65)"/><path d="M 150 70 v 10 h 5 a 5 5, 0, 0, 0, 0 -10 z" transform="rotate(90,155,75)"/><path d="M 150 170 v 10 h 5 a 5 5, 0, 0, 0, 0 -10 z" transform="rotate(-90,155,175)"/><rect x="150" y="180" width="10" height="10" transform="rotate(0,155,185)"/><rect x="150" y="190" width="10" height="10" transform="rotate(0,155,195)"/><path d="M 150 200 v 10 h 5 a 5 5, 0, 0, 0, 0 -10 z" transform="rotate(90,155,205)"/><circle cx="155" cy="245" r="5" transform="rotate(0,155,245)"/><circle cx="155" cy="295" r="5" transform="rotate(0,155,295)"/><path d="M 150 320 v 10 h 5 a 5 5, 0, 0, 0, 0 -10 z" transform="rotate(-90,155,325)"/><path d="M 150 330 v 10 h 5 a 5 5, 0, 0, 0, 0 -10 z" transform="rotate(90,155,335)"/><path d="M 150 350 v 10 h 5 a 5 5, 0, 0, 0, 0 -10 z" transform="rotate(-90,155,355)"/><path d="M 150 360 v 10 h 5 a 5 5, 0, 0, 0, 0 -10 z" transform="rotate(90,155,365)"/><circle cx="165" cy="35" r="5" transform="rotate(0,165,35)"/><path d="M 160 50 v 10 h 5 a 5 5, 0, 0, 0, 0 -10 z" transform="rotate(-90,165,55)"/><rect x="160" y="60" width="10" height="10" transform="rotate(0,165,65)"/><rect x="160" y="70" width="10" height="10" transform="rotate(0,165,75)"/><path d="M 160 80 v 10 h 5 a 5 5, 0, 0, 0, 0 -10 z" transform="rotate(90,165,85)"/><circle cx="165" cy="145" r="5" transform="rotate(0,165,145)"/><circle cx="165" cy="185" r="5" transform="rotate(0,165,185)"/><path d="M 160 200 v 10 h 5 a 5 5, 0, 0, 0, 0 -10 z" transform="rotate(-90,165,205)"/><rect x="160" y="210" width="10" height="10" transform="rotate(0,165,215)"/><rect x="160" y="220" width="10" height="10" transform="rotate(0,165,225)"/><path d="M 160 230 v 10 h 5 a 5 5, 0, 0, 0, 0 -10 z" transform="rotate(90,165,235)"/><path d="M 160 250 v 10 h 5 a 5 5, 0, 0, 0, 0 -10 z" transform="rotate(-90,165,255)"/><path d="M 160 260 v 10 h 5 a 5 5, 0, 0, 0, 0 -10 z" transform="rotate(90,165,265)"/><circle cx="165" cy="285" r="5" transform="rotate(0,165,285)"/><circle cx="165" cy="305" r="5" transform="rotate(0,165,305)"/><path d="M 160 330 v 10 h 5 a 5 5, 0, 0, 0, 0 -10 z" transform="rotate(-90,165,335)"/><rect x="160" y="340" width="10" height="10" transform="rotate(0,165,345)"/><rect x="160" y="350" width="10" height="10" transform="rotate(0,165,355)"/><rect x="160" y="360" width="10" height="10" transform="rotate(0,165,365)"/><rect x="160" y="370" width="10" height="10" transform="rotate(0,165,375)"/><path d="M 160 380 v 10 h 5 a 5 5, 0, 0, 0, 0 -10 z" transform="rotate(90,165,385)"/><path d="M 170 20 v 10 h 5 a 5 5, 0, 0, 0, 0 -10 z" transform="rotate(-90,175,25)"/><rect x="170" y="30" width="10" height="10" transform="rotate(0,175,35)"/><path d="M 170 40 v 10 h 5 a 5 5, 0, 0, 0, 0 -10 z" transform="rotate(90,175,45)"/><circle cx="175" cy="65" r="5" transform="rotate(0,175,65)"/><circle cx="175" cy="105" r="5" transform="rotate(0,175,105)"/><circle cx="175" cy="125" r="5" transform="rotate(0,175,125)"/><path d="M 170 150 v 10 h 5 a 5 5, 0, 0, 0, 0 -10 z" transform="rotate(-90,175,155)"/><rect x="170" y="160" width="10" height="10" transform="rotate(0,175,165)"/><rect x="170" y="170" width="10" height="10" transform="rotate(0,175,175)"/><path d="M 170 180 v 10 h 5 a 5 5, 0, 0, 0, 0 -10 z" transform="rotate(90,175,185)"/><path d="M 170 210 v 10 h 5 a 5 5, 0, 0, 0, 0 -10 z" transform="rotate(-90,175,215)"/><rect x="170" y="220" width="10" height="10" transform="rotate(0,175,225)"/><rect x="170" y="230" width="10" height="10" transform="rotate(0,175,235)"/><rect x="170" y="240" width="10" height="10" transform="rotate(0,175,245)"/><path d="M 170 250 v 10 h 5 a 5 5, 0, 0, 0, 0 -10 z" transform="rotate(90,175,255)"/><circle cx="175" cy="275" r="5" transform="rotate(0,175,275)"/><circle cx="175" cy="295" r="5" transform="rotate(0,175,295)"/><path d="M 170 320 v 10 h 5 a 5 5, 0, 0, 0, 0 -10 z" transform="rotate(-90,175,325)"/><rect x="170" y="330" width="10" height="10" transform="rotate(0,175,335)"/><path d="M 170 340 v 10 h 5 a 5 5, 0, 0, 0, 0 -10 z" transform="rotate(90,175,345)"/><path d="M 170 370 v 10 h 5 a 5 5, 0, 0, 0, 0 -10 z" transform="rotate(-90,175,375)"/><path d="M 170 380 v 10 h 5 a 5 5, 0, 0, 0, 0 -10 z" transform="rotate(90,175,385)"/><circle cx="185" cy="35" r="5" transform="rotate(0,185,35)"/><circle cx="185" cy="55" r="5" transform="rotate(0,185,55)"/><circle cx="185" cy="85" r="5" transform="rotate(0,185,85)"/><path d="M 180 100 v 10 h 5 a 5 5, 0, 0, 0, 0 -10 z" transform="rotate(-90,185,105)"/><path d="M 180 110 v 10 h 5 a 5 5, 0, 0, 0, 0 -10 z" transform="rotate(90,185,115)"/><circle cx="185" cy="145" r="5" transform="rotate(0,185,145)"/><circle cx="185" cy="165" r="5" transform="rotate(0,185,165)"/><circle cx="185" cy="225" r="5" transform="rotate(0,185,225)"/><circle cx="185" cy="265" r="5" transform="rotate(0,185,265)"/><circle cx="185" cy="285" r="5" transform="rotate(0,185,285)"/><circle cx="185" cy="305" r="5" transform="rotate(0,185,305)"/><circle cx="185" cy="325" r="5" transform="rotate(0,185,325)"/><path d="M 180 350 v 10 h 5 a 5 5, 0, 0, 0, 0 -10 z" transform="rotate(-90,185,355)"/><path d="M 180 360 v 10 h 5 a 5 5, 0, 0, 0, 0 -10 z" transform="rotate(90,185,365)"/><circle cx="195" cy="25" r="5" transform="rotate(0,195,25)"/><circle cx="195" cy="55" r="5" transform="rotate(0,195,55)"/><circle cx="195" cy="95" r="5" transform="rotate(0,195,95)"/><path d="M 190 120 v 10 h 5 a 5 5, 0, 0, 0, 0 -10 z" transform="rotate(-90,195,125)"/><path d="M 190 130 v 10 h 5 a 5 5, 0, 0, 0, 0 -10 z" transform="rotate(90,195,135)"/><circle cx="195" cy="155" r="5" transform="rotate(0,195,155)"/><path d="M 190 190 v 10 h 5 a 5 5, 0, 0, 0, 0 -10 z" transform="rotate(-90,195,195)"/><path d="M 190 200 v 10 h 5 a 5 5, 0, 0, 0, 0 -10 z" transform="rotate(90,195,205)"/><circle cx="195" cy="225" r="5" transform="rotate(0,195,225)"/><path d="M 190 240 v 10 h 5 a 5 5, 0, 0, 0, 0 -10 z" transform="rotate(-90,195,245)"/><path d="M 190 250 v 10 h 5 a 5 5, 0, 0, 0, 0 -10 z" transform="rotate(90,195,255)"/><circle cx="195" cy="275" r="5" transform="rotate(0,195,275)"/><path d="M 190 290 v 10 h 5 a 5 5, 0, 0, 0, 0 -10 z" transform="rotate(-90,195,295)"/><path d="M 190 300 v 10 h 5 a 5 5, 0, 0, 0, 0 -10 z" transform="rotate(90,195,305)"/><circle cx="195" cy="325" r="5" transform="rotate(0,195,325)"/><circle cx="195" cy="355" r="5" transform="rotate(0,195,355)"/><circle cx="195" cy="375" r="5" transform="rotate(0,195,375)"/><path d="M 200 30 v 10 h 5 a 5 5, 0, 0, 0, 0 -10 z" transform="rotate(-90,205,35)"/><rect x="200" y="40" width="10" height="10" transform="rotate(0,205,45)"/><path d="M 200 50 v 10 h 5 a 5 5, 0, 0, 0, 0 -10 z" transform="rotate(90,205,55)"/><circle cx="205" cy="85" r="5" transform="rotate(0,205,85)"/><path d="M 200 100 v 10 h 5 a 5 5, 0, 0, 0, 0 -10 z" transform="rotate(-90,205,105)"/><path d="M 200 110 v 10 h 5 a 5 5, 0, 0, 0, 0 -10 z" transform="rotate(90,205,115)"/><path d="M 200 130 v 10 h 5 a 5 5, 0, 0, 0, 0 -10 z" transform="rotate(-90,205,135)"/><path d="M 200 140 v 10 h 5 a 5 5, 0, 0, 0, 0 -10 z" transform="rotate(90,205,145)"/><circle cx="205" cy="175" r="5" transform="rotate(0,205,175)"/><path d="M 200 200 v 10 h 5 a 5 5, 0, 0, 0, 0 -10 z" transform="rotate(-90,205,205)"/><rect x="200" y="210" width="10" height="10" transform="rotate(0,205,215)"/><path d="M 200 220 v 10 h 5 a 5 5, 0, 0, 0, 0 -10 z" transform="rotate(90,205,225)"/><circle cx="205" cy="275" r="5" transform="rotate(0,205,275)"/><circle cx="205" cy="305" r="5" transform="rotate(0,205,305)"/><circle cx="205" cy="325" r="5" transform="rotate(0,205,325)"/><path d="M 210 20 v 10 h 5 a 5 5, 0, 0, 0, 0 -10 z" transform="rotate(-90,215,25)"/><path d="M 210 30 v 10 h 5 a 5 5, 0, 0, 0, 0 -10 z" transform="rotate(90,215,35)"/><circle cx="215" cy="75" r="5" transform="rotate(0,215,75)"/><path d="M 210 90 v 10 h 5 a 5 5, 0, 0, 0, 0 -10 z" transform="rotate(-90,215,95)"/><path d="M 210 100 v 10 h 5 a 5 5, 0, 0, 0, 0 -10 z" transform="rotate(90,215,105)"/><path d="M 210 120 v 10 h 5 a 5 5, 0, 0, 0, 0 -10 z" transform="rotate(-90,215,125)"/><rect x="210" y="130" width="10" height="10" transform="rotate(0,215,135)"/><rect x="210" y="140" width="10" height="10" transform="rotate(0,215,145)"/><rect x="210" y="150" width="10" height="10" transform="rotate(0,215,155)"/><rect x="210" y="160" width="10" height="10" transform="rotate(0,215,165)"/><path d="M 210 170 v 10 h 5 a 5 5, 0, 0, 0, 0 -10 z" transform="rotate(90,215,175)"/><path d="M 210 190 v 10 h 5 a 5 5, 0, 0, 0, 0 -10 z" transform="rotate(-90,215,195)"/><path d="M 210 200 v 10 h 5 a 5 5, 0, 0, 0, 0 -10 z" transform="rotate(90,215,205)"/><circle cx="215" cy="235" r="5" transform="rotate(0,215,235)"/><circle cx="215" cy="265" r="5" transform="rotate(0,215,265)"/><circle cx="215" cy="285" r="5" transform="rotate(0,215,285)"/><circle cx="215" cy="335" r="5" transform="rotate(0,215,335)"/><circle cx="215" cy="355" r="5" transform="rotate(0,215,355)"/><circle cx="225" cy="25" r="5" transform="rotate(0,225,25)"/><circle cx="225" cy="45" r="5" transform="rotate(0,225,45)"/><circle cx="225" cy="65" r="5" transform="rotate(0,225,65)"/><circle cx="225" cy="85" r="5" transform="rotate(0,225,85)"/><circle cx="225" cy="115" r="5" transform="rotate(0,225,115)"/><path d="M 220 150 v 10 h 5 a 5 5, 0, 0, 0, 0 -10 z" transform="rotate(-90,225,155)"/><rect x="220" y="160" width="10" height="10" transform="rotate(0,225,165)"/><path d="M 220 170 v 10 h 5 a 5 5, 0, 0, 0, 0 -10 z" transform="rotate(90,225,175)"/><circle cx="225" cy="215" r="5" transform="rotate(0,225,215)"/><circle cx="225" cy="245" r="5" transform="rotate(0,225,245)"/><circle cx="225" cy="265" r="5" transform="rotate(0,225,265)"/><path d="M 220 280 v 10 h 5 a 5 5, 0, 0, 0, 0 -10 z" transform="rotate(-90,225,285)"/><path d="M 220 290 v 10 h 5 a 5 5, 0, 0, 0, 0 -10 z" transform="rotate(90,225,295)"/><circle cx="225" cy="315" r="5" transform="rotate(0,225,315)"/><path d="M 220 340 v 10 h 5 a 5 5, 0, 0, 0, 0 -10 z" transform="rotate(-90,225,345)"/><rect x="220" y="350" width="10" height="10" transform="rotate(0,225,355)"/><rect x="220" y="360" width="10" height="10" transform="rotate(0,225,365)"/><rect x="220" y="370" width="10" height="10" transform="rotate(0,225,375)"/><path d="M 220 380 v 10 h 5 a 5 5, 0, 0, 0, 0 -10 z" transform="rotate(90,225,385)"/><circle cx="235" cy="45" r="5" transform="rotate(0,235,45)"/><path d="M 230 90 v 10 h 5 a 5 5, 0, 0, 0, 0 -10 z" transform="rotate(-90,235,95)"/><rect x="230" y="100" width="10" height="10" transform="rotate(0,235,105)"/><path d="M 230 110 v 10 h 5 a 5 5, 0, 0, 0, 0 -10 z" transform="rotate(90,235,115)"/><path d="M 230 130 v 10 h 5 a 5 5, 0, 0, 0, 0 -10 z" transform="rotate(-90,235,135)"/><path d="M 230 140 v 10 h 5 a 5 5, 0, 0, 0, 0 -10 z" transform="rotate(90,235,145)"/><path d="M 230 160 v 10 h 5 a 5 5, 0, 0, 0, 0 -10 z" transform="rotate(-90,235,165)"/><rect x="230" y="170" width="10" height="10" transform="rotate(0,235,175)"/><path d="M 230 180 v 10 h 5 a 5 5, 0, 0, 0, 0 -10 z" transform="rotate(90,235,185)"/><path d="M 230 210 v 10 h 5 a 5 5, 0, 0, 0, 0 -10 z" transform="rotate(-90,235,215)"/><rect x="230" y="220" width="10" height="10" transform="rotate(0,235,225)"/><rect x="230" y="230" width="10" height="10" transform="rotate(0,235,235)"/><rect x="230" y="240" width="10" height="10" transform="rotate(0,235,245)"/><path d="M 230 250 v 10 h 5 a 5 5, 0, 0, 0, 0 -10 z" transform="rotate(90,235,255)"/><path d="M 230 280 v 10 h 5 a 5 5, 0, 0, 0, 0 -10 z" transform="rotate(-90,235,285)"/><rect x="230" y="290" width="10" height="10" transform="rotate(0,235,295)"/><path d="M 230 300 v 10 h 5 a 5 5, 0, 0, 0, 0 -10 z" transform="rotate(90,235,305)"/><path d="M 230 330 v 10 h 5 a 5 5, 0, 0, 0, 0 -10 z" transform="rotate(-90,235,335)"/><path d="M 230 340 v 10 h 5 a 5 5, 0, 0, 0, 0 -10 z" transform="rotate(90,235,345)"/><path d="M 230 370 v 10 h 5 a 5 5, 0, 0, 0, 0 -10 z" transform="rotate(-90,235,375)"/><path d="M 230 380 v 10 h 5 a 5 5, 0, 0, 0, 0 -10 z" transform="rotate(90,235,385)"/><path d="M 240 30 v 10 h 5 a 5 5, 0, 0, 0, 0 -10 z" transform="rotate(-90,245,35)"/><rect x="240" y="40" width="10" height="10" transform="rotate(0,245,45)"/><rect x="240" y="50" width="10" height="10" transform="rotate(0,245,55)"/><path d="M 240 60 v 10 h 5 a 5 5, 0, 0, 0, 0 -10 z" transform="rotate(90,245,65)"/><circle cx="245" cy="85" r="5" transform="rotate(0,245,85)"/><path d="M 240 100 v 10 h 5 a 5 5, 0, 0, 0, 0 -10 z" transform="rotate(-90,245,105)"/><path d="M 240 110 v 10 h 5 a 5 5, 0, 0, 0, 0 -10 z" transform="rotate(90,245,115)"/><path d="M 240 140 v 10 h 5 a 5 5, 0, 0, 0, 0 -10 z" transform="rotate(-90,245,145)"/><path d="M 240 150 v 10 h 5 a 5 5, 0, 0, 0, 0 -10 z" transform="rotate(90,245,155)"/><circle cx="245" cy="205" r="5" transform="rotate(0,245,205)"/><path d="M 240 220 v 10 h 5 a 5 5, 0, 0, 0, 0 -10 z" transform="rotate(-90,245,225)"/><rect x="240" y="230" width="10" height="10" transform="rotate(0,245,235)"/><path d="M 240 240 v 10 h 5 a 5 5, 0, 0, 0, 0 -10 z" transform="rotate(90,245,245)"/><circle cx="245" cy="265" r="5" transform="rotate(0,245,265)"/><path d="M 240 300 v 10 h 5 a 5 5, 0, 0, 0, 0 -10 z" transform="rotate(-90,245,305)"/><rect x="240" y="310" width="10" height="10" transform="rotate(0,245,315)"/><rect x="240" y="320" width="10" height="10" transform="rotate(0,245,325)"/><rect x="240" y="330" width="10" height="10" transform="rotate(0,245,335)"/><rect x="240" y="340" width="10" height="10" transform="rotate(0,245,345)"/><rect x="240" y="350" width="10" height="10" transform="rotate(0,245,355)"/><rect x="240" y="360" width="10" height="10" transform="rotate(0,245,365)"/><path d="M 240 370 v 10 h 5 a 5 5, 0, 0, 0, 0 -10 z" transform="rotate(90,245,375)"/><circle cx="255" cy="25" r="5" transform="rotate(0,255,25)"/><path d="M 250 40 v 10 h 5 a 5 5, 0, 0, 0, 0 -10 z" transform="rotate(-90,255,45)"/><rect x="250" y="50" width="10" height="10" transform="rotate(0,255,55)"/><path d="M 250 60 v 10 h 5 a 5 5, 0, 0, 0, 0 -10 z" transform="rotate(90,255,65)"/><path d="M 250 90 v 10 h 5 a 5 5, 0, 0, 0, 0 -10 z" transform="rotate(-90,255,95)"/><rect x="250" y="100" width="10" height="10" transform="rotate(0,255,105)"/><rect x="250" y="110" width="10" height="10" transform="rotate(0,255,115)"/><rect x="250" y="120" width="10" height="10" transform="rotate(0,255,125)"/><rect x="250" y="130" width="10" height="10" transform="rotate(0,255,135)"/><rect x="250" y="140" width="10" height="10" transform="rotate(0,255,145)"/><rect x="250" y="150" width="10" height="10" transform="rotate(0,255,155)"/><path d="M 250 160 v 10 h 5 a 5 5, 0, 0, 0, 0 -10 z" transform="rotate(90,255,165)"/><path d="M 250 190 v 10 h 5 a 5 5, 0, 0, 0, 0 -10 z" transform="rotate(-90,255,195)"/><path d="M 250 200 v 10 h 5 a 5 5, 0, 0, 0, 0 -10 z" transform="rotate(90,255,205)"/><path d="M 250 220 v 10 h 5 a 5 5, 0, 0, 0, 0 -10 z" transform="rotate(-90,255,225)"/><rect x="250" y="230" width="10" height="10" transform="rotate(0,255,235)"/><rect x="250" y="240" width="10" height="10" transform="rotate(0,255,245)"/><path d="M 250 250 v 10 h 5 a 5 5, 0, 0, 0, 0 -10 z" transform="rotate(90,255,255)"/><path d="M 250 270 v 10 h 5 a 5 5, 0, 0, 0, 0 -10 z" transform="rotate(-90,255,275)"/><rect x="250" y="280" width="10" height="10" transform="rotate(0,255,285)"/><path d="M 250 290 v 10 h 5 a 5 5, 0, 0, 0, 0 -10 z" transform="rotate(90,255,295)"/><path d="M 250 310 v 10 h 5 a 5 5, 0, 0, 0, 0 -10 z" transform="rotate(-90,255,315)"/><rect x="250" y="320" width="10" height="10" transform="rotate(0,255,325)"/><path d="M 250 330 v 10 h 5 a 5 5, 0, 0, 0, 0 -10 z" transform="rotate(90,255,335)"/><path d="M 250 350 v 10 h 5 a 5 5, 0, 0, 0, 0 -10 z" transform="rotate(-90,255,355)"/><path d="M 250 360 v 10 h 5 a 5 5, 0, 0, 0, 0 -10 z" transform="rotate(90,255,365)"/><path d="M 260 30 v 10 h 5 a 5 5, 0, 0, 0, 0 -10 z" transform="rotate(-90,265,35)"/><path d="M 260 40 v 10 h 5 a 5 5, 0, 0, 0, 0 -10 z" transform="rotate(90,265,45)"/><circle cx="265" cy="85" r="5" transform="rotate(0,265,85)"/><circle cx="265" cy="105" r="5" transform="rotate(0,265,105)"/><circle cx="265" cy="135" r="5" transform="rotate(0,265,135)"/><circle cx="265" cy="165" r="5" transform="rotate(0,265,165)"/><circle cx="265" cy="185" r="5" transform="rotate(0,265,185)"/><path d="M 260 200 v 10 h 5 a 5 5, 0, 0, 0, 0 -10 z" transform="rotate(-90,265,205)"/><path d="M 260 210 v 10 h 5 a 5 5, 0, 0, 0, 0 -10 z" transform="rotate(90,265,215)"/><circle cx="265" cy="265" r="5" transform="rotate(0,265,265)"/><path d="M 260 320 v 10 h 5 a 5 5, 0, 0, 0, 0 -10 z" transform="rotate(-90,265,325)"/><rect x="260" y="330" width="10" height="10" transform="rotate(0,265,335)"/><path d="M 260 340 v 10 h 5 a 5 5, 0, 0, 0, 0 -10 z" transform="rotate(90,265,345)"/><circle cx="265" cy="365" r="5" transform="rotate(0,265,365)"/><circle cx="265" cy="385" r="5" transform="rotate(0,265,385)"/><circle cx="275" cy="25" r="5" transform="rotate(0,275,25)"/><path d="M 270 50 v 10 h 5 a 5 5, 0, 0, 0, 0 -10 z" transform="rotate(-90,275,55)"/><path d="M 270 60 v 10 h 5 a 5 5, 0, 0, 0, 0 -10 z" transform="rotate(90,275,65)"/><circle cx="275" cy="115" r="5" transform="rotate(0,275,115)"/><circle cx="275" cy="195" r="5" transform="rotate(0,275,195)"/><circle cx="275" cy="235" r="5" transform="rotate(0,275,235)"/><circle cx="275" cy="275" r="5" transform="rotate(0,275,275)"/><path d="M 270 310 v 10 h 5 a 5 5, 0, 0, 0, 0 -10 z" transform="rotate(-90,275,315)"/><path d="M 270 320 v 10 h 5 a 5 5, 0, 0, 0, 0 -10 z" transform="rotate(90,275,325)"/><circle cx="275" cy="365" r="5" transform="rotate(0,275,365)"/><path d="M 280 20 v 10 h 5 a 5 5, 0, 0, 0, 0 -10 z" transform="rotate(-90,285,25)"/><rect x="280" y="30" width="10" height="10" transform="rotate(0,285,35)"/><rect x="280" y="40" width="10" height="10" transform="rotate(0,285,45)"/><rect x="280" y="50" width="10" height="10" transform="rotate(0,285,55)"/><rect x="280" y="60" width="10" height="10" transform="rotate(0,285,65)"/><rect x="280" y="70" width="10" height="10" transform="rotate(0,285,75)"/><path d="M 280 80 v 10 h 5 a 5 5, 0, 0, 0, 0 -10 z" transform="rotate(90,285,85)"/><path d="M 280 100 v 10 h 5 a 5 5, 0, 0, 0, 0 -10 z" transform="rotate(-90,285,105)"/><path d="M 280 110 v 10 h 5 a 5 5, 0, 0, 0, 0 -10 z" transform="rotate(90,285,115)"/><circle cx="285" cy="135" r="5" transform="rotate(0,285,135)"/><circle cx="285" cy="175" r="5" transform="rotate(0,285,175)"/><circle cx="285" cy="215" r="5" transform="rotate(0,285,215)"/><circle cx="285" cy="235" r="5" transform="rotate(0,285,235)"/><path d="M 280 270 v 10 h 5 a 5 5, 0, 0, 0, 0 -10 z" transform="rotate(-90,285,275)"/><rect x="280" y="280" width="10" height="10" transform="rotate(0,285,285)"/><path d="M 280 290 v 10 h 5 a 5 5, 0, 0, 0, 0 -10 z" transform="rotate(90,285,295)"/><circle cx="285" cy="315" r="5" transform="rotate(0,285,315)"/><circle cx="285" cy="335" r="5" transform="rotate(0,285,335)"/><circle cx="285" cy="365" r="5" transform="rotate(0,285,365)"/><circle cx="285" cy="385" r="5" transform="rotate(0,285,385)"/><circle cx="295" cy="25" r="5" transform="rotate(0,295,25)"/><path d="M 290 40 v 10 h 5 a 5 5, 0, 0, 0, 0 -10 z" transform="rotate(-90,295,45)"/><rect x="290" y="50" width="10" height="10" transform="rotate(0,295,55)"/><path d="M 290 60 v 10 h 5 a 5 5, 0, 0, 0, 0 -10 z" transform="rotate(90,295,65)"/><path d="M 290 120 v 10 h 5 a 5 5, 0, 0, 0, 0 -10 z" transform="rotate(-90,295,125)"/><path d="M 290 130 v 10 h 5 a 5 5, 0, 0, 0, 0 -10 z" transform="rotate(90,295,135)"/><path d="M 290 150 v 10 h 5 a 5 5, 0, 0, 0, 0 -10 z" transform="rotate(-90,295,155)"/><path d="M 290 160 v 10 h 5 a 5 5, 0, 0, 0, 0 -10 z" transform="rotate(90,295,165)"/><path d="M 290 190 v 10 h 5 a 5 5, 0, 0, 0, 0 -10 z" transform="rotate(-90,295,195)"/><path d="M 290 200 v 10 h 5 a 5 5, 0, 0, 0, 0 -10 z" transform="rotate(90,295,205)"/><path d="M 290 230 v 10 h 5 a 5 5, 0, 0, 0, 0 -10 z" transform="rotate(-90,295,235)"/><path d="M 290 240 v 10 h 5 a 5 5, 0, 0, 0, 0 -10 z" transform="rotate(90,295,245)"/><circle cx="295" cy="265" r="5" transform="rotate(0,295,265)"/><path d="M 290 280 v 10 h 5 a 5 5, 0, 0, 0, 0 -10 z" transform="rotate(-90,295,285)"/><path d="M 290 290 v 10 h 5 a 5 5, 0, 0, 0, 0 -10 z" transform="rotate(90,295,295)"/><path d="M 290 310 v 10 h 5 a 5 5, 0, 0, 0, 0 -10 z" transform="rotate(-90,295,315)"/><path d="M 290 320 v 10 h 5 a 5 5, 0, 0, 0, 0 -10 z" transform="rotate(90,295,325)"/><path d="M 290 360 v 10 h 5 a 5 5, 0, 0, 0, 0 -10 z" transform="rotate(-90,295,365)"/><path d="M 290 370 v 10 h 5 a 5 5, 0, 0, 0, 0 -10 z" transform="rotate(90,295,375)"/><circle cx="305" cy="25" r="5" transform="rotate(0,305,25)"/><circle cx="305" cy="65" r="5" transform="rotate(0,305,65)"/><path d="M 300 80 v 10 h 5 a 5 5, 0, 0, 0, 0 -10 z" transform="rotate(-90,305,85)"/><rect x="300" y="90" width="10" height="10" transform="rotate(0,305,95)"/><rect x="300" y="100" width="10" height="10" transform="rotate(0,305,105)"/><path d="M 300 110 v 10 h 5 a 5 5, 0, 0, 0, 0 -10 z" transform="rotate(90,305,115)"/><circle cx="305" cy="135" r="5" transform="rotate(0,305,135)"/><circle cx="305" cy="155" r="5" transform="rotate(0,305,155)"/><circle cx="305" cy="175" r="5" transform="rotate(0,305,175)"/><path d="M 300 190 v 10 h 5 a 5 5, 0, 0, 0, 0 -10 z" transform="rotate(-90,305,195)"/><rect x="300" y="200" width="10" height="10" transform="rotate(0,305,205)"/><path d="M 300 210 v 10 h 5 a 5 5, 0, 0, 0, 0 -10 z" transform="rotate(90,305,215)"/><path d="M 300 240 v 10 h 5 a 5 5, 0, 0, 0, 0 -10 z" transform="rotate(-90,305,245)"/><rect x="300" y="250" width="10" height="10" transform="rotate(0,305,255)"/><rect x="300" y="260" width="10" height="10" transform="rotate(0,305,265)"/><rect x="300" y="270" width="10" height="10" transform="rotate(0,305,275)"/><rect x="300" y="280" width="10" height="10" transform="rotate(0,305,285)"/><rect x="300" y="290" width="10" height="10" transform="rotate(0,305,295)"/><rect x="300" y="300" width="10" height="10" transform="rotate(0,305,305)"/><rect x="300" y="310" width="10" height="10" transform="rotate(0,305,315)"/><rect x="300" y="320" width="10" height="10" transform="rotate(0,305,325)"/><rect x="300" y="330" width="10" height="10" transform="rotate(0,305,335)"/><rect x="300" y="340" width="10" height="10" transform="rotate(0,305,345)"/><rect x="300" y="350" width="10" height="10" transform="rotate(0,305,355)"/><path d="M 300 360 v 10 h 5 a 5 5, 0, 0, 0, 0 -10 z" transform="rotate(90,305,365)"/><circle cx="315" cy="105" r="5" transform="rotate(0,315,105)"/><circle cx="315" cy="135" r="5" transform="rotate(0,315,135)"/><path d="M 310 160 v 10 h 5 a 5 5, 0, 0, 0, 0 -10 z" transform="rotate(-90,315,165)"/><path d="M 310 170 v 10 h 5 a 5 5, 0, 0, 0, 0 -10 z" transform="rotate(90,315,175)"/><path d="M 310 200 v 10 h 5 a 5 5, 0, 0, 0, 0 -10 z" transform="rotate(-90,315,205)"/><path d="M 310 210 v 10 h 5 a 5 5, 0, 0, 0, 0 -10 z" transform="rotate(90,315,215)"/><circle cx="315" cy="255" r="5" transform="rotate(0,315,255)"/><path d="M 310 280 v 10 h 5 a 5 5, 0, 0, 0, 0 -10 z" transform="rotate(-90,315,285)"/><rect x="310" y="290" width="10" height="10" transform="rotate(0,315,295)"/><path d="M 310 300 v 10 h 5 a 5 5, 0, 0, 0, 0 -10 z" transform="rotate(90,315,305)"/><circle cx="315" cy="345" r="5" transform="rotate(0,315,345)"/><circle cx="325" cy="145" r="5" transform="rotate(0,325,145)"/><path d="M 320 170 v 10 h 5 a 5 5, 0, 0, 0, 0 -10 z" transform="rotate(-90,325,175)"/><path d="M 320 180 v 10 h 5 a 5 5, 0, 0, 0, 0 -10 z" transform="rotate(90,325,185)"/><path d="M 320 200 v 10 h 5 a 5 5, 0, 0, 0, 0 -10 z" transform="rotate(-90,325,205)"/><rect x="320" y="210" width="10" height="10" transform="rotate(0,325,215)"/><path d="M 320 220 v 10 h 5 a 5 5, 0, 0, 0, 0 -10 z" transform="rotate(90,325,225)"/><circle cx="325" cy="265" r="5" transform="rotate(0,325,265)"/><path d="M 320 290 v 10 h 5 a 5 5, 0, 0, 0, 0 -10 z" transform="rotate(-90,325,295)"/><path d="M 320 300 v 10 h 5 a 5 5, 0, 0, 0, 0 -10 z" transform="rotate(90,325,305)"/><circle cx="325" cy="325" r="5" transform="rotate(0,325,325)"/><path d="M 320 340 v 10 h 5 a 5 5, 0, 0, 0, 0 -10 z" transform="rotate(-90,325,345)"/><rect x="320" y="350" width="10" height="10" transform="rotate(0,325,355)"/><rect x="320" y="360" width="10" height="10" transform="rotate(0,325,365)"/><rect x="320" y="370" width="10" height="10" transform="rotate(0,325,375)"/><path d="M 320 380 v 10 h 5 a 5 5, 0, 0, 0, 0 -10 z" transform="rotate(90,325,385)"/><circle cx="335" cy="105" r="5" transform="rotate(0,335,105)"/><circle cx="335" cy="155" r="5" transform="rotate(0,335,155)"/><path d="M 330 180 v 10 h 5 a 5 5, 0, 0, 0, 0 -10 z" transform="rotate(-90,335,185)"/><rect x="330" y="190" width="10" height="10" transform="rotate(0,335,195)"/><path d="M 330 200 v 10 h 5 a 5 5, 0, 0, 0, 0 -10 z" transform="rotate(90,335,205)"/><circle cx="335" cy="225" r="5" transform="rotate(0,335,225)"/><circle cx="335" cy="245" r="5" transform="rotate(0,335,245)"/><circle cx="335" cy="285" r="5" transform="rotate(0,335,285)"/><circle cx="335" cy="305" r="5" transform="rotate(0,335,305)"/><path d="M 330 340 v 10 h 5 a 5 5, 0, 0, 0, 0 -10 z" transform="rotate(-90,335,345)"/><path d="M 330 350 v 10 h 5 a 5 5, 0, 0, 0, 0 -10 z" transform="rotate(90,335,355)"/><circle cx="335" cy="375" r="5" transform="rotate(0,335,375)"/><path d="M 340 100 v 10 h 5 a 5 5, 0, 0, 0, 0 -10 z" transform="rotate(-90,345,105)"/><rect x="340" y="110" width="10" height="10" transform="rotate(0,345,115)"/><path d="M 340 120 v 10 h 5 a 5 5, 0, 0, 0, 0 -10 z" transform="rotate(90,345,125)"/><path d="M 340 150 v 10 h 5 a 5 5, 0, 0, 0, 0 -10 z" transform="rotate(-90,345,155)"/><path d="M 340 160 v 10 h 5 a 5 5, 0, 0, 0, 0 -10 z" transform="rotate(90,345,165)"/><circle cx="345" cy="195" r="5" transform="rotate(0,345,195)"/><circle cx="345" cy="235" r="5" transform="rotate(0,345,235)"/><circle cx="345" cy="255" r="5" transform="rotate(0,345,255)"/><circle cx="345" cy="275" r="5" transform="rotate(0,345,275)"/><path d="M 340 290 v 10 h 5 a 5 5, 0, 0, 0, 0 -10 z" transform="rotate(-90,345,295)"/><rect x="340" y="300" width="10" height="10" transform="rotate(0,345,305)"/><rect x="340" y="310" width="10" height="10" transform="rotate(0,345,315)"/><rect x="340" y="320" width="10" height="10" transform="rotate(0,345,325)"/><rect x="340" y="330" width="10" height="10" transform="rotate(0,345,335)"/><path d="M 340 340 v 10 h 5 a 5 5, 0, 0, 0, 0 -10 z" transform="rotate(90,345,345)"/><circle cx="345" cy="385" r="5" transform="rotate(0,345,385)"/><path d="M 350 110 v 10 h 5 a 5 5, 0, 0, 0, 0 -10 z" transform="rotate(-90,355,115)"/><path d="M 350 120 v 10 h 5 a 5 5, 0, 0, 0, 0 -10 z" transform="rotate(90,355,125)"/><circle cx="355" cy="175" r="5" transform="rotate(0,355,175)"/><circle cx="355" cy="235" r="5" transform="rotate(0,355,235)"/><circle cx="355" cy="285" r="5" transform="rotate(0,355,285)"/><circle cx="355" cy="325" r="5" transform="rotate(0,355,325)"/><path d="M 350 370 v 10 h 5 a 5 5, 0, 0, 0, 0 -10 z" transform="rotate(-90,355,375)"/><path d="M 350 380 v 10 h 5 a 5 5, 0, 0, 0, 0 -10 z" transform="rotate(90,355,385)"/><circle cx="365" cy="105" r="5" transform="rotate(0,365,105)"/><path d="M 360 120 v 10 h 5 a 5 5, 0, 0, 0, 0 -10 z" transform="rotate(-90,365,125)"/><rect x="360" y="130" width="10" height="10" transform="rotate(0,365,135)"/><rect x="360" y="140" width="10" height="10" transform="rotate(0,365,145)"/><path d="M 360 150 v 10 h 5 a 5 5, 0, 0, 0, 0 -10 z" transform="rotate(90,365,155)"/><path d="M 360 170 v 10 h 5 a 5 5, 0, 0, 0, 0 -10 z" transform="rotate(-90,365,175)"/><path d="M 360 180 v 10 h 5 a 5 5, 0, 0, 0, 0 -10 z" transform="rotate(90,365,185)"/><path d="M 360 210 v 10 h 5 a 5 5, 0, 0, 0, 0 -10 z" transform="rotate(-90,365,215)"/><rect x="360" y="220" width="10" height="10" transform="rotate(0,365,225)"/><rect x="360" y="230" width="10" height="10" transform="rotate(0,365,235)"/><rect x="360" y="240" width="10" height="10" transform="rotate(0,365,245)"/><rect x="360" y="250" width="10" height="10" transform="rotate(0,365,255)"/><rect x="360" y="260" width="10" height="10" transform="rotate(0,365,265)"/><rect x="360" y="270" width="10" height="10" transform="rotate(0,365,275)"/><rect x="360" y="280" width="10" height="10" transform="rotate(0,365,285)"/><rect x="360" y="290" width="10" height="10" transform="rotate(0,365,295)"/><path d="M 360 300 v 10 h 5 a 5 5, 0, 0, 0, 0 -10 z" transform="rotate(90,365,305)"/><path d="M 360 330 v 10 h 5 a 5 5, 0, 0, 0, 0 -10 z" transform="rotate(-90,365,335)"/><rect x="360" y="340" width="10" height="10" transform="rotate(0,365,345)"/><path d="M 360 350 v 10 h 5 a 5 5, 0, 0, 0, 0 -10 z" transform="rotate(90,365,355)"/><path d="M 360 370 v 10 h 5 a 5 5, 0, 0, 0, 0 -10 z" transform="rotate(-90,365,375)"/><path d="M 360 380 v 10 h 5 a 5 5, 0, 0, 0, 0 -10 z" transform="rotate(90,365,385)"/><circle cx="375" cy="155" r="5" transform="rotate(0,375,155)"/><circle cx="375" cy="195" r="5" transform="rotate(0,375,195)"/><path d="M 370 210 v 10 h 5 a 5 5, 0, 0, 0, 0 -10 z" transform="rotate(-90,375,215)"/><rect x="370" y="220" width="10" height="10" transform="rotate(0,375,225)"/><path d="M 370 230 v 10 h 5 a 5 5, 0, 0, 0, 0 -10 z" transform="rotate(90,375,235)"/><circle cx="375" cy="255" r="5" transform="rotate(0,375,255)"/><path d="M 370 290 v 10 h 5 a 5 5, 0, 0, 0, 0 -10 z" transform="rotate(-90,375,295)"/><path d="M 370 300 v 10 h 5 a 5 5, 0, 0, 0, 0 -10 z" transform="rotate(90,375,305)"/><path d="M 370 330 v 10 h 5 a 5 5, 0, 0, 0, 0 -10 z" transform="rotate(-90,375,335)"/><rect x="370" y="340" width="10" height="10" transform="rotate(0,375,345)"/><rect x="370" y="350" width="10" height="10" transform="rotate(0,375,355)"/><rect x="370" y="360" width="10" height="10" transform="rotate(0,375,365)"/><rect x="370" y="370" width="10" height="10" transform="rotate(0,375,375)"/><path d="M 370 380 v 10 h 5 a 5 5, 0, 0, 0, 0 -10 z" transform="rotate(90,375,385)"/><circle cx="385" cy="145" r="5" transform="rotate(0,385,145)"/><circle cx="385" cy="185" r="5" transform="rotate(0,385,185)"/><circle cx="385" cy="265" r="5" transform="rotate(0,385,265)"/><circle cx="385" cy="295" r="5" transform="rotate(0,385,295)"/><circle cx="385" cy="345" r="5" transform="rotate(0,385,345)"/><circle cx="385" cy="385" r="5" transform="rotate(0,385,385)"/></g></mask><mask id="mask-corners-square-color-0-0-2-2" maskUnits="userSpaceOnUse" x="0" y="0" width="410" height="410"><g fill="#fff"><path clip-rule="evenodd" d="M 20 45 v 20 a 25 25, 0, 0, 0, 25 25 h 20 a 25 25, 0, 0, 0, 25 -25 v -20 a 25 25, 0, 0, 0, -25 -25 h -20 a 25 25, 0, 0, 0, -25 25 z M 45 30 h 20 a 15 15, 0, 0, 1, 15 15 v 20 a 15 15, 0, 0, 1, -15 15 h -20 a 15 15, 0, 0, 1, -15 -15 v -20 a 15 15, 0, 0, 1, 15 -15 z" transform="rotate(0,55,55)"/></g></mask><mask id="mask-corners-dot-color-0-0-2-2" maskUnits="userSpaceOnUse" x="0" y="0" width="410" height="410"><g fill="#fff"><circle cx="55" cy="55" r="14.2857143" transform="rotate(0,55,55)"/></g></mask><mask id="mask-corners-square-color-1-0-2-2" maskUnits="userSpaceOnUse" x="0" y="0" width="410" height="410"><g fill="#fff"><path clip-rule="evenodd" d="M 320 45 v 20 a 25 25, 0, 0, 0, 25 25 h 20 a 25 25, 0, 0, 0, 25 -25 v -20 a 25 25, 0, 0, 0, -25 -25 h -20 a 25 25, 0, 0, 0, -25 25 z M 345 30 h 20 a 15 15, 0, 0, 1, 15 15 v 20 a 15 15, 0, 0, 1, -15 15 h -20 a 15 15, 0, 0, 1, -15 -15 v -20 a 15 15, 0, 0, 1, 15 -15 z" transform="rotate(90,355,55)"/></g></mask><mask id="mask-corners-dot-color-1-0-2-2" maskUnits="userSpaceOnUse" x="0" y="0" width="410" height="410"><g fill="#fff"><circle cx="355" cy="55" r="14.2857143" transform="rotate(90,355,55)"/></g></mask><mask id="mask-corners-square-color-0-1-2-2" maskUnits="userSpaceOnUse" x="0" y="0" width="410" height="410"><g fill="#fff"><path clip-rule="evenodd" d="M 20 345 v 20 a 25 25, 0, 0, 0, 25 25 h 20 a 25 25, 0, 0, 0, 25 -25 v -20 a 25 25, 0, 0, 0, -25 -25 h -20 a 25 25, 0, 0, 0, -25 25 z M 45 330 h 20 a 15 15, 0, 0, 1, 15 15 v 20 a 15 15, 0, 0, 1, -15 15 h -20 a 15 15, 0, 0, 1, -15 -15 v -20 a 15 15, 0, 0, 1, 15 -15 z" transform="rotate(-90,55,355)"/></g></mask><mask id="mask-corners-dot-color-0-1-2-2" maskUnits="userSpaceOnUse" x="0" y="0" width="410" height="410"><g fill="#fff"><circle cx="55" cy="355" r="14.2857143" transform="rotate(-90,55,355)"/></g></mask></defs><rect x="0" y="0" height="410" width="410" style="mask:url(#mask-background-color-2-2)" fill="#ffffff"/><g><g><rect x="20" y="20" height="370" width="370" style="mask:url(#mask-dot-color-2-2)" fill="#000000"/><rect x="20" y="20" height="70" width="70" style="mask:url(#mask-corners-square-color-0-0-2-2)" fill="#000000"/><rect x="40" y="40" height="30" width="30" style="mask:url(#mask-corners-dot-color-0-0-2-2)" fill="#000000"/><rect x="320" y="20" height="70" width="70" style="mask:url(#mask-corners-square-color-1-0-2-2)" fill="#000000"/><rect x="340" y="40" height="30" width="30" style="mask:url(#mask-corners-dot-color-1-0-2-2)" fill="#000000"/><rect x="20" y="320" height="70" width="70" style="mask:url(#mask-corners-square-color-0-1-2-2)" fill="#000000"/><rect x="40" y="340" height="30" width="30" style="mask:url(#mask-corners-dot-color-0-1-2-2)" fill="#000000"/></g></g></svg>