<?xml version="1.0" standalone="no"?>
<svg width="410" height="410" viewBox="0 0 410 410" xmlns="http://www.w3.org/2000/svg"><defs><mask id="mask-background-color-1-1" maskUnits="userSpaceOnUse" x="0" y="0" width="410" height="410"><g fill="#fff"><rect x="0" y="0" width="410" height="410" rx="0"/></g></mask><mask id="mask-dot-color-1-1" maskUnits="userSpaceOnUse" x="0" y="0" width="410" height="410"><g fill="#fff"><path d="M 20 110 v 10 h 5 a 5 5, 0, 0, 0, 0 -10 z" transform="rotate(-90,25,115)"/><path d="M 20 120 v 10 h 5 a 5 5, 0, 0, 0, 0 -10 z" transform="rotate(90,25,125)"/><circle cx="25" cy="145" r="5" transform="rotate(0,25,145)"/><path d="M 20 160 v 10 h 5 a 5 5, 0, 0, 0, 0 -10 z" transform="rotate(-90,25,165)"/><path d="M 20 170 v 10 h 5 a 5 5, 0, 0, 0, 0 -10 z" transform="rotate(90,25,175)"/><circle cx="25" cy="245" r="5" transform="rotate(0,25,245)"/><path d="M 20 260 v 10 h 5 a 5 5, 0, 0, 0, 0 -10 z" transform="rotate(-90,25,265)"/><path d="M 20 270 v 10 h 5 a 5 5, 0, 0, 0, 0 -10 z" transform="rotate(90,25,275)"/><circle cx="25" cy="305" r="5" transform="rotate(0,25,305)"/><circle cx="35" cy="105" r="5" transform="rotate(0,35,105)"/><circle cx="35" cy="145" r="5" transform="rotate(0,35,145)"/><path d="M 30 170 v 10 h 5 a 5 5, 0, 0, 0, 0 -10 z" transform="rotate(-90,35,175)"/><path d="M 30 180 v 10 h 5 a 5 5, 0, 0, 0, 0 -10 z" transform="rotate(90,35,185)"/><path d="M 30 200 v 10 h 5 a 5 5, 0, 0, 0, 0 -10 z" transform="rotate(-90,35,205)"/><rect x="30" y="210" width="10" height="10" transform="rotate(0,35,215)"/><rect x="30" y="220" width="10" height="10" transform="rotate(0,35,225)"/><path d="M 30 230 v 10 h 5 a 5 5, 0, 0, 0, 0 -10 z" transform="rotate(90,35,235)"/><path d="M 30 250 v 10 h 5 a 5 5, 0, 0, 0, 0 -10 z" transform="rotate(-90,35,255)"/><path d="M 30 260 v 10 h 5 a 5 5, 0, 0, 0, 0 -10 z" transform="rotate(90,35,265)"/><circle cx="35" cy="305" r="5" transform="rotate(0,35,305)"/><path d="M 40 120 v 10 h 5 a 5 5, 0, 0, 0, 0 -10 z" transform="rotate(-90,45,125)"/><path d="M 40 130 v 10 h 5 a 5 5, 0, 0, 0, 0 -10 z" transform="rotate(90,45,135)"/><circle cx="45" cy="155" r="5" transform="rotate(0,45,155)"/><circle cx="45" cy="175" r="5" transform="rotate(0,45,175)"/><path d="M 40 190 v 10 h 5 a 5 5, 0, 0, 0, 0 -10 z" transform="rotate(-90,45,195)"/><rect x="40" y="200" width="10" height="10" transform="rotate(0,45,205)"/><path d="M 40 210 v 10 h 5 a 5 5, 0, 0, 0, 0 -10 z" transform="rotate(90,45,215)"/><path d="M 40 230 v 10 h 5 a 5 5, 0, 0, 0, 0 -10 z" transform="rotate(-90,45,235)"/><rect x="40" y="240" width="10" height="10" transform="rotate(0,45,245)"/><path d="M 40 250 v 10 h 5 a 5 5, 0, 0, 0, 0 -10 z" transform="rotate(90,45,255)"/><circle cx="45" cy="275" r="5" transform="rotate(0,45,275)"/><path d="M 50 120 v 10 h 5 a 5 5, 0, 0, 0, 0 -10 z" transform="rotate(-90,55,125)"/><path d="M 50 130 v 10 h 5 a 5 5, 0, 0, 0, 0 -10 z" transform="rotate(90,55,135)"/><path d="M 50 150 v 10 h 5 a 5 5, 0, 0, 0, 0 -10 z" transform="rotate(-90,55,155)"/><path d="M 50 160 v 10 h 5 a 5 5, 0, 0, 0, 0 -10 z" transform="rotate(90,55,165)"/><circle cx="55" cy="185" r="5" transform="rotate(0,55,185)"/><path d="M 50 200 v 10 h 5 a 5 5, 0, 0, 0, 0 -10 z" transform="rotate(-90,55,205)"/><rect x="50" y="210" width="10" height="10" transform="rotate(0,55,215)"/><path d="M 50 220 v 10 h 5 a 5 5, 0, 0, 0, 0 -10 z" transform="rotate(90,55,225)"/><circle cx="55" cy="245" r="5" transform="rotate(0,55,245)"/><path d="M 50 260 v 10 h 5 a 5 5, 0, 0, 0, 0 -10 z" transform="rotate(-90,55,265)"/><path d="M 50 270 v 10 h 5 a 5 5, 0, 0, 0, 0 -10 z" transform="rotate(90,55,275)"/><path d="M 50 290 v 10 h 5 a 5 5, 0, 0, 0, 0 -10 z" transform="rotate(-90,55,295)"/><path d="M 50 300 v 10 h 5 a 5 5, 0, 0, 0, 0 -10 z" transform="rotate(90,55,305)"/><circle cx="65" cy="105" r="5" transform="rotate(0,65,105)"/><circle cx="65" cy="125" r="5" transform="rotate(0,65,125)"/><path d="M 60 140 v 10 h 5 a 5 5, 0, 0, 0, 0 -10 z" transform="rotate(-90,65,145)"/><path d="M 60 150 v 10 h 5 a 5 5, 0, 0, 0, 0 -10 z" transform="rotate(90,65,155)"/><circle cx="65" cy="175" r="5" transform="rotate(0,65,175)"/><path d="M 60 200 v 10 h 5 a 5 5, 0, 0, 0, 0 -10 z" transform="rotate(-90,65,205)"/><rect x="60" y="210" width="10" height="10" transform="rotate(0,65,215)"/><path d="M 60 220 v 10 h 5 a 5 5, 0, 0, 0, 0 -10 z" transform="rotate(90,65,225)"/><path d="M 60 250 v 10 h 5 a 5 5, 0, 0, 0, 0 -10 z" transform="rotate(-90,65,255)"/><rect x="60" y="260" width="10" height="10" transform="rotate(0,65,265)"/><path d="M 60 270 v 10 h 5 a 5 5, 0, 0, 0, 0 -10 z" transform="rotate(90,65,275)"/><path d="M 70 110 v 10 h 5 a 5 5, 0, 0, 0, 0 -10 z" transform="rotate(-90,75,115)"/><rect x="70" y="120" width="10" height="10" transform="rotate(0,75,125)"/><rect x="70" y="130" width="10" height="10" transform="rotate(0,75,135)"/><path d="M 70 140 v 10 h 5 a 5 5, 0, 0, 0, 0 -10 z" transform="rotate(90,75,145)"/><circle cx="75" cy="175" r="5" transform="rotate(0,75,175)"/><circle cx="75" cy="195" r="5" transform="rotate(0,75,195)"/><circle cx="75" cy="215" r="5" transform="rotate(0,75,215)"/><path d="M 70 260 v 10 h 5 a 5 5, 0, 0, 0, 0 -10 z" transform="rotate(-90,75,265)"/><path d="M 70 270 v 10 h 5 a 5 5, 0, 0, 0, 0 -10 z" transform="rotate(90,75,275)"/><circle cx="75" cy="295" r="5" transform="rotate(0,75,295)"/><circle cx="85" cy="105" r="5" transform="rotate(0,85,105)"/><circle cx="85" cy="125" r="5" transform="rotate(0,85,125)"/><circle cx="85" cy="145" r="5" transform="rotate(0,85,145)"/><circle cx="85" cy="165" r="5" transform="rotate(0,85,165)"/><circle cx="85" cy="185" r="5" transform="rotate(0,85,185)"/><circle cx="85" cy="205" r="5" transform="rotate(0,85,205)"/><circle cx="85" cy="225" r="5" transform="rotate(0,85,225)"/><circle cx="85" cy="245" r="5" transform="rotate(0,85,245)"/><circle cx="85" cy="265" r="5" transform="rotate(0,85,265)"/><circle cx="85" cy="285" r="5" transform="rotate(0,85,285)"/><circle cx="85" cy="305" r="5" transform="rotate(0,85,305)"/><circle cx="95" cy="165" r="5" transform="rotate(0,95,165)"/><path d="M 90 250 v 10 h 5 a 5 5, 0, 0, 0, 0 -10 z" transform="rotate(-90,95,255)"/><rect x="90" y="260" width="10" height="10" transform="rotate(0,95,265)"/><rect x="90" y="270" width="10" height="10" transform="rotate(0,95,275)"/><rect x="90" y="280" width="10" height="10" transform="rotate(0,95,285)"/><path d="M 90 290 v 10 h 5 a 5 5, 0, 0, 0, 0 -10 z" transform="rotate(90,95,295)"/><circle cx="105" cy="45" r="5" transform="rotate(0,105,45)"/><path d="M 100 60 v 10 h 5 a 5 5, 0, 0, 0, 0 -10 z" transform="rotate(-90,105,65)"/><rect x="100" y="70" width="10" height="10" transform="rotate(0,105,75)"/><path d="M 100 80 v 10 h 5 a 5 5, 0, 0, 0, 0 -10 z" transform="rotate(90,105,85)"/><circle cx="105" cy="105" r="5" transform="rotate(0,105,105)"/><path d="M 100 120 v 10 h 5 a 5 5, 0, 0, 0, 0 -10 z" transform="rotate(-90,105,125)"/><rect x="100" y="130" width="10" height="10" transform="rotate(0,105,135)"/><rect x="100" y="140" width="10" height="10" transform="rotate(0,105,145)"/><rect x="100" y="150" width="10" height="10" transform="rotate(0,105,155)"/><rect x="100" y="160" width="10" height="10" transform="rotate(0,105,165)"/><path d="M 100 170 v 10 h 5 a 5 5, 0, 0, 0, 0 -10 z" transform="rotate(90,105,175)"/><circle cx="105" cy="195" r="5" transform="rotate(0,105,195)"/><circle cx="105" cy="215" r="5" transform="rotate(0,105,215)"/><circle cx="105" cy="235" r="5" transform="rotate(0,105,235)"/><circle cx="105" cy="255" r="5" transform="rotate(0,105,255)"/><path d="M 100 290 v 10 h 5 a 5 5, 0, 0, 0, 0 -10 z" transform="rotate(-90,105,295)"/><rect x="100" y="300" width="10" height="10" transform="rotate(0,105,305)"/><path d="M 100 310 v 10 h 5 a 5 5, 0, 0, 0, 0 -10 z" transform="rotate(90,105,315)"/><circle cx="105" cy="345" r="5" transform="rotate(0,105,345)"/><circle cx="105" cy="375" r="5" transform="rotate(0,105,375)"/><circle cx="115" cy="25" r="5" transform="rotate(0,115,25)"/><path d="M 110 50 v 10 h 5 a 5 5, 0, 0, 0, 0 -10 z" transform="rotate(-90,115,55)"/><rect x="110" y="60" width="10" height="10" transform="rotate(0,115,65)"/><path d="M 110 70 v 10 h 5 a 5 5, 0, 0, 0, 0 -10 z" transform="rotate(90,115,75)"/><path d="M 110 90 v 10 h 5 a 5 5, 0, 0, 0, 0 -10 z" transform="rotate(-90,115,95)"/><path d="M 110 100 v 10 h 5 a 5 5, 0, 0, 0, 0 -10 z" transform="rotate(90,115,105)"/><path d="M 110 120 v 10 h 5 a 5 5, 0, 0, 0, 0 -10 z" transform="rotate(-90,115,125)"/><rect x="110" y="130" width="10" height="10" transform="rotate(0,115,135)"/><rect x="110" y="140" width="10" height="10" transform="rotate(0,115,145)"/><path d="M 110 150 v 10 h 5 a 5 5, 0, 0, 0, 0 -10 z" transform="rotate(90,115,155)"/><circle cx="115" cy="235" r="5" transform="rotate(0,115,235)"/><circle cx="115" cy="275" r="5" transform="rotate(0,115,275)"/><circle cx="115" cy="295" r="5" transform="rotate(0,115,295)"/><path d="M 110 320 v 10 h 5 a 5 5, 0, 0, 0, 0 -10 z" transform="rotate(-90,115,325)"/><path d="M 110 330 v 10 h 5 a 5 5, 0, 0, 0, 0 -10 z" transform="rotate(90,115,335)"/><path d="M 110 350 v 10 h 5 a 5 5, 0, 0, 0, 0 -10 z" transform="rotate(-90,115,355)"/><path d="M 110 360 v 10 h 5 a 5 5, 0, 0, 0, 0 -10 z" transform="rotate(90,115,365)"/><circle cx="115" cy="385" r="5" transform="rotate(0,115,385)"/><circle cx="125" cy="35" r="5" transform="rotate(0,125,35)"/><circle cx="125" cy="65" r="5" transform="rotate(0,125,65)"/><path d="M 120 80 v 10 h 5 a 5 5, 0, 0, 0, 0 -10 z" transform="rotate(-90,125,85)"/><path d="M 120 90 v 10 h 5 a 5 5, 0, 0, 0, 0 -10 z" transform="rotate(90,125,95)"/><path d="M 120 110 v 10 h 5 a 5 5, 0, 0, 0, 0 -10 z" transform="rotate(-90,125,115)"/><rect x="120" y="120" width="10" height="10" transform="rotate(0,125,125)"/><rect x="120" y="130" width="10" height="10" transform="rotate(0,125,135)"/><path d="M 120 140 v 10 h 5 a 5 5, 0, 0, 0, 0 -10 z" transform="rotate(90,125,145)"/><circle cx="125" cy="175" r="5" transform="rotate(0,125,175)"/><path d="M 120 200 v 10 h 5 a 5 5, 0, 0, 0, 0 -10 z" transform="rotate(-90,125,205)"/><path d="M 120 210 v 10 h 5 a 5 5, 0, 0, 0, 0 -10 z" transform="rotate(90,125,215)"/><circle cx="125" cy="275" r="5" transform="rotate(0,125,275)"/><path d="M 120 300 v 10 h 5 a 5 5, 0, 0, 0, 0 -10 z" transform="rotate(-90,125,305)"/><path d="M 120 310 v 10 h 5 a 5 5, 0, 0, 0, 0 -10 z" transform="rotate(90,125,315)"/><path d="M 120 350 v 10 h 5 a 5 5, 0, 0, 0, 0 -10 z" transform="rotate(-90,125,355)"/><rect x="120" y="360" width="10" height="10" transform="rotate(0,125,365)"/><rect x="120" y="370" width="10" height="10" transform="rotate(0,125,375)"/><path d="M 120 380 v 10 h 5 a 5 5, 0, 0, 0, 0 -10 z" transform="rotate(90,125,385)"/><circle cx="135" cy="45" r="5" transform="rotate(0,135,45)"/><circle cx="135" cy="105" r="5" transform="rotate(0,135,105)"/><path d="M 130 120 v 10 h 5 a 5 5, 0, 0, 0, 0 -10 z" transform="rotate(-90,135,125)"/><rect x="130" y="130" width="10" height="10" transform="rotate(0,135,135)"/><path d="M 130 140 v 10 h 5 a 5 5, 0, 0, 0, 0 -10 z" transform="rotate(90,135,145)"/><circle cx="135" cy="175" r="5" transform="rotate(0,135,175)"/><path d="M 130 190 v 10 h 5 a 5 5, 0, 0, 0, 0 -10 z" transform="rotate(-90,135,195)"/><path d="M 130 200 v 10 h 5 a 5 5, 0, 0, 0, 0 -10 z" transform="rotate(90,135,205)"/><path d="M 130 230 v 10 h 5 a 5 5, 0, 0, 0, 0 -10 z" transform="rotate(-90,135,235)"/><rect x="130" y="240" width="10" height="10" transform="rotate(0,135,245)"/><path d="M 130 250 v 10 h 5 a 5 5, 0, 0, 0, 0 -10 z" transform="rotate(90,135,255)"/><path d="M 130 280 v 10 h 5 a 5 5, 0, 0, 0, 0 -10 z" transform="rotate(-90,135,285)"/><rect x="130" y="290" width="10" height="10" transform="rotate(0,135,295)"/><rect x="130" y="300" width="10" height="10" transform="rotate(0,135,305)"/><rect x="130" y="310" width="10" height="10" transform="rotate(0,135,315)"/><path d="M 130 320 v 10 h 5 a 5 5, 0, 0, 0, 0 -10 z" transform="rotate(90,135,325)"/><circle cx="135" cy="375" r="5" transform="rotate(0,135,375)"/><circle cx="145" cy="25" r="5" transform="rotate(0,145,25)"/><circle cx="145" cy="55" r="5" transform="rotate(0,145,55)"/><circle cx="145" cy="85" r="5" transform="rotate(0,145,85)"/><circle cx="145" cy="105" r="5" transform="rotate(0,145,105)"/><path d="M 140 130 v 10 h 5 a 5 5, 0, 0, 0, 0 -10 z" transform="rotate(-90,145,135)"/><rect x="140" y="140" width="10" height="10" transform="rotate(0,145,145)"/><rect x="140" y="150" width="10" height="10" transform="rotate(0,145,155)"/><rect x="140" y="160" width="10" height="10" transform="rotate(0,145,165)"/><path d="M 140 170 v 10 h 5 a 5 5, 0, 0, 0, 0 -10 z" transform="rotate(90,145,175)"/><path d="M 140 190 v 10 h 5 a 5 5, 0, 0, 0, 0 -10 z" transform="rotate(-90,145,195)"/><rect x="140" y="200" width="10" height="10" transform="rotate(0,145,205)"/><rect x="140" y="210" width="10" height="10" transform="rotate(0,145,215)"/><rect x="140" y="220" width="10" height="10" transform="rotate(0,145,225)"/><rect x="140" y="230" width="10" height="10" transform="rotate(0,145,235)"/><rect x="140" y="240" width="10" height="10" transform="rotate(0,145,245)"/><rect x="140" y="250" width="10" height="10" transform="rotate(0,145,255)"/><rect x="140" y="260" width="10" height="10" transform="rotate(0,145,265)"/><rect x="140" y="270" width="10" height="10" transform="rotate(0,145,275)"/><path d="M 140 280 v 10 h 5 a 5 5, 0, 0, 0, 0 -10 z" transform="rotate(90,145,285)"/><circle cx="145" cy="315" r="5" transform="rotate(0,145,315)"/><path d="M 140 330 v 10 h 5 a 5 5, 0, 0, 0, 0 -10 z" transform="rotate(-90,145,335)"/><rect x="140" y="340" width="10" height="10" transform="rotate(0,145,345)"/><path d="M 140 350 v 10 h 5 a 5 5, 0, 0, 0, 0 -10 z" transform="rotate(90,145,355)"/><circle cx="145" cy="385" r="5" transform="rotate(0,145,385)"/><circle cx="155" cy="25" r="5" transform="rotate(0,155,25)"/><path d="M 150 40 v 10 h 5 a 5 5, 0, 0, 0, 0 -10 z" transform="rotate(-90,155,45)"/><path d="M 150 50 v 10 h 5 a 5 5, 0, 0, 0, 0 -10 z" transform="rotate(90,155,55)"/><path d="M 150 90 v 10 h 5 a 5 5, 0, 0, 0, 0 -10 z" transform="rotate(-90,155,95)"/><rect x="150" y="100" width="10" height="10" transform="rotate(0,155,105)"/><rect x="150" y="110" width="10" height="10" transform="rotate(0,155,115)"/><path d="M 150 120 v 10 h 5 a 5 5, 0, 0, 0, 0 -10 z" transform="rotate(90,155,125)"/><circle cx="155" cy="155" r="5" transform="rotate(0,155,155)"/><path d="M 150 180 v 10 h 5 a 5 5, 0, 0, 0, 0 -10 z" transform="rotate(-90,155,185)"/><rect x="150" y="190" width="10" height="10" transform="rotate(0,155,195)"/><path d="M 150 200 v 10 h 5 a 5 5, 0, 0, 0, 0 -10 z" transform="rotate(90,155,205)"/><path d="M 150 220 v 10 h 5 a 5 5, 0, 0, 0, 0 -10 z" transform="rotate(-90,155,225)"/><path d="M 150 230 v 10 h 5 a 5 5, 0, 0, 0, 0 -10 z" transform="rotate(90,155,235)"/><path d="M 150 260 v 10 h 5 a 5 5, 0, 0, 0, 0 -10 z" transform="rotate(-90,155,265)"/><path d="M 150 270 v 10 h 5 a 5 5, 0, 0, 0, 0 -10 z" transform="rotate(90,155,275)"/><circle cx="155" cy="295" r="5" transform="rotate(0,155,295)"/><path d="M 150 320 v 10 h 5 a 5 5, 0, 0, 0, 0 -10 z" transform="rotate(-90,155,325)"/><rect x="150" y="330" width="10" height="10" transform="rotate(0,155,335)"/><path d="M 150 340 v 10 h 5 a 5 5, 0, 0, 0, 0 -10 z" transform="rotate(90,155,345)"/><path d="M 150 360 v 10 h 5 a 5 5, 0, 0, 0, 0 -10 z" transform="rotate(-90,155,365)"/><rect x="150" y="370" width="10" height="10" transform="rotate(0,155,375)"/><path d="M 150 380 v 10 h 5 a 5 5, 0, 0, 0, 0 -10 z" transform="rotate(90,155,385)"/><circle cx="165" cy="25" r="5" transform="rotate(0,165,25)"/><path d="M 160 80 v 10 h 5 a 5 5, 0, 0, 0, 0 -10 z" transform="rotate(-90,165,85)"/><rect x="160" y="90" width="10" height="10" transform="rotate(0,165,95)"/><rect x="160" y="100" width="10" height="10" transform="rotate(0,165,105)"/><path d="M 160 110 v 10 h 5 a 5 5, 0, 0, 0, 0 -10 z" transform="rotate(90,165,115)"/><path d="M 160 200 v 10 h 5 a 5 5, 0, 0, 0, 0 -10 z" transform="rotate(-90,165,205)"/><rect x="160" y="210" width="10" height="10" transform="rotate(0,165,215)"/><path d="M 160 220 v 10 h 5 a 5 5, 0, 0, 0, 0 -10 z" transform="rotate(90,165,225)"/><circle cx="165" cy="265" r="5" transform="rotate(0,165,265)"/><circle cx="165" cy="285" r="5" transform="rotate(0,165,285)"/><path d="M 160 300 v 10 h 5 a 5 5, 0, 0, 0, 0 -10 z" transform="rotate(-90,165,305)"/><path d="M 160 310 v 10 h 5 a 5 5, 0, 0, 0, 0 -10 z" transform="rotate(90,165,315)"/><circle cx="165" cy="335" r="5" transform="rotate(0,165,335)"/><circle cx="165" cy="355" r="5" transform="rotate(0,165,355)"/><circle cx="165" cy="375" r="5" transform="rotate(0,165,375)"/><circle cx="175" cy="35" r="5" transform="rotate(0,175,35)"/><circle cx="175" cy="55" r="5" transform="rotate(0,175,55)"/><circle cx="175" cy="75" r="5" transform="rotate(0,175,75)"/><circle cx="175" cy="105" r="5" transform="rotate(0,175,105)"/><path d="M 170 120 v 10 h 5 a 5 5, 0, 0, 0, 0 -10 z" transform="rotate(-90,175,125)"/><path d="M 170 130 v 10 h 5 a 5 5, 0, 0, 0, 0 -10 z" transform="rotate(90,175,135)"/><path d="M 170 160 v 10 h 5 a 5 5, 0, 0, 0, 0 -10 z" transform="rotate(-90,175,165)"/><path d="M 170 170 v 10 h 5 a 5 5, 0, 0, 0, 0 -10 z" transform="rotate(90,175,175)"/><path d="M 170 190 v 10 h 5 a 5 5, 0, 0, 0, 0 -10 z" transform="rotate(-90,175,195)"/><rect x="170" y="200" width="10" height="10" transform="rotate(0,175,205)"/><path d="M 170 210 v 10 h 5 a 5 5, 0, 0, 0, 0 -10 z" transform="rotate(90,175,215)"/><path d="M 170 270 v 10 h 5 a 5 5, 0, 0, 0, 0 -10 z" transform="rotate(-90,175,275)"/><path d="M 170 280 v 10 h 5 a 5 5, 0, 0, 0, 0 -10 z" transform="rotate(90,175,285)"/><circle cx="175" cy="305" r="5" transform="rotate(0,175,305)"/><path d="M 170 370 v 10 h 5 a 5 5, 0, 0, 0, 0 -10 z" transform="rotate(-90,175,375)"/><path d="M 170 380 v 10 h 5 a 5 5, 0, 0, 0, 0 -10 z" transform="rotate(90,175,385)"/><path d="M 180 20 v 10 h 5 a 5 5, 0, 0, 0, 0 -10 z" transform="rotate(-90,185,25)"/><rect x="180" y="30" width="10" height="10" transform="rotate(0,185,35)"/><path d="M 180 40 v 10 h 5 a 5 5, 0, 0, 0, 0 -10 z" transform="rotate(90,185,45)"/><path d="M 180 60 v 10 h 5 a 5 5, 0, 0, 0, 0 -10 z" transform="rotate(-90,185,65)"/><rect x="180" y="70" width="10" height="10" transform="rotate(0,185,75)"/><path d="M 180 80 v 10 h 5 a 5 5, 0, 0, 0, 0 -10 z" transform="rotate(90,185,85)"/><path d="M 180 100 v 10 h 5 a 5 5, 0, 0, 0, 0 -10 z" transform="rotate(-90,185,105)"/><path d="M 180 110 v 10 h 5 a 5 5, 0, 0, 0, 0 -10 z" transform="rotate(90,185,115)"/><path d="M 180 130 v 10 h 5 a 5 5, 0, 0, 0, 0 -10 z" transform="rotate(-90,185,135)"/><rect x="180" y="140" width="10" height="10" transform="rotate(0,185,145)"/><path d="M 180 150 v 10 h 5 a 5 5, 0, 0, 0, 0 -10 z" transform="rotate(90,185,155)"/><path d="M 180 190 v 10 h 5 a 5 5, 0, 0, 0, 0 -10 z" transform="rotate(-90,185,195)"/><rect x="180" y="200" width="10" height="10" transform="rotate(0,185,205)"/><rect x="180" y="210" width="10" height="10" transform="rotate(0,185,215)"/><path d="M 180 220 v 10 h 5 a 5 5, 0, 0, 0, 0 -10 z" transform="rotate(90,185,225)"/><path d="M 180 240 v 10 h 5 a 5 5, 0, 0, 0, 0 -10 z" transform="rotate(-90,185,245)"/><path d="M 180 250 v 10 h 5 a 5 5, 0, 0, 0, 0 -10 z" transform="rotate(90,185,255)"/><circle cx="185" cy="275" r="5" transform="rotate(0,185,275)"/><circle cx="185" cy="305" r="5" transform="rotate(0,185,305)"/><circle cx="185" cy="325" r="5" transform="rotate(0,185,325)"/><path d="M 180 340 v 10 h 5 a 5 5, 0, 0, 0, 0 -10 z" transform="rotate(-90,185,345)"/><path d="M 180 350 v 10 h 5 a 5 5, 0, 0, 0, 0 -10 z" transform="rotate(90,185,355)"/><path d="M 180 370 v 10 h 5 a 5 5, 0, 0, 0, 0 -10 z" transform="rotate(-90,185,375)"/><path d="M 180 380 v 10 h 5 a 5 5, 0, 0, 0, 0 -10 z" transform="rotate(90,185,385)"/><path d="M 190 30 v 10 h 5 a 5 5, 0, 0, 0, 0 -10 z" transform="rotate(-90,195,35)"/><rect x="190" y="40" width="10" height="10" transform="rotate(0,195,45)"/><path d="M 190 50 v 10 h 5 a 5 5, 0, 0, 0, 0 -10 z" transform="rotate(90,195,55)"/><circle cx="195" cy="75" r="5" transform="rotate(0,195,75)"/><path d="M 190 110 v 10 h 5 a 5 5, 0, 0, 0, 0 -10 z" transform="rotate(-90,195,115)"/><path d="M 190 120 v 10 h 5 a 5 5, 0, 0, 0, 0 -10 z" transform="rotate(90,195,125)"/><circle cx="195" cy="145" r="5" transform="rotate(0,195,145)"/><path d="M 190 160 v 10 h 5 a 5 5, 0, 0, 0, 0 -10 z" transform="rotate(-90,195,165)"/><path d="M 190 170 v 10 h 5 a 5 5, 0, 0, 0, 0 -10 z" transform="rotate(90,195,175)"/><path d="M 190 220 v 10 h 5 a 5 5, 0, 0, 0, 0 -10 z" transform="rotate(-90,195,225)"/><path d="M 190 230 v 10 h 5 a 5 5, 0, 0, 0, 0 -10 z" transform="rotate(90,195,235)"/><path d="M 190 300 v 10 h 5 a 5 5, 0, 0, 0, 0 -10 z" transform="rotate(-90,195,305)"/><path d="M 190 310 v 10 h 5 a 5 5, 0, 0, 0, 0 -10 z" transform="rotate(90,195,315)"/><path d="M 190 330 v 10 h 5 a 5 5, 0, 0, 0, 0 -10 z" transform="rotate(-90,195,335)"/><rect x="190" y="340" width="10" height="10" transform="rotate(0,195,345)"/><rect x="190" y="350" width="10" height="10" transform="rotate(0,195,355)"/><path d="M 190 360 v 10 h 5 a 5 5, 0, 0, 0, 0 -10 z" transform="rotate(90,195,365)"/><path d="M 200 20 v 10 h 5 a 5 5, 0, 0, 0, 0 -10 z" transform="rotate(-90,205,25)"/><path d="M 200 30 v 10 h 5 a 5 5, 0, 0, 0, 0 -10 z" transform="rotate(90,205,35)"/><path d="M 200 50 v 10 h 5 a 5 5, 0, 0, 0, 0 -10 z" transform="rotate(-90,205,55)"/><path d="M 200 60 v 10 h 5 a 5 5, 0, 0, 0, 0 -10 z" transform="rotate(90,205,65)"/><path d="M 200 80 v 10 h 5 a 5 5, 0, 0, 0, 0 -10 z" transform="rotate(-90,205,85)"/><rect x="200" y="90" width="10" height="10" transform="rotate(0,205,95)"/><rect x="200" y="100" width="10" height="10" transform="rotate(0,205,105)"/><rect x="200" y="110" width="10" height="10" transform="rotate(0,205,115)"/><path d="M 200 120 v 10 h 5 a 5 5, 0, 0, 0, 0 -10 z" transform="rotate(90,205,125)"/><path d="M 200 140 v 10 h 5 a 5 5, 0, 0, 0, 0 -10 z" transform="rotate(-90,205,145)"/><rect x="200" y="150" width="10" height="10" transform="rotate(0,205,155)"/><path d="M 200 160 v 10 h 5 a 5 5, 0, 0, 0, 0 -10 z" transform="rotate(90,205,165)"/><circle cx="205" cy="225" r="5" transform="rotate(0,205,225)"/><path d="M 200 270 v 10 h 5 a 5 5, 0, 0, 0, 0 -10 z" transform="rotate(-90,205,275)"/><rect x="200" y="280" width="10" height="10" transform="rotate(0,205,285)"/><rect x="200" y="290" width="10" height="10" transform="rotate(0,205,295)"/><path d="M 200 300 v 10 h 5 a 5 5, 0, 0, 0, 0 -10 z" transform="rotate(90,205,305)"/><circle cx="205" cy="325" r="5" transform="rotate(0,205,325)"/><circle cx="205" cy="345" r="5" transform="rotate(0,205,345)"/><circle cx="205" cy="365" r="5" transform="rotate(0,205,365)"/><path d="M 210 30 v 10 h 5 a 5 5, 0, 0, 0, 0 -10 z" transform="rotate(-90,215,35)"/><path d="M 210 40 v 10 h 5 a 5 5, 0, 0, 0, 0 -10 z" transform="rotate(90,215,45)"/><path d="M 210 60 v 10 h 5 a 5 5, 0, 0, 0, 0 -10 z" transform="rotate(-90,215,65)"/><path d="M 210 70 v 10 h 5 a 5 5, 0, 0, 0, 0 -10 z" transform="rotate(90,215,75)"/><path d="M 210 100 v 10 h 5 a 5 5, 0, 0, 0, 0 -10 z" transform="rotate(-90,215,105)"/><path d="M 210 110 v 10 h 5 a 5 5, 0, 0, 0, 0 -10 z" transform="rotate(90,215,115)"/><path d="M 210 130 v 10 h 5 a 5 5, 0, 0, 0, 0 -10 z" transform="rotate(-90,215,135)"/><path d="M 210 140 v 10 h 5 a 5 5, 0, 0, 0, 0 -10 z" transform="rotate(90,215,145)"/><path d="M 210 170 v 10 h 5 a 5 5, 0, 0, 0, 0 -10 z" transform="rotate(-90,215,175)"/><rect x="210" y="180" width="10" height="10" transform="rotate(0,215,185)"/><rect x="210" y="190" width="10" height="10" transform="rotate(0,215,195)"/><rect x="210" y="200" width="10" height="10" transform="rotate(0,215,205)"/><path d="M 210 210 v 10 h 5 a 5 5, 0, 0, 0, 0 -10 z" transform="rotate(90,215,215)"/><path d="M 210 240 v 10 h 5 a 5 5, 0, 0, 0, 0 -10 z" transform="rotate(-90,215,245)"/><path d="M 210 250 v 10 h 5 a 5 5, 0, 0, 0, 0 -10 z" transform="rotate(90,215,255)"/><path d="M 210 280 v 10 h 5 a 5 5, 0, 0, 0, 0 -10 z" transform="rotate(-90,215,285)"/><rect x="210" y="290" width="10" height="10" transform="rotate(0,215,295)"/><path d="M 210 300 v 10 h 5 a 5 5, 0, 0, 0, 0 -10 z" transform="rotate(90,215,305)"/><circle cx="215" cy="325" r="5" transform="rotate(0,215,325)"/><path d="M 210 350 v 10 h 5 a 5 5, 0, 0, 0, 0 -10 z" transform="rotate(-90,215,355)"/><rect x="210" y="360" width="10" height="10" transform="rotate(0,215,365)"/><path d="M 210 370 v 10 h 5 a 5 5, 0, 0, 0, 0 -10 z" transform="rotate(90,215,375)"/><circle cx="225" cy="25" r="5" transform="rotate(0,225,25)"/><path d="M 220 50 v 10 h 5 a 5 5, 0, 0, 0, 0 -10 z" transform="rotate(-90,225,55)"/><rect x="220" y="60" width="10" height="10" transform="rotate(0,225,65)"/><rect x="220" y="70" width="10" height="10" transform="rotate(0,225,75)"/><rect x="220" y="80" width="10" height="10" transform="rotate(0,225,85)"/><path d="M 220 90 v 10 h 5 a 5 5, 0, 0, 0, 0 -10 z" transform="rotate(90,225,95)"/><circle cx="225" cy="125" r="5" transform="rotate(0,225,125)"/><circle cx="225" cy="145" r="5" transform="rotate(0,225,145)"/><circle cx="225" cy="195" r="5" transform="rotate(0,225,195)"/><path d="M 220 220 v 10 h 5 a 5 5, 0, 0, 0, 0 -10 z" transform="rotate(-90,225,225)"/><path d="M 220 230 v 10 h 5 a 5 5, 0, 0, 0, 0 -10 z" transform="rotate(90,225,235)"/><circle cx="225" cy="255" r="5" transform="rotate(0,225,255)"/><path d="M 220 270 v 10 h 5 a 5 5, 0, 0, 0, 0 -10 z" transform="rotate(-90,225,275)"/><path d="M 220 280 v 10 h 5 a 5 5, 0, 0, 0, 0 -10 z" transform="rotate(90,225,285)"/><path d="M 220 300 v 10 h 5 a 5 5, 0, 0, 0, 0 -10 z" transform="rotate(-90,225,305)"/><rect x="220" y="310" width="10" height="10" transform="rotate(0,225,315)"/><path d="M 220 320 v 10 h 5 a 5 5, 0, 0, 0, 0 -10 z" transform="rotate(90,225,325)"/><circle cx="225" cy="345" r="5" transform="rotate(0,225,345)"/><path d="M 220 370 v 10 h 5 a 5 5, 0, 0, 0, 0 -10 z" transform="rotate(-90,225,375)"/><path d="M 220 380 v 10 h 5 a 5 5, 0, 0, 0, 0 -10 z" transform="rotate(90,225,385)"/><circle cx="235" cy="45" r="5" transform="rotate(0,235,45)"/><path d="M 230 90 v 10 h 5 a 5 5, 0, 0, 0, 0 -10 z" transform="rotate(-90,235,95)"/><path d="M 230 100 v 10 h 5 a 5 5, 0, 0, 0, 0 -10 z" transform="rotate(90,235,105)"/><path d="M 230 130 v 10 h 5 a 5 5, 0, 0, 0, 0 -10 z" transform="rotate(-90,235,135)"/><rect x="230" y="140" width="10" height="10" transform="rotate(0,235,145)"/><path d="M 230 150 v 10 h 5 a 5 5, 0, 0, 0, 0 -10 z" transform="rotate(90,235,155)"/><path d="M 230 210 v 10 h 5 a 5 5, 0, 0, 0, 0 -10 z" transform="rotate(-90,235,215)"/><rect x="230" y="220" width="10" height="10" transform="rotate(0,235,225)"/><rect x="230" y="230" width="10" height="10" transform="rotate(0,235,235)"/><rect x="230" y="240" width="10" height="10" transform="rotate(0,235,245)"/><path d="M 230 250 v 10 h 5 a 5 5, 0, 0, 0, 0 -10 z" transform="rotate(90,235,255)"/><path d="M 230 280 v 10 h 5 a 5 5, 0, 0, 0, 0 -10 z" transform="rotate(-90,235,285)"/><rect x="230" y="290" width="10" height="10" transform="rotate(0,235,295)"/><path d="M 230 300 v 10 h 5 a 5 5, 0, 0, 0, 0 -10 z" transform="rotate(90,235,305)"/><path d="M 230 320 v 10 h 5 a 5 5, 0, 0, 0, 0 -10 z" transform="rotate(-90,235,325)"/><path d="M 230 330 v 10 h 5 a 5 5, 0, 0, 0, 0 -10 z" transform="rotate(90,235,335)"/><path d="M 230 370 v 10 h 5 a 5 5, 0, 0, 0, 0 -10 z" transform="rotate(-90,235,375)"/><path d="M 230 380 v 10 h 5 a 5 5, 0, 0, 0, 0 -10 z" transform="rotate(90,235,385)"/><path d="M 240 20 v 10 h 5 a 5 5, 0, 0, 0, 0 -10 z" transform="rotate(-90,245,25)"/><rect x="240" y="30" width="10" height="10" transform="rotate(0,245,35)"/><rect x="240" y="40" width="10" height="10" transform="rotate(0,245,45)"/><rect x="240" y="50" width="10" height="10" transform="rotate(0,245,55)"/><path d="M 240 60 v 10 h 5 a 5 5, 0, 0, 0, 0 -10 z" transform="rotate(90,245,65)"/><circle cx="245" cy="85" r="5" transform="rotate(0,245,85)"/><path d="M 240 100 v 10 h 5 a 5 5, 0, 0, 0, 0 -10 z" transform="rotate(-90,245,105)"/><rect x="240" y="110" width="10" height="10" transform="rotate(0,245,115)"/><rect x="240" y="120" width="10" height="10" transform="rotate(0,245,125)"/><path d="M 240 130 v 10 h 5 a 5 5, 0, 0, 0, 0 -10 z" transform="rotate(90,245,135)"/><path d="M 240 170 v 10 h 5 a 5 5, 0, 0, 0, 0 -10 z" transform="rotate(-90,245,175)"/><path d="M 240 180 v 10 h 5 a 5 5, 0, 0, 0, 0 -10 z" transform="rotate(90,245,185)"/><path d="M 240 200 v 10 h 5 a 5 5, 0, 0, 0, 0 -10 z" transform="rotate(-90,245,205)"/><rect x="240" y="210" width="10" height="10" transform="rotate(0,245,215)"/><rect x="240" y="220" width="10" height="10" transform="rotate(0,245,225)"/><rect x="240" y="230" width="10" height="10" transform="rotate(0,245,235)"/><path d="M 240 240 v 10 h 5 a 5 5, 0, 0, 0, 0 -10 z" transform="rotate(90,245,245)"/><circle cx="245" cy="265" r="5" transform="rotate(0,245,265)"/><path d="M 240 280 v 10 h 5 a 5 5, 0, 0, 0, 0 -10 z" transform="rotate(-90,245,285)"/><rect x="240" y="290" width="10" height="10" transform="rotate(0,245,295)"/><path d="M 240 300 v 10 h 5 a 5 5, 0, 0, 0, 0 -10 z" transform="rotate(90,245,305)"/><circle cx="245" cy="325" r="5" transform="rotate(0,245,325)"/><path d="M 240 350 v 10 h 5 a 5 5, 0, 0, 0, 0 -10 z" transform="rotate(-90,245,355)"/><path d="M 240 360 v 10 h 5 a 5 5, 0, 0, 0, 0 -10 z" transform="rotate(90,245,365)"/><circle cx="245" cy="385" r="5" transform="rotate(0,245,385)"/><path d="M 250 40 v 10 h 5 a 5 5, 0, 0, 0, 0 -10 z" transform="rotate(-90,255,45)"/><path d="M 250 50 v 10 h 5 a 5 5, 0, 0, 0, 0 -10 z" transform="rotate(90,255,55)"/><circle cx="255" cy="95" r="5" transform="rotate(0,255,95)"/><path d="M 250 110 v 10 h 5 a 5 5, 0, 0, 0, 0 -10 z" transform="rotate(-90,255,115)"/><rect x="250" y="120" width="10" height="10" transform="rotate(0,255,125)"/><rect x="250" y="130" width="10" height="10" transform="rotate(0,255,135)"/><rect x="250" y="140" width="10" height="10" transform="rotate(0,255,145)"/><rect x="250" y="150" width="10" height="10" transform="rotate(0,255,155)"/><path d="M 250 160 v 10 h 5 a 5 5, 0, 0, 0, 0 -10 z" transform="rotate(90,255,165)"/><circle cx="255" cy="225" r="5" transform="rotate(0,255,225)"/><path d="M 250 240 v 10 h 5 a 5 5, 0, 0, 0, 0 -10 z" transform="rotate(-90,255,245)"/><path d="M 250 250 v 10 h 5 a 5 5, 0, 0, 0, 0 -10 z" transform="rotate(90,255,255)"/><path d="M 250 270 v 10 h 5 a 5 5, 0, 0, 0, 0 -10 z" transform="rotate(-90,255,275)"/><rect x="250" y="280" width="10" height="10" transform="rotate(0,255,285)"/><path d="M 250 290 v 10 h 5 a 5 5, 0, 0, 0, 0 -10 z" transform="rotate(90,255,295)"/><path d="M 250 310 v 10 h 5 a 5 5, 0, 0, 0, 0 -10 z" transform="rotate(-90,255,315)"/><rect x="250" y="320" width="10" height="10" transform="rotate(0,255,325)"/><path d="M 250 330 v 10 h 5 a 5 5, 0, 0, 0, 0 -10 z" transform="rotate(90,255,335)"/><path d="M 250 360 v 10 h 5 a 5 5, 0, 0, 0, 0 -10 z" transform="rotate(-90,255,365)"/><path d="M 250 370 v 10 h 5 a 5 5, 0, 0, 0, 0 -10 z" transform="rotate(90,255,375)"/><circle cx="265" cy="25" r="5" transform="rotate(0,265,25)"/><circle cx="265" cy="55" r="5" transform="rotate(0,265,55)"/><circle cx="265" cy="85" r="5" transform="rotate(0,265,85)"/><circle cx="265" cy="105" r="5" transform="rotate(0,265,105)"/><circle cx="265" cy="135" r="5" transform="rotate(0,265,135)"/><circle cx="265" cy="165" r="5" transform="rotate(0,265,165)"/><circle cx="265" cy="185" r="5" transform="rotate(0,265,185)"/><circle cx="265" cy="215" r="5" transform="rotate(0,265,215)"/><circle cx="265" cy="265" r="5" transform="rotate(0,265,265)"/><path d="M 260 320 v 10 h 5 a 5 5, 0, 0, 0, 0 -10 z" transform="rotate(-90,265,325)"/><path d="M 260 330 v 10 h 5 a 5 5, 0, 0, 0, 0 -10 z" transform="rotate(90,265,335)"/><path d="M 260 350 v 10 h 5 a 5 5, 0, 0, 0, 0 -10 z" transform="rotate(-90,265,355)"/><path d="M 260 360 v 10 h 5 a 5 5, 0, 0, 0, 0 -10 z" transform="rotate(90,265,365)"/><circle cx="265" cy="385" r="5" transform="rotate(0,265,385)"/><circle cx="275" cy="25" r="5" transform="rotate(0,275,25)"/><path d="M 270 50 v 10 h 5 a 5 5, 0, 0, 0, 0 -10 z" transform="rotate(-90,275,55)"/><rect x="270" y="60" width="10" height="10" transform="rotate(0,275,65)"/><path d="M 270 70 v 10 h 5 a 5 5, 0, 0, 0, 0 -10 z" transform="rotate(90,275,75)"/><path d="M 270 100 v 10 h 5 a 5 5, 0, 0, 0, 0 -10 z" transform="rotate(-90,275,105)"/><path d="M 270 110 v 10 h 5 a 5 5, 0, 0, 0, 0 -10 z" transform="rotate(90,275,115)"/><circle cx="275" cy="195" r="5" transform="rotate(0,275,195)"/><path d="M 270 240 v 10 h 5 a 5 5, 0, 0, 0, 0 -10 z" transform="rotate(-90,275,245)"/><rect x="270" y="250" width="10" height="10" transform="rotate(0,275,255)"/><rect x="270" y="260" width="10" height="10" transform="rotate(0,275,265)"/><path d="M 270 270 v 10 h 5 a 5 5, 0, 0, 0, 0 -10 z" transform="rotate(90,275,275)"/><path d="M 270 310 v 10 h 5 a 5 5, 0, 0, 0, 0 -10 z" transform="rotate(-90,275,315)"/><path d="M 270 320 v 10 h 5 a 5 5, 0, 0, 0, 0 -10 z" transform="rotate(90,275,325)"/><circle cx="275" cy="365" r="5" transform="rotate(0,275,365)"/><path d="M 280 20 v 10 h 5 a 5 5, 0, 0, 0, 0 -10 z" transform="rotate(-90,285,25)"/><rect x="280" y="30" width="10" height="10" transform="rotate(0,285,35)"/><rect x="280" y="40" width="10" height="10" transform="rotate(0,285,45)"/><rect x="280" y="50" width="10" height="10" transform="rotate(0,285,55)"/><rect x="280" y="60" width="10" height="10" transform="rotate(0,285,65)"/><rect x="280" y="70" width="10" height="10" transform="rotate(0,285,75)"/><rect x="280" y="80" width="10" height="10" transform="rotate(0,285,85)"/><rect x="280" y="90" width="10" height="10" transform="rotate(0,285,95)"/><path d="M 280 100 v 10 h 5 a 5 5, 0, 0, 0, 0 -10 z" transform="rotate(90,285,105)"/><circle cx="285" cy="135" r="5" transform="rotate(0,285,135)"/><circle cx="285" cy="175" r="5" transform="rotate(0,285,175)"/><circle cx="285" cy="215" r="5" transform="rotate(0,285,215)"/><path d="M 280 230 v 10 h 5 a 5 5, 0, 0, 0, 0 -10 z" transform="rotate(-90,285,235)"/><path d="M 280 240 v 10 h 5 a 5 5, 0, 0, 0, 0 -10 z" transform="rotate(90,285,245)"/><path d="M 280 270 v 10 h 5 a 5 5, 0, 0, 0, 0 -10 z" transform="rotate(-90,285,275)"/><rect x="280" y="280" width="10" height="10" transform="rotate(0,285,285)"/><path d="M 280 290 v 10 h 5 a 5 5, 0, 0, 0, 0 -10 z" transform="rotate(90,285,295)"/><circle cx="285" cy="315" r="5" transform="rotate(0,285,315)"/><circle cx="285" cy="335" r="5" transform="rotate(0,285,335)"/><circle cx="285" cy="365" r="5" transform="rotate(0,285,365)"/><circle cx="285" cy="385" r="5" transform="rotate(0,285,385)"/><circle cx="295" cy="25" r="5" transform="rotate(0,295,25)"/><path d="M 290 40 v 10 h 5 a 5 5, 0, 0, 0, 0 -10 z" transform="rotate(-90,295,45)"/><rect x="290" y="50" width="10" height="10" transform="rotate(0,295,55)"/><path d="M 290 60 v 10 h 5 a 5 5, 0, 0, 0, 0 -10 z" transform="rotate(90,295,65)"/><path d="M 290 140 v 10 h 5 a 5 5, 0, 0, 0, 0 -10 z" transform="rotate(-90,295,145)"/><rect x="290" y="150" width="10" height="10" transform="rotate(0,295,155)"/><path d="M 290 160 v 10 h 5 a 5 5, 0, 0, 0, 0 -10 z" transform="rotate(90,295,165)"/><path d="M 290 190 v 10 h 5 a 5 5, 0, 0, 0, 0 -10 z" transform="rotate(-90,295,195)"/><path d="M 290 200 v 10 h 5 a 5 5, 0, 0, 0, 0 -10 z" transform="rotate(90,295,205)"/><path d="M 290 230 v 10 h 5 a 5 5, 0, 0, 0, 0 -10 z" transform="rotate(-90,295,235)"/><path d="M 290 240 v 10 h 5 a 5 5, 0, 0, 0, 0 -10 z" transform="rotate(90,295,245)"/><circle cx="295" cy="265" r="5" transform="rotate(0,295,265)"/><path d="M 290 280 v 10 h 5 a 5 5, 0, 0, 0, 0 -10 z" transform="rotate(-90,295,285)"/><rect x="290" y="290" width="10" height="10" transform="rotate(0,295,295)"/><rect x="290" y="300" width="10" height="10" transform="rotate(0,295,305)"/><rect x="290" y="310" width="10" height="10" transform="rotate(0,295,315)"/><path d="M 290 320 v 10 h 5 a 5 5, 0, 0, 0, 0 -10 z" transform="rotate(90,295,325)"/><path d="M 290 360 v 10 h 5 a 5 5, 0, 0, 0, 0 -10 z" transform="rotate(-90,295,365)"/><path d="M 290 370 v 10 h 5 a 5 5, 0, 0, 0, 0 -10 z" transform="rotate(90,295,375)"/><circle cx="305" cy="25" r="5" transform="rotate(0,305,25)"/><circle cx="305" cy="65" r="5" transform="rotate(0,305,65)"/><path d="M 300 80 v 10 h 5 a 5 5, 0, 0, 0, 0 -10 z" transform="rotate(-90,305,85)"/><path d="M 300 90 v 10 h 5 a 5 5, 0, 0, 0, 0 -10 z" transform="rotate(90,305,95)"/><path d="M 300 110 v 10 h 5 a 5 5, 0, 0, 0, 0 -10 z" transform="rotate(-90,305,115)"/><path d="M 300 120 v 10 h 5 a 5 5, 0, 0, 0, 0 -10 z" transform="rotate(90,305,125)"/><circle cx="305" cy="155" r="5" transform="rotate(0,305,155)"/><circle cx="305" cy="175" r="5" transform="rotate(0,305,175)"/><path d="M 300 190 v 10 h 5 a 5 5, 0, 0, 0, 0 -10 z" transform="rotate(-90,305,195)"/><rect x="300" y="200" width="10" height="10" transform="rotate(0,305,205)"/><path d="M 300 210 v 10 h 5 a 5 5, 0, 0, 0, 0 -10 z" transform="rotate(90,305,215)"/><path d="M 300 240 v 10 h 5 a 5 5, 0, 0, 0, 0 -10 z" transform="rotate(-90,305,245)"/><path d="M 300 250 v 10 h 5 a 5 5, 0, 0, 0, 0 -10 z" transform="rotate(90,305,255)"/><path d="M 300 300 v 10 h 5 a 5 5, 0, 0, 0, 0 -10 z" transform="rotate(-90,305,305)"/><rect x="300" y="310" width="10" height="10" transform="rotate(0,305,315)"/><rect x="300" y="320" width="10" height="10" transform="rotate(0,305,325)"/><rect x="300" y="330" width="10" height="10" transform="rotate(0,305,335)"/><rect x="300" y="340" width="10" height="10" transform="rotate(0,305,345)"/><rect x="300" y="350" width="10" height="10" transform="rotate(0,305,355)"/><path d="M 300 360 v 10 h 5 a 5 5, 0, 0, 0, 0 -10 z" transform="rotate(90,305,365)"/><circle cx="315" cy="105" r="5" transform="rotate(0,315,105)"/><circle cx="315" cy="135" r="5" transform="rotate(0,315,135)"/><path d="M 310 160 v 10 h 5 a 5 5, 0, 0, 0, 0 -10 z" transform="rotate(-90,315,165)"/><path d="M 310 170 v 10 h 5 a 5 5, 0, 0, 0, 0 -10 z" transform="rotate(90,315,175)"/><path d="M 310 200 v 10 h 5 a 5 5, 0, 0, 0, 0 -10 z" transform="rotate(-90,315,205)"/><path d="M 310 210 v 10 h 5 a 5 5, 0, 0, 0, 0 -10 z" transform="rotate(90,315,215)"/><path d="M 310 240 v 10 h 5 a 5 5, 0, 0, 0, 0 -10 z" transform="rotate(-90,315,245)"/><rect x="310" y="250" width="10" height="10" transform="rotate(0,315,255)"/><rect x="310" y="260" width="10" height="10" transform="rotate(0,315,265)"/><rect x="310" y="270" width="10" height="10" transform="rotate(0,315,275)"/><rect x="310" y="280" width="10" height="10" transform="rotate(0,315,285)"/><rect x="310" y="290" width="10" height="10" transform="rotate(0,315,295)"/><path d="M 310 300 v 10 h 5 a 5 5, 0, 0, 0, 0 -10 z" transform="rotate(90,315,305)"/><circle cx="315" cy="345" r="5" transform="rotate(0,315,345)"/><circle cx="325" cy="145" r="5" transform="rotate(0,325,145)"/><path d="M 320 170 v 10 h 5 a 5 5, 0, 0, 0, 0 -10 z" transform="rotate(-90,325,175)"/><path d="M 320 180 v 10 h 5 a 5 5, 0, 0, 0, 0 -10 z" transform="rotate(90,325,185)"/><path d="M 320 200 v 10 h 5 a 5 5, 0, 0, 0, 0 -10 z" transform="rotate(-90,325,205)"/><rect x="320" y="210" width="10" height="10" transform="rotate(0,325,215)"/><path d="M 320 220 v 10 h 5 a 5 5, 0, 0, 0, 0 -10 z" transform="rotate(90,325,225)"/><path d="M 320 250 v 10 h 5 a 5 5, 0, 0, 0, 0 -10 z" transform="rotate(-90,325,255)"/><path d="M 320 260 v 10 h 5 a 5 5, 0, 0, 0, 0 -10 z" transform="rotate(90,325,265)"/><path d="M 320 290 v 10 h 5 a 5 5, 0, 0, 0, 0 -10 z" transform="rotate(-90,325,295)"/><path d="M 320 300 v 10 h 5 a 5 5, 0, 0, 0, 0 -10 z" transform="rotate(90,325,305)"/><circle cx="325" cy="325" r="5" transform="rotate(0,325,325)"/><path d="M 320 340 v 10 h 5 a 5 5, 0, 0, 0, 0 -10 z" transform="rotate(-90,325,345)"/><rect x="320" y="350" width="10" height="10" transform="rotate(0,325,355)"/><rect x="320" y="360" width="10" height="10" transform="rotate(0,325,365)"/><rect x="320" y="370" width="10" height="10" transform="rotate(0,325,375)"/><path d="M 320 380 v 10 h 5 a 5 5, 0, 0, 0, 0 -10 z" transform="rotate(90,325,385)"/><path d="M 330 100 v 10 h 5 a 5 5, 0, 0, 0, 0 -10 z" transform="rotate(-90,335,105)"/><path d="M 330 110 v 10 h 5 a 5 5, 0, 0, 0, 0 -10 z" transform="rotate(90,335,115)"/><circle cx="335" cy="155" r="5" transform="rotate(0,335,155)"/><path d="M 330 180 v 10 h 5 a 5 5, 0, 0, 0, 0 -10 z" transform="rotate(-90,335,185)"/><path d="M 330 190 v 10 h 5 a 5 5, 0, 0, 0, 0 -10 z" transform="rotate(90,335,195)"/><circle cx="335" cy="225" r="5" transform="rotate(0,335,225)"/><circle cx="335" cy="245" r="5" transform="rotate(0,335,245)"/><circle cx="335" cy="275" r="5" transform="rotate(0,335,275)"/><circle cx="335" cy="305" r="5" transform="rotate(0,335,305)"/><path d="M 330 340 v 10 h 5 a 5 5, 0, 0, 0, 0 -10 z" transform="rotate(-90,335,345)"/><path d="M 330 350 v 10 h 5 a 5 5, 0, 0, 0, 0 -10 z" transform="rotate(90,335,355)"/><circle cx="335" cy="375" r="5" transform="rotate(0,335,375)"/><path d="M 340 100 v 10 h 5 a 5 5, 0, 0, 0, 0 -10 z" transform="rotate(-90,345,105)"/><rect x="340" y="110" width="10" height="10" transform="rotate(0,345,115)"/><path d="M 340 120 v 10 h 5 a 5 5, 0, 0, 0, 0 -10 z" transform="rotate(90,345,125)"/><path d="M 340 150 v 10 h 5 a 5 5, 0, 0, 0, 0 -10 z" transform="rotate(-90,345,155)"/><path d="M 340 160 v 10 h 5 a 5 5, 0, 0, 0, 0 -10 z" transform="rotate(90,345,165)"/><path d="M 340 190 v 10 h 5 a 5 5, 0, 0, 0, 0 -10 z" transform="rotate(-90,345,195)"/><path d="M 340 200 v 10 h 5 a 5 5, 0, 0, 0, 0 -10 z" transform="rotate(90,345,205)"/><circle cx="345" cy="235" r="5" transform="rotate(0,345,235)"/><circle cx="345" cy="255" r="5" transform="rotate(0,345,255)"/><circle cx="345" cy="275" r="5" transform="rotate(0,345,275)"/><path d="M 340 300 v 10 h 5 a 5 5, 0, 0, 0, 0 -10 z" transform="rotate(-90,345,305)"/><rect x="340" y="310" width="10" height="10" transform="rotate(0,345,315)"/><rect x="340" y="320" width="10" height="10" transform="rotate(0,345,325)"/><rect x="340" y="330" width="10" height="10" transform="rotate(0,345,335)"/><path d="M 340 340 v 10 h 5 a 5 5, 0, 0, 0, 0 -10 z" transform="rotate(90,345,345)"/><circle cx="345" cy="385" r="5" transform="rotate(0,345,385)"/><path d="M 350 110 v 10 h 5 a 5 5, 0, 0, 0, 0 -10 z" transform="rotate(-90,355,115)"/><path d="M 350 120 v 10 h 5 a 5 5, 0, 0, 0, 0 -10 z" transform="rotate(90,355,125)"/><circle cx="355" cy="175" r="5" transform="rotate(0,355,175)"/><circle cx="355" cy="235" r="5" transform="rotate(0,355,235)"/><circle cx="355" cy="275" r="5" transform="rotate(0,355,275)"/><circle cx="355" cy="295" r="5" transform="rotate(0,355,295)"/><circle cx="355" cy="325" r="5" transform="rotate(0,355,325)"/><path d="M 350 370 v 10 h 5 a 5 5, 0, 0, 0, 0 -10 z" transform="rotate(-90,355,375)"/><path d="M 350 380 v 10 h 5 a 5 5, 0, 0, 0, 0 -10 z" transform="rotate(90,355,385)"/><circle cx="365" cy="105" r="5" transform="rotate(0,365,105)"/><path d="M 360 120 v 10 h 5 a 5 5, 0, 0, 0, 0 -10 z" transform="rotate(-90,365,125)"/><rect x="360" y="130" width="10" height="10" transform="rotate(0,365,135)"/><rect x="360" y="140" width="10" height="10" transform="rotate(0,365,145)"/><path d="M 360 150 v 10 h 5 a 5 5, 0, 0, 0, 0 -10 z" transform="rotate(90,365,155)"/><path d="M 360 170 v 10 h 5 a 5 5, 0, 0, 0, 0 -10 z" transform="rotate(-90,365,175)"/><path d="M 360 180 v 10 h 5 a 5 5, 0, 0, 0, 0 -10 z" transform="rotate(90,365,185)"/><path d="M 360 210 v 10 h 5 a 5 5, 0, 0, 0, 0 -10 z" transform="rotate(-90,365,215)"/><rect x="360" y="220" width="10" height="10" transform="rotate(0,365,225)"/><rect x="360" y="230" width="10" height="10" transform="rotate(0,365,235)"/><rect x="360" y="240" width="10" height="10" transform="rotate(0,365,245)"/><rect x="360" y="250" width="10" height="10" transform="rotate(0,365,255)"/><path d="M 360 260 v 10 h 5 a 5 5, 0, 0, 0, 0 -10 z" transform="rotate(90,365,265)"/><path d="M 360 280 v 10 h 5 a 5 5, 0, 0, 0, 0 -10 z" transform="rotate(-90,365,285)"/><rect x="360" y="290" width="10" height="10" transform="rotate(0,365,295)"/><path d="M 360 300 v 10 h 5 a 5 5, 0, 0, 0, 0 -10 z" transform="rotate(90,365,305)"/><path d="M 360 330 v 10 h 5 a 5 5, 0, 0, 0, 0 -10 z" transform="rotate(-90,365,335)"/><rect x="360" y="340" width="10" height="10" transform="rotate(0,365,345)"/><path d="M 360 350 v 10 h 5 a 5 5, 0, 0, 0, 0 -10 z" transform="rotate(90,365,355)"/><path d="M 360 370 v 10 h 5 a 5 5, 0, 0, 0, 0 -10 z" transform="rotate(-90,365,375)"/><path d="M 360 380 v 10 h 5 a 5 5, 0, 0, 0, 0 -10 z" transform="rotate(90,365,385)"/><circle cx="375" cy="155" r="5" transform="rotate(0,375,155)"/><circle cx="375" cy="195" r="5" transform="rotate(0,375,195)"/><circle cx="375" cy="265" r="5" transform="rotate(0,375,265)"/><path d="M 370 290 v 10 h 5 a 5 5, 0, 0, 0, 0 -10 z" transform="rotate(-90,375,295)"/><path d="M 370 300 v 10 h 5 a 5 5, 0, 0, 0, 0 -10 z" transform="rotate(90,375,305)"/><path d="M 370 330 v 10 h 5 a 5 5, 0, 0, 0, 0 -10 z" transform="rotate(-90,375,335)"/><rect x="370" y="340" width="10" height="10" transform="rotate(0,375,345)"/><rect x="370" y="350" width="10" height="10" transform="rotate(0,375,355)"/><rect x="370" y="360" width="10" height="10" transform="rotate(0,375,365)"/><rect x="370" y="370" width="10" height="10" transform="rotate(0,375,375)"/><path d="M 370 380 v 10 h 5 a 5 5, 0, 0, 0, 0 -10 z" transform="rotate(90,375,385)"/><circle cx="385" cy="145" r="5" transform="rotate(0,385,145)"/><circle cx="385" cy="185" r="5" transform="rotate(0,385,185)"/><path d="M 380 210 v 10 h 5 a 5 5, 0, 0, 0, 0 -10 z" transform="rotate(-90,385,215)"/><path d="M 380 220 v 10 h 5 a 5 5, 0, 0, 0, 0 -10 z" transform="rotate(90,385,225)"/><circle cx="385" cy="255" r="5" transform="rotate(0,385,255)"/><circle cx="385" cy="295" r="5" transform="rotate(0,385,295)"/><circle cx="385" cy="345" r="5" transform="rotate(0,385,345)"/><circle cx="385" cy="385" r="5" transform="rotate(0,385,385)"/></g></mask><mask id="mask-corners-square-color-0-0-1-1" maskUnits="userSpaceOnUse" x="0" y="0" width="410" height="410"><g fill="#fff"><path clip-rule="evenodd" d="M 20 45 v 20 a 25 25, 0, 0, 0, 25 25 h 20 a 25 25, 0, 0, 0, 25 -25 v -20 a 25 25, 0, 0, 0, -25 -25 h -20 a 25 25, 0, 0, 0, -25 25 z M 45 30 h 20 a 15 15, 0, 0, 1, 15 15 v 20 a 15 15, 0, 0, 1, -15 15 h -20 a 15 15, 0, 0, 1, -15 -15 v -20 a 15 15, 0, 0, 1, 15 -15 z" transform="rotate(0,55,55)"/></g></mask><mask id="mask-corners-dot-color-0-0-1-1" maskUnits="userSpaceOnUse" x="0" y="0" width="410" height="410"><g fill="#fff"><circle cx="55" cy="55" r="14.2857143" transform="rotate(0,55,55)"/></g></mask><mask id="mask-corners-square-color-1-0-1-1" maskUnits="userSpaceOnUse" x="0" y="0" width="410" height="410"><g fill="#fff"><path clip-rule="evenodd" d="M 320 45 v 20 a 25 25, 0, 0, 0, 25 25 h 20 a 25 25, 0, 0, 0, 25 -25 v -20 a 25 25, 0, 0, 0, -25 -25 h -20 a 25 25, 0, 0, 0, -25 25 z M 345 30 h 20 a 15 15, 0, 0, 1, 15 15 v 20 a 15 15, 0, 0, 1, -15 15 h -20 a 15 15, 0, 0, 1, -15 -15 v -20 a 15 15, 0, 0, 1, 15 -15 z" transform="rotate(90,355,55)"/></g></mask><mask id="mask-corners-dot-color-1-0-1-1" maskUnits="userSpaceOnUse" x="0" y="0" width="410" height="410"><g fill="#fff"><circle cx="355" cy="55" r="14.2857143" transform="rotate(90,355,55)"/></g></mask><mask id="mask-corners-square-color-0-1-1-1" maskUnits="userSpaceOnUse" x="0" y="0" width="410" height="410"><g fill="#fff"><path clip-rule="evenodd" d="M 20 345 v 20 a 25 25, 0, 0, 0, 25 25 h 20 a 25 25, 0, 0, 0, 25 -25 v -20 a 25 25, 0, 0, 0, -25 -25 h -20 a 25 25, 0, 0, 0, -25 25 z M 45 330 h 20 a 15 15, 0, 0, 1, 15 15 v 20 a 15 15, 0, 0, 1, -15 15 h -20 a 15 15, 0, 0, 1, -15 -15 v -20 a 15 15, 0, 0, 1, 15 -15 z" transform="rotate(-90,55,355)"/></g></mask><mask id="mask-corners-dot-color-0-1-1-1" maskUnits="userSpaceOnUse" x="0" y="0" width="410" height="410"><g fill="#fff"><circle cx="55" cy="355" r="14.2857143" transform="rotate(-90,55,355)"/></g></mask></defs><rect x="0" y="0" height="410" width="410" style="mask:url(#mask-background-color-1-1)" fill="#ffffff"/><g><g><rect x="20" y="20" height="370" width="370" style="mask:url(#mask-dot-color-1-1)" fill="#000000"/><rect x="20" y="20" height="70" width="70" style="mask:url(#mask-corners-square-color-0-0-1-1)" fill="#000000"/><rect x="40" y="40" height="30" width="30" style="mask:url(#mask-corners-dot-color-0-0-1-1)" fill="#000000"/><rect x="320" y="20" height="70" width="70" style="mask:url(#mask-corners-square-color-1-0-1-1)" fill="#000000"/><rect x="340" y="40" height="30" width="30" style="mask:url(#mask-corners-dot-color-1-0-1-1)" fill="#000000"/><rect x="20" y="320" height="70" width="70" style="mask:url(#mask-corners-square-color-0-1-1-1)" fill="#000000"/><rect x="40" y="340" height="30" width="30" style="mask:url(#mask-corners-dot-color-0-1-1-1)" fill="#000000"/></g></g></svg>